<?xml version="1.0" encoding="UTF-8" standalone="no"?>
<!DOCTYPE svg PUBLIC "-//W3C//DTD SVG 1.1//EN"
 "http://www.w3.org/Graphics/SVG/1.1/DTD/svg11.dtd">
<!-- Generated by graphviz version 2.40.1 (20161225.0304)
 -->
<!-- Title: gocallvis Pages: 1 -->
<svg width="783pt" height="1640pt"
 viewBox="0.00 0.00 782.74 1639.80" xmlns="http://www.w3.org/2000/svg" xmlns:xlink="http://www.w3.org/1999/xlink">
<g id="graph0" class="graph" transform="scale(1 1) rotate(0) translate(0 1639.8)">
<title>gocallvis</title>
<polygon fill="#d3d3d3" stroke="transparent" points="0,0 0,-1639.8 782.7353,-1639.8 782.7353,0 0,0"/>
<text text-anchor="middle" x="112.6388" y="-8.2" font-family="Arial" font-size="14.00" fill="#000000">github.com/dreadl0ck/netcap/cmd</text>
<g id="clust1" class="cluster">
<title>cluster_focus</title>
<polygon fill="#e6ecfa" stroke="#000000" stroke-width=".5" points="8,-32.8 8,-1631.8 774.7353,-1631.8 774.7353,-32.8 8,-32.8"/>
<text text-anchor="middle" x="391.3677" y="-1611.6" font-family="Arial" font-size="18.00" fill="#000000">main</text>
</g>
<g id="clust11" class="cluster">
<title>cluster_github.com/dreadl0ck/netcap/io</title>
<g id="a_clust11"><a xlink:href="/?f=github.com/dreadl0ck/netcap/io" xlink:title="package: github.com/dreadl0ck/netcap/io">
<polygon fill="#ffffe0" stroke="#000000" stroke-width=".8" points="352.9054,-40.8 352.9054,-119.8 442.1467,-119.8 442.1467,-40.8 352.9054,-40.8"/>
<text text-anchor="middle" x="397.5261" y="-101.4" font-family="Tahoma bold" font-size="16.00" fill="#000000">io</text>
</a>
</g>
</g>
<g id="clust10" class="cluster">
<title>cluster_github.com/dreadl0ck/netcap/cmd/util</title>
<g id="a_clust10"><a xlink:href="/?f=github.com/dreadl0ck/netcap/cmd/util" xlink:title="package: github.com/dreadl0ck/netcap/cmd/util">
<polygon fill="#ffffe0" stroke="#000000" stroke-width=".8" points="362.5261,-571.8 362.5261,-711.8 432.5261,-711.8 432.5261,-571.8 362.5261,-571.8"/>
<text text-anchor="middle" x="397.5261" y="-693.4" font-family="Tahoma bold" font-size="16.00" fill="#000000">util</text>
</a>
</g>
</g>
<g id="clust9" class="cluster">
<title>cluster_github.com/dreadl0ck/netcap/cmd/transform</title>
<g id="a_clust9"><a xlink:href="/?f=github.com/dreadl0ck/netcap/cmd/transform" xlink:title="package: github.com/dreadl0ck/netcap/cmd/transform">
<polygon fill="#ffffe0" stroke="#000000" stroke-width=".8" points="163.9254,-1164.8 163.9254,-1243.8 241.9254,-1243.8 241.9254,-1164.8 163.9254,-1164.8"/>
<text text-anchor="middle" x="202.9254" y="-1225.4" font-family="Tahoma bold" font-size="16.00" fill="#000000">transform</text>
</a>
</g>
</g>
<g id="clust8" class="cluster">
<title>cluster_github.com/dreadl0ck/netcap/cmd/proxy</title>
<g id="a_clust8"><a xlink:href="/?f=github.com/dreadl0ck/netcap/cmd/proxy" xlink:title="package: github.com/dreadl0ck/netcap/cmd/proxy">
<polygon fill="#ffffe0" stroke="#000000" stroke-width=".8" points="362.5261,-423.8 362.5261,-563.8 432.5261,-563.8 432.5261,-423.8 362.5261,-423.8"/>
<text text-anchor="middle" x="397.5261" y="-545.4" font-family="Tahoma bold" font-size="16.00" fill="#000000">proxy</text>
</a>
</g>
</g>
<g id="clust7" class="cluster">
<title>cluster_github.com/dreadl0ck/netcap/cmd/label</title>
<g id="a_clust7"><a xlink:href="/?f=github.com/dreadl0ck/netcap/cmd/label" xlink:title="package: github.com/dreadl0ck/netcap/cmd/label">
<polygon fill="#ffffe0" stroke="#000000" stroke-width=".8" points="362.5261,-1305.8 362.5261,-1445.8 432.5261,-1445.8 432.5261,-1305.8 362.5261,-1305.8"/>
<text text-anchor="middle" x="397.5261" y="-1427.4" font-family="Tahoma bold" font-size="16.00" fill="#000000">label</text>
</a>
</g>
</g>
<g id="clust6" class="cluster">
<title>cluster_github.com/dreadl0ck/netcap/cmd/export</title>
<g id="a_clust6"><a xlink:href="/?f=github.com/dreadl0ck/netcap/cmd/export" xlink:title="package: github.com/dreadl0ck/netcap/cmd/export">
<polygon fill="#ffffe0" stroke="#000000" stroke-width=".8" points="362.5261,-275.8 362.5261,-415.8 432.5261,-415.8 432.5261,-275.8 362.5261,-275.8"/>
<text text-anchor="middle" x="397.5261" y="-397.4" font-family="Tahoma bold" font-size="16.00" fill="#000000">export</text>
</a>
</g>
</g>
<g id="clust5" class="cluster">
<title>cluster_github.com/dreadl0ck/netcap/cmd/dump</title>
<g id="a_clust5"><a xlink:href="/?f=github.com/dreadl0ck/netcap/cmd/dump" xlink:title="package: github.com/dreadl0ck/netcap/cmd/dump">
<polygon fill="#ffffe0" stroke="#000000" stroke-width=".8" points="362.5261,-127.8 362.5261,-267.8 432.5261,-267.8 432.5261,-127.8 362.5261,-127.8"/>
<text text-anchor="middle" x="397.5261" y="-249.4" font-family="Tahoma bold" font-size="16.00" fill="#000000">dump</text>
</a>
</g>
</g>
<g id="clust4" class="cluster">
<title>cluster_github.com/dreadl0ck/netcap/cmd/collect</title>
<g id="a_clust4"><a xlink:href="/?f=github.com/dreadl0ck/netcap/cmd/collect" xlink:title="package: github.com/dreadl0ck/netcap/cmd/collect">
<polygon fill="#ffffe0" stroke="#000000" stroke-width=".8" points="362.5261,-1157.8 362.5261,-1297.8 432.5261,-1297.8 432.5261,-1157.8 362.5261,-1157.8"/>
<text text-anchor="middle" x="397.5261" y="-1279.4" font-family="Tahoma bold" font-size="16.00" fill="#000000">collect</text>
</a>
</g>
</g>
<g id="clust3" class="cluster">
<title>cluster_github.com/dreadl0ck/netcap/cmd/capture</title>
<g id="a_clust3"><a xlink:href="/?f=github.com/dreadl0ck/netcap/cmd/capture" xlink:title="package: github.com/dreadl0ck/netcap/cmd/capture">
<polygon fill="#ffffe0" stroke="#000000" stroke-width=".8" points="362.5261,-1453.8 362.5261,-1593.8 432.5261,-1593.8 432.5261,-1453.8 362.5261,-1453.8"/>
<text text-anchor="middle" x="397.5261" y="-1575.4" font-family="Tahoma bold" font-size="16.00" fill="#000000">capture</text>
</a>
</g>
</g>
<g id="clust2" class="cluster">
<title>cluster_github.com/dreadl0ck/netcap/cmd/agent</title>
<g id="a_clust2"><a xlink:href="/?f=github.com/dreadl0ck/netcap/cmd/agent" xlink:title="package: github.com/dreadl0ck/netcap/cmd/agent">
<polygon fill="#ffffe0" stroke="#000000" stroke-width=".8" points="362.5261,-1009.8 362.5261,-1149.8 432.5261,-1149.8 432.5261,-1009.8 362.5261,-1009.8"/>
<text text-anchor="middle" x="397.5261" y="-1131.4" font-family="Tahoma bold" font-size="16.00" fill="#000000">agent</text>
</a>
</g>
</g>
<!-- github.com/dreadl0ck/netcap/cmd.printFileForExt -->
<g id="node1" class="node">
<title>github.com/dreadl0ck/netcap/cmd.printFileForExt</title>
<ellipse fill="#add8e6" stroke="#000000" stroke-width=".5" cx="585.9684" cy="-886.8" rx="53.535" ry="18"/>
<text text-anchor="middle" x="585.9684" y="-882.6" font-family="Verdana" font-size="14.00" fill="#000000">printFileForExt</text>
</g>
<!-- github.com/dreadl0ck/netcap/cmd.debug -->
<g id="node2" class="node">
<title>github.com/dreadl0ck/netcap/cmd.debug</title>
<ellipse fill="#add8e6" stroke="#000000" stroke-width=".5" cx="739.7353" cy="-916.8" rx="27" ry="18"/>
<text text-anchor="middle" x="739.7353" y="-912.6" font-family="Verdana" font-size="14.00" fill="#000000">debug</text>
</g>
<!-- github.com/dreadl0ck/netcap/cmd.printFileForExt&#45;&gt;github.com/dreadl0ck/netcap/cmd.debug -->
<g id="edge1" class="edge">
<title>github.com/dreadl0ck/netcap/cmd.printFileForExt&#45;&gt;github.com/dreadl0ck/netcap/cmd.debug</title>
<path fill="none" stroke="#000000" d="M632.5208,-895.8824C655.3098,-900.3285 682.333,-905.6008 703.548,-909.7398"/>
<polygon fill="#000000" stroke="#000000" points="702.9668,-913.1924 713.452,-911.6721 704.3073,-906.3219 702.9668,-913.1924"/>
</g>
<!-- github.com/dreadl0ck/netcap/cmd.help -->
<g id="node3" class="node">
<title>github.com/dreadl0ck/netcap/cmd.help</title>
<ellipse fill="#add8e6" stroke="#000000" stroke-width=".5" cx="202.9254" cy="-67.8" rx="27" ry="18"/>
<text text-anchor="middle" x="202.9254" y="-63.6" font-family="Verdana" font-size="14.00" fill="#000000">help</text>
</g>
<!-- github.com/dreadl0ck/netcap/io.PrintLogo -->
<g id="node27" class="node">
<title>github.com/dreadl0ck/netcap/io.PrintLogo</title>
<ellipse fill="#ffe4b5" stroke="#000000" stroke-width="1.5" cx="397.5261" cy="-66.8" rx="36.7417" ry="18"/>
<text text-anchor="middle" x="397.5261" y="-62.6" font-family="Verdana" font-size="14.00" fill="#000000">PrintLogo</text>
</g>
<!-- github.com/dreadl0ck/netcap/cmd.help&#45;&gt;github.com/dreadl0ck/netcap/io.PrintLogo -->
<g id="edge2" class="edge">
<title>github.com/dreadl0ck/netcap/cmd.help&#45;&gt;github.com/dreadl0ck/netcap/io.PrintLogo</title>
<path fill="none" stroke="#8b4513" d="M229.9838,-67.661C261.1039,-67.501 312.7509,-67.2356 350.4903,-67.0417"/>
<polygon fill="#8b4513" stroke="#8b4513" points="350.7555,-70.5405 360.7373,-66.989 350.7194,-63.5406 350.7555,-70.5405"/>
</g>
<!-- github.com/dreadl0ck/netcap/cmd.handleConfigFlag -->
<g id="node4" class="node">
<title>github.com/dreadl0ck/netcap/cmd.handleConfigFlag</title>
<ellipse fill="#add8e6" stroke="#000000" stroke-width=".5" cx="397.5261" cy="-886.8" rx="61.8511" ry="18"/>
<text text-anchor="middle" x="397.5261" y="-882.6" font-family="Verdana" font-size="14.00" fill="#000000">handleConfigFlag</text>
</g>
<!-- github.com/dreadl0ck/netcap/cmd.handleConfigFlag&#45;&gt;github.com/dreadl0ck/netcap/cmd.printFileForExt -->
<g id="edge3" class="edge">
<title>github.com/dreadl0ck/netcap/cmd.handleConfigFlag&#45;&gt;github.com/dreadl0ck/netcap/cmd.printFileForExt</title>
<path fill="none" stroke="#000000" d="M459.2291,-886.8C479.3389,-886.8 501.7012,-886.8 521.9751,-886.8"/>
<polygon fill="#000000" stroke="#000000" points="522.0512,-890.3001 532.0511,-886.8 522.0511,-883.3001 522.0512,-890.3001"/>
</g>
<!-- github.com/dreadl0ck/netcap/cmd.printCompletions -->
<g id="node5" class="node">
<title>github.com/dreadl0ck/netcap/cmd.printCompletions</title>
<ellipse fill="#add8e6" stroke="#000000" stroke-width=".5" cx="202.9254" cy="-860.8" rx="59.8509" ry="18"/>
<text text-anchor="middle" x="202.9254" y="-856.6" font-family="Verdana" font-size="14.00" fill="#000000">printCompletions</text>
</g>
<!-- github.com/dreadl0ck/netcap/cmd.printCompletions&#45;&gt;github.com/dreadl0ck/netcap/cmd.printFileForExt -->
<g id="edge15" class="edge">
<title>github.com/dreadl0ck/netcap/cmd.printCompletions&#45;&gt;github.com/dreadl0ck/netcap/cmd.printFileForExt</title>
<path fill="none" stroke="#000000" d="M260.3959,-855.5995C312.4781,-851.9071 391.2473,-848.8687 459.2014,-856.8 484.8353,-859.7919 512.8046,-866.0774 535.9339,-872.1257"/>
<polygon fill="#000000" stroke="#000000" points="535.2958,-875.5781 545.8608,-874.7839 537.1064,-868.8163 535.2958,-875.5781"/>
</g>
<!-- github.com/dreadl0ck/netcap/cmd.printCompletions&#45;&gt;github.com/dreadl0ck/netcap/cmd.debug -->
<g id="edge4" class="edge">
<title>github.com/dreadl0ck/netcap/cmd.printCompletions&#45;&gt;github.com/dreadl0ck/netcap/cmd.debug</title>
<path fill="none" stroke="#000000" d="M229.5468,-877.0354C266.0523,-897.7141 334.3348,-930.8 397.5261,-930.8 397.5261,-930.8 397.5261,-930.8 585.9684,-930.8 626.1879,-930.8 672.0821,-925.991 703.1838,-922.01"/>
<polygon fill="#000000" stroke="#000000" points="703.6771,-925.4753 713.1346,-920.6998 702.7633,-918.5352 703.6771,-925.4753"/>
</g>
<!-- github.com/dreadl0ck/netcap/cmd.printCompletions&#45;&gt;github.com/dreadl0ck/netcap/cmd.handleConfigFlag -->
<g id="edge16" class="edge">
<title>github.com/dreadl0ck/netcap/cmd.printCompletions&#45;&gt;github.com/dreadl0ck/netcap/cmd.handleConfigFlag</title>
<path fill="none" stroke="#000000" d="M257.9098,-868.1463C280.7258,-871.1947 307.397,-874.7581 331.2798,-877.949"/>
<polygon fill="#000000" stroke="#000000" points="330.9497,-881.436 341.3252,-879.2912 331.8768,-874.4976 330.9497,-881.436"/>
</g>
<!-- github.com/dreadl0ck/netcap/cmd.printFlags -->
<g id="node6" class="node">
<title>github.com/dreadl0ck/netcap/cmd.printFlags</title>
<ellipse fill="#add8e6" stroke="#000000" stroke-width=".5" cx="397.5261" cy="-974.8" rx="36.7385" ry="18"/>
<text text-anchor="middle" x="397.5261" y="-970.6" font-family="Verdana" font-size="14.00" fill="#000000">printFlags</text>
</g>
<!-- github.com/dreadl0ck/netcap/cmd.printCompletions&#45;&gt;github.com/dreadl0ck/netcap/cmd.printFlags -->
<g id="edge6" class="edge">
<title>github.com/dreadl0ck/netcap/cmd.printCompletions&#45;&gt;github.com/dreadl0ck/netcap/cmd.printFlags</title>
<path fill="none" stroke="#000000" d="M220.7499,-878.0313C239.1099,-895.0428 269.1574,-920.8946 298.8508,-937.8 316.6931,-947.9582 337.8538,-956.3204 355.9952,-962.5091"/>
<polygon fill="#000000" stroke="#000000" points="355.1296,-965.9091 365.7228,-965.7213 357.3246,-959.2622 355.1296,-965.9091"/>
</g>
<!-- github.com/dreadl0ck/netcap/cmd.getSubCmd -->
<g id="node7" class="node">
<title>github.com/dreadl0ck/netcap/cmd.getSubCmd</title>
<ellipse fill="#add8e6" stroke="#000000" stroke-width=".5" cx="397.5261" cy="-737.8" rx="41.7997" ry="18"/>
<text text-anchor="middle" x="397.5261" y="-733.6" font-family="Verdana" font-size="14.00" fill="#000000">getSubCmd</text>
</g>
<!-- github.com/dreadl0ck/netcap/cmd.printCompletions&#45;&gt;github.com/dreadl0ck/netcap/cmd.getSubCmd -->
<g id="edge14" class="edge">
<title>github.com/dreadl0ck/netcap/cmd.printCompletions&#45;&gt;github.com/dreadl0ck/netcap/cmd.getSubCmd</title>
<path fill="none" stroke="#000000" d="M225.3376,-843.846C251.2585,-824.5823 295.5444,-792.7195 335.8508,-768.8 343.4063,-764.3162 351.6924,-759.8582 359.6711,-755.7789"/>
<polygon fill="#000000" stroke="#000000" points="361.4631,-758.7958 368.834,-751.1852 358.3259,-752.5381 361.4631,-758.7958"/>
</g>
<!-- github.com/dreadl0ck/netcap/cmd.printFlagsFiltered -->
<g id="node8" class="node">
<title>github.com/dreadl0ck/netcap/cmd.printFlagsFiltered</title>
<ellipse fill="#add8e6" stroke="#000000" stroke-width=".5" cx="397.5261" cy="-798.8" rx="61.473" ry="18"/>
<text text-anchor="middle" x="397.5261" y="-794.6" font-family="Verdana" font-size="14.00" fill="#000000">printFlagsFiltered</text>
</g>
<!-- github.com/dreadl0ck/netcap/cmd.printCompletions&#45;&gt;github.com/dreadl0ck/netcap/cmd.printFlagsFiltered -->
<g id="edge17" class="edge">
<title>github.com/dreadl0ck/netcap/cmd.printCompletions&#45;&gt;github.com/dreadl0ck/netcap/cmd.printFlagsFiltered</title>
<path fill="none" stroke="#000000" d="M244.1952,-847.6514C274.0224,-838.1484 314.5059,-825.2503 346.3849,-815.0936"/>
<polygon fill="#000000" stroke="#000000" points="347.5152,-818.407 355.9808,-812.0364 345.3902,-811.7373 347.5152,-818.407"/>
</g>
<!-- github.com/dreadl0ck/netcap/cmd/agent.Flags -->
<g id="node10" class="node">
<title>github.com/dreadl0ck/netcap/cmd/agent.Flags</title>
<ellipse fill="#ffe4b5" stroke="#000000" stroke-width="1.5" cx="397.5261" cy="-1035.8" rx="27" ry="18"/>
<text text-anchor="middle" x="397.5261" y="-1031.6" font-family="Verdana" font-size="14.00" fill="#000000">Flags</text>
</g>
<!-- github.com/dreadl0ck/netcap/cmd.printCompletions&#45;&gt;github.com/dreadl0ck/netcap/cmd/agent.Flags -->
<g id="edge13" class="edge">
<title>github.com/dreadl0ck/netcap/cmd.printCompletions&#45;&gt;github.com/dreadl0ck/netcap/cmd/agent.Flags</title>
<path fill="none" stroke="#8b4513" d="M213.8656,-878.5478C234.1604,-910.0832 280.6373,-976.1022 335.8508,-1013.8 343.7798,-1019.2137 353.1895,-1023.4497 362.24,-1026.696"/>
<polygon fill="#8b4513" stroke="#8b4513" points="361.2401,-1030.0514 371.8328,-1029.8389 363.4196,-1023.3993 361.2401,-1030.0514"/>
</g>
<!-- github.com/dreadl0ck/netcap/cmd/capture.Flags -->
<g id="node12" class="node">
<title>github.com/dreadl0ck/netcap/cmd/capture.Flags</title>
<ellipse fill="#ffe4b5" stroke="#000000" stroke-width="1.5" cx="397.5261" cy="-1479.8" rx="27" ry="18"/>
<text text-anchor="middle" x="397.5261" y="-1475.6" font-family="Verdana" font-size="14.00" fill="#000000">Flags</text>
</g>
<!-- github.com/dreadl0ck/netcap/cmd.printCompletions&#45;&gt;github.com/dreadl0ck/netcap/cmd/capture.Flags -->
<g id="edge5" class="edge">
<title>github.com/dreadl0ck/netcap/cmd.printCompletions&#45;&gt;github.com/dreadl0ck/netcap/cmd/capture.Flags</title>
<path fill="none" stroke="#8b4513" d="M206.5413,-878.9876C225.877,-975.9466 316.8944,-1428.4984 335.8508,-1451.8 342.7117,-1460.2336 352.661,-1466.2276 362.5733,-1470.4441"/>
<polygon fill="#8b4513" stroke="#8b4513" points="361.3711,-1473.7313 371.9634,-1473.9638 363.828,-1467.1766 361.3711,-1473.7313"/>
</g>
<!-- github.com/dreadl0ck/netcap/cmd/collect.Flags -->
<g id="node14" class="node">
<title>github.com/dreadl0ck/netcap/cmd/collect.Flags</title>
<ellipse fill="#ffe4b5" stroke="#000000" stroke-width="1.5" cx="397.5261" cy="-1183.8" rx="27" ry="18"/>
<text text-anchor="middle" x="397.5261" y="-1179.6" font-family="Verdana" font-size="14.00" fill="#000000">Flags</text>
</g>
<!-- github.com/dreadl0ck/netcap/cmd.printCompletions&#45;&gt;github.com/dreadl0ck/netcap/cmd/collect.Flags -->
<g id="edge12" class="edge">
<title>github.com/dreadl0ck/netcap/cmd.printCompletions&#45;&gt;github.com/dreadl0ck/netcap/cmd/collect.Flags</title>
<path fill="none" stroke="#8b4513" d="M212.4955,-878.8063C230.6344,-913.2556 270.8009,-991.094 299.8508,-1058.8 317.9823,-1101.0589 304.5059,-1122.1538 335.8508,-1155.8 343.1249,-1163.6083 352.9923,-1169.3992 362.7001,-1173.6218"/>
<polygon fill="#8b4513" stroke="#8b4513" points="361.6643,-1176.9743 372.2528,-1177.3383 364.2023,-1170.4507 361.6643,-1176.9743"/>
</g>
<!-- github.com/dreadl0ck/netcap/cmd/dump.Flags -->
<g id="node16" class="node">
<title>github.com/dreadl0ck/netcap/cmd/dump.Flags</title>
<ellipse fill="#ffe4b5" stroke="#000000" stroke-width="1.5" cx="397.5261" cy="-214.8" rx="27" ry="18"/>
<text text-anchor="middle" x="397.5261" y="-210.6" font-family="Verdana" font-size="14.00" fill="#000000">Flags</text>
</g>
<!-- github.com/dreadl0ck/netcap/cmd.printCompletions&#45;&gt;github.com/dreadl0ck/netcap/cmd/dump.Flags -->
<g id="edge11" class="edge">
<title>github.com/dreadl0ck/netcap/cmd.printCompletions&#45;&gt;github.com/dreadl0ck/netcap/cmd/dump.Flags</title>
<path fill="none" stroke="#8b4513" d="M205.4908,-842.5734C218.1283,-754.4055 275.5798,-372.2214 335.8508,-269.8 344.2456,-255.5343 357.6008,-242.9558 369.7402,-233.4414"/>
<polygon fill="#8b4513" stroke="#8b4513" points="371.9603,-236.1517 377.8742,-227.361 367.7691,-230.545 371.9603,-236.1517"/>
</g>
<!-- github.com/dreadl0ck/netcap/cmd/export.Flags -->
<g id="node18" class="node">
<title>github.com/dreadl0ck/netcap/cmd/export.Flags</title>
<ellipse fill="#ffe4b5" stroke="#000000" stroke-width="1.5" cx="397.5261" cy="-362.8" rx="27" ry="18"/>
<text text-anchor="middle" x="397.5261" y="-358.6" font-family="Verdana" font-size="14.00" fill="#000000">Flags</text>
</g>
<!-- github.com/dreadl0ck/netcap/cmd.printCompletions&#45;&gt;github.com/dreadl0ck/netcap/cmd/export.Flags -->
<g id="edge10" class="edge">
<title>github.com/dreadl0ck/netcap/cmd.printCompletions&#45;&gt;github.com/dreadl0ck/netcap/cmd/export.Flags</title>
<path fill="none" stroke="#8b4513" d="M209.8402,-842.7375C226.763,-798.1012 270.9824,-678.8133 299.8508,-576.8 319.5799,-507.0824 299.0595,-480.2194 335.8508,-417.8 344.2558,-403.5403 357.612,-390.9624 369.7494,-381.4468"/>
<polygon fill="#8b4513" stroke="#8b4513" points="371.9694,-384.1572 377.8817,-375.3653 367.7772,-378.5513 371.9694,-384.1572"/>
</g>
<!-- github.com/dreadl0ck/netcap/cmd/label.Flags -->
<g id="node20" class="node">
<title>github.com/dreadl0ck/netcap/cmd/label.Flags</title>
<ellipse fill="#ffe4b5" stroke="#000000" stroke-width="1.5" cx="397.5261" cy="-1331.8" rx="27" ry="18"/>
<text text-anchor="middle" x="397.5261" y="-1327.6" font-family="Verdana" font-size="14.00" fill="#000000">Flags</text>
</g>
<!-- github.com/dreadl0ck/netcap/cmd.printCompletions&#45;&gt;github.com/dreadl0ck/netcap/cmd/label.Flags -->
<g id="edge9" class="edge">
<title>github.com/dreadl0ck/netcap/cmd.printCompletions&#45;&gt;github.com/dreadl0ck/netcap/cmd/label.Flags</title>
<path fill="none" stroke="#8b4513" d="M211.1333,-878.7541C229.486,-919.5368 274.2366,-1022.618 299.8508,-1112.8 323.4525,-1195.8968 282.5155,-1235.848 335.8508,-1303.8 342.5633,-1312.3521 352.4715,-1318.3791 362.3916,-1322.5893"/>
<polygon fill="#8b4513" stroke="#8b4513" points="361.2097,-1325.8839 371.8025,-1326.0924 363.6517,-1319.3237 361.2097,-1325.8839"/>
</g>
<!-- github.com/dreadl0ck/netcap/cmd/proxy.Flags -->
<g id="node22" class="node">
<title>github.com/dreadl0ck/netcap/cmd/proxy.Flags</title>
<ellipse fill="#ffe4b5" stroke="#000000" stroke-width="1.5" cx="397.5261" cy="-510.8" rx="27" ry="18"/>
<text text-anchor="middle" x="397.5261" y="-506.6" font-family="Verdana" font-size="14.00" fill="#000000">Flags</text>
</g>
<!-- github.com/dreadl0ck/netcap/cmd.printCompletions&#45;&gt;github.com/dreadl0ck/netcap/cmd/proxy.Flags -->
<g id="edge8" class="edge">
<title>github.com/dreadl0ck/netcap/cmd.printCompletions&#45;&gt;github.com/dreadl0ck/netcap/cmd/proxy.Flags</title>
<path fill="none" stroke="#8b4513" d="M213.3867,-842.94C232.2983,-810.1833 272.7255,-737.9622 299.8508,-673.8 319.5527,-627.197 308.0318,-608.0623 335.8508,-565.8 344.9517,-551.974 358.3765,-539.4389 370.3793,-529.8395"/>
<polygon fill="#8b4513" stroke="#8b4513" points="372.5945,-532.5514 378.3912,-523.6829 368.3293,-527.0008 372.5945,-532.5514"/>
</g>
<!-- github.com/dreadl0ck/netcap/cmd/util.Flags -->
<g id="node25" class="node">
<title>github.com/dreadl0ck/netcap/cmd/util.Flags</title>
<ellipse fill="#ffe4b5" stroke="#000000" stroke-width="1.5" cx="397.5261" cy="-658.8" rx="27" ry="18"/>
<text text-anchor="middle" x="397.5261" y="-654.6" font-family="Verdana" font-size="14.00" fill="#000000">Flags</text>
</g>
<!-- github.com/dreadl0ck/netcap/cmd.printCompletions&#45;&gt;github.com/dreadl0ck/netcap/cmd/util.Flags -->
<g id="edge7" class="edge">
<title>github.com/dreadl0ck/netcap/cmd.printCompletions&#45;&gt;github.com/dreadl0ck/netcap/cmd/util.Flags</title>
<path fill="none" stroke="#8b4513" d="M218.048,-843.1137C237.7149,-819.8171 272.7542,-777.2876 299.8508,-738.8 317.3165,-713.9919 312.2398,-699.853 335.8508,-680.8 343.3874,-674.7183 352.7376,-670.248 361.8598,-666.9902"/>
<polygon fill="#8b4513" stroke="#8b4513" points="363.097,-670.2697 371.5724,-663.912 360.9822,-663.5968 363.097,-670.2697"/>
</g>
<!-- github.com/dreadl0ck/netcap/cmd.main -->
<g id="node9" class="node">
<title>github.com/dreadl0ck/netcap/cmd.main</title>
<ellipse fill="#add8e6" stroke="#000000" stroke-width=".5" cx="43" cy="-860.8" rx="27" ry="18"/>
<text text-anchor="middle" x="43" y="-856.6" font-family="Verdana" font-size="14.00" fill="#000000">main</text>
</g>
<!-- github.com/dreadl0ck/netcap/cmd.main&#45;&gt;github.com/dreadl0ck/netcap/cmd.help -->
<g id="edge19" class="edge">
<title>github.com/dreadl0ck/netcap/cmd.main&#45;&gt;github.com/dreadl0ck/netcap/cmd.help</title>
<path fill="none" stroke="#000000" d="M43.6949,-842.4013C46.5839,-774.3114 59.7477,-530.5052 106,-335.8 127.6184,-244.7945 170.1665,-142.0444 190.9418,-94.5273"/>
<polygon fill="#000000" stroke="#000000" points="194.2002,-95.8124 195.0292,-85.2501 187.7944,-92.9901 194.2002,-95.8124"/>
</g>
<!-- github.com/dreadl0ck/netcap/cmd.main&#45;&gt;github.com/dreadl0ck/netcap/cmd.printCompletions -->
<g id="edge18" class="edge">
<title>github.com/dreadl0ck/netcap/cmd.main&#45;&gt;github.com/dreadl0ck/netcap/cmd.printCompletions</title>
<path fill="none" stroke="#000000" d="M70.1292,-860.8C87.3627,-860.8 110.5224,-860.8 132.6732,-860.8"/>
<polygon fill="#000000" stroke="#000000" points="132.7547,-864.3001 142.7546,-860.8 132.7546,-857.3001 132.7547,-864.3001"/>
</g>
<!-- github.com/dreadl0ck/netcap/cmd/agent.Run -->
<g id="node11" class="node">
<title>github.com/dreadl0ck/netcap/cmd/agent.Run</title>
<ellipse fill="#ffe4b5" stroke="#000000" stroke-width="1.5" cx="397.5261" cy="-1096.8" rx="27" ry="18"/>
<text text-anchor="middle" x="397.5261" y="-1092.6" font-family="Verdana" font-size="14.00" fill="#000000">Run</text>
</g>
<!-- github.com/dreadl0ck/netcap/cmd.main&#45;&gt;github.com/dreadl0ck/netcap/cmd/agent.Run -->
<g id="edge28" class="edge">
<title>github.com/dreadl0ck/netcap/cmd.main&#45;&gt;github.com/dreadl0ck/netcap/cmd/agent.Run</title>
<path fill="none" stroke="#8b4513" d="M60.4929,-874.6158C104.9207,-909.3635 226.3567,-1002.2221 335.8508,-1066.8 345.2351,-1072.3347 355.7902,-1077.7455 365.4802,-1082.4139"/>
<polygon fill="#8b4513" stroke="#8b4513" points="364.2689,-1085.7123 374.8065,-1086.8119 367.2546,-1079.3809 364.2689,-1085.7123"/>
</g>
<!-- github.com/dreadl0ck/netcap/cmd/capture.Run -->
<g id="node13" class="node">
<title>github.com/dreadl0ck/netcap/cmd/capture.Run</title>
<ellipse fill="#ffe4b5" stroke="#000000" stroke-width="1.5" cx="397.5261" cy="-1540.8" rx="27" ry="18"/>
<text text-anchor="middle" x="397.5261" y="-1536.6" font-family="Verdana" font-size="14.00" fill="#000000">Run</text>
</g>
<!-- github.com/dreadl0ck/netcap/cmd.main&#45;&gt;github.com/dreadl0ck/netcap/cmd/capture.Run -->
<g id="edge20" class="edge">
<title>github.com/dreadl0ck/netcap/cmd.main&#45;&gt;github.com/dreadl0ck/netcap/cmd/capture.Run</title>
<path fill="none" stroke="#8b4513" d="M45.6084,-879.0212C52.6324,-926.2705 73.6287,-1056.3348 106,-1160.8 161.084,-1338.5614 192.7469,-1391.8267 335.8508,-1510.8 344.1599,-1517.708 354.3284,-1523.4883 363.9938,-1528.0723"/>
<polygon fill="#8b4513" stroke="#8b4513" points="362.8445,-1531.3915 373.4041,-1532.255 365.6877,-1524.995 362.8445,-1531.3915"/>
</g>
<!-- github.com/dreadl0ck/netcap/cmd/collect.Run -->
<g id="node15" class="node">
<title>github.com/dreadl0ck/netcap/cmd/collect.Run</title>
<ellipse fill="#ffe4b5" stroke="#000000" stroke-width="1.5" cx="397.5261" cy="-1244.8" rx="27" ry="18"/>
<text text-anchor="middle" x="397.5261" y="-1240.6" font-family="Verdana" font-size="14.00" fill="#000000">Run</text>
</g>
<!-- github.com/dreadl0ck/netcap/cmd.main&#45;&gt;github.com/dreadl0ck/netcap/cmd/collect.Run -->
<g id="edge26" class="edge">
<title>github.com/dreadl0ck/netcap/cmd.main&#45;&gt;github.com/dreadl0ck/netcap/cmd/collect.Run</title>
<path fill="none" stroke="#8b4513" d="M55.0376,-877.0886C73.2533,-901.4418 109.2808,-948.4726 143,-985.8 208.488,-1058.2958 243.0035,-1060.3474 299.8508,-1139.8 321.3656,-1169.8703 309.774,-1188.5872 335.8508,-1214.8 343.6146,-1222.6044 353.8148,-1228.6845 363.6789,-1233.2679"/>
<polygon fill="#8b4513" stroke="#8b4513" points="362.3708,-1236.5149 372.9428,-1237.2111 365.1124,-1230.0741 362.3708,-1236.5149"/>
</g>
<!-- github.com/dreadl0ck/netcap/cmd/dump.Run -->
<g id="node17" class="node">
<title>github.com/dreadl0ck/netcap/cmd/dump.Run</title>
<ellipse fill="#ffe4b5" stroke="#000000" stroke-width="1.5" cx="397.5261" cy="-153.8" rx="27" ry="18"/>
<text text-anchor="middle" x="397.5261" y="-149.6" font-family="Verdana" font-size="14.00" fill="#000000">Run</text>
</g>
<!-- github.com/dreadl0ck/netcap/cmd.main&#45;&gt;github.com/dreadl0ck/netcap/cmd/dump.Run -->
<g id="edge25" class="edge">
<title>github.com/dreadl0ck/netcap/cmd.main&#45;&gt;github.com/dreadl0ck/netcap/cmd/dump.Run</title>
<path fill="none" stroke="#8b4513" d="M45.3589,-842.8416C55.6702,-765.9236 98.2695,-464.3896 143,-380.8 200.6595,-273.0495 237.0763,-256.7611 335.8508,-184.8 344.8058,-178.2759 355.3368,-172.4209 365.1374,-167.6026"/>
<polygon fill="#8b4513" stroke="#8b4513" points="366.6828,-170.7435 374.2348,-163.3127 363.6972,-164.4122 366.6828,-170.7435"/>
</g>
<!-- github.com/dreadl0ck/netcap/cmd/export.Run -->
<g id="node19" class="node">
<title>github.com/dreadl0ck/netcap/cmd/export.Run</title>
<ellipse fill="#ffe4b5" stroke="#000000" stroke-width="1.5" cx="397.5261" cy="-301.8" rx="27" ry="18"/>
<text text-anchor="middle" x="397.5261" y="-297.6" font-family="Verdana" font-size="14.00" fill="#000000">Run</text>
</g>
<!-- github.com/dreadl0ck/netcap/cmd.main&#45;&gt;github.com/dreadl0ck/netcap/cmd/export.Run -->
<g id="edge24" class="edge">
<title>github.com/dreadl0ck/netcap/cmd.main&#45;&gt;github.com/dreadl0ck/netcap/cmd/export.Run</title>
<path fill="none" stroke="#8b4513" d="M45.3893,-842.7822C52.8692,-791.0409 79.249,-638.8044 143,-530.8 205.4433,-425.0111 236.7467,-405.3868 335.8508,-332.8 344.7892,-326.2532 355.3156,-320.3919 365.1171,-315.5748"/>
<polygon fill="#8b4513" stroke="#8b4513" points="366.662,-318.716 374.2168,-311.2881 363.6788,-312.3835 366.662,-318.716"/>
</g>
<!-- github.com/dreadl0ck/netcap/cmd/label.Run -->
<g id="node21" class="node">
<title>github.com/dreadl0ck/netcap/cmd/label.Run</title>
<ellipse fill="#ffe4b5" stroke="#000000" stroke-width="1.5" cx="397.5261" cy="-1392.8" rx="27" ry="18"/>
<text text-anchor="middle" x="397.5261" y="-1388.6" font-family="Verdana" font-size="14.00" fill="#000000">Run</text>
</g>
<!-- github.com/dreadl0ck/netcap/cmd.main&#45;&gt;github.com/dreadl0ck/netcap/cmd/label.Run -->
<g id="edge23" class="edge">
<title>github.com/dreadl0ck/netcap/cmd.main&#45;&gt;github.com/dreadl0ck/netcap/cmd/label.Run</title>
<path fill="none" stroke="#8b4513" d="M50.1613,-878.2147C64.6681,-912.3542 99.8435,-989.6368 143,-1045.8 187.6068,-1103.8506 222.7774,-1097.5319 262.8508,-1158.8 315.5615,-1239.3895 271.5717,-1291.0972 335.8508,-1362.8 343.199,-1370.9969 353.2837,-1377.186 363.17,-1381.7485"/>
<polygon fill="#8b4513" stroke="#8b4513" points="361.9153,-1385.0174 372.492,-1385.6368 364.6101,-1378.5568 361.9153,-1385.0174"/>
</g>
<!-- github.com/dreadl0ck/netcap/cmd/proxy.Run -->
<g id="node23" class="node">
<title>github.com/dreadl0ck/netcap/cmd/proxy.Run</title>
<ellipse fill="#ffe4b5" stroke="#000000" stroke-width="1.5" cx="397.5261" cy="-449.8" rx="27" ry="18"/>
<text text-anchor="middle" x="397.5261" y="-445.6" font-family="Verdana" font-size="14.00" fill="#000000">Run</text>
</g>
<!-- github.com/dreadl0ck/netcap/cmd.main&#45;&gt;github.com/dreadl0ck/netcap/cmd/proxy.Run -->
<g id="edge22" class="edge">
<title>github.com/dreadl0ck/netcap/cmd.main&#45;&gt;github.com/dreadl0ck/netcap/cmd/proxy.Run</title>
<path fill="none" stroke="#8b4513" d="M50.2366,-843.1958C64.8752,-808.6655 100.2711,-730.4019 143,-672.8 215.0574,-575.6611 237.7295,-551.5138 335.8508,-480.8 344.8393,-474.3221 355.3796,-468.48 365.1784,-463.6592"/>
<polygon fill="#8b4513" stroke="#8b4513" points="366.725,-466.7996 374.2712,-459.3628 363.7344,-460.4705 366.725,-466.7996"/>
</g>
<!-- github.com/dreadl0ck/netcap/cmd/transform.Run -->
<g id="node24" class="node">
<title>github.com/dreadl0ck/netcap/cmd/transform.Run</title>
<ellipse fill="#ffe4b5" stroke="#000000" stroke-width="1.5" cx="202.9254" cy="-1190.8" rx="27" ry="18"/>
<text text-anchor="middle" x="202.9254" y="-1186.6" font-family="Verdana" font-size="14.00" fill="#000000">Run</text>
</g>
<!-- github.com/dreadl0ck/netcap/cmd.main&#45;&gt;github.com/dreadl0ck/netcap/cmd/transform.Run -->
<g id="edge27" class="edge">
<title>github.com/dreadl0ck/netcap/cmd.main&#45;&gt;github.com/dreadl0ck/netcap/cmd/transform.Run</title>
<path fill="none" stroke="#8b4513" d="M44.6785,-878.8287C50.3191,-935.8893 70.273,-1111.2727 106,-1153.8 120.966,-1171.6146 145.5071,-1180.8717 166.1497,-1185.6715"/>
<polygon fill="#8b4513" stroke="#8b4513" points="165.7133,-1189.155 176.2135,-1187.7424 167.1242,-1182.2987 165.7133,-1189.155"/>
</g>
<!-- github.com/dreadl0ck/netcap/cmd/util.Run -->
<g id="node26" class="node">
<title>github.com/dreadl0ck/netcap/cmd/util.Run</title>
<ellipse fill="#ffe4b5" stroke="#000000" stroke-width="1.5" cx="397.5261" cy="-597.8" rx="27" ry="18"/>
<text text-anchor="middle" x="397.5261" y="-593.6" font-family="Verdana" font-size="14.00" fill="#000000">Run</text>
</g>
<!-- github.com/dreadl0ck/netcap/cmd.main&#45;&gt;github.com/dreadl0ck/netcap/cmd/util.Run -->
<g id="edge21" class="edge">
<title>github.com/dreadl0ck/netcap/cmd.main&#45;&gt;github.com/dreadl0ck/netcap/cmd/util.Run</title>
<path fill="none" stroke="#8b4513" d="M58.9474,-846.2125C101.6334,-807.6138 222.9304,-700.8384 335.8508,-628.8 345.268,-622.7922 356.004,-617.0496 365.8499,-612.1755"/>
<polygon fill="#8b4513" stroke="#8b4513" points="367.4587,-615.2854 374.9449,-607.7883 364.4174,-608.9806 367.4587,-615.2854"/>
</g>
</g>
</svg>
