<?xml version="1.0" encoding="UTF-8" standalone="no"?>
<!DOCTYPE svg PUBLIC "-//W3C//DTD SVG 1.1//EN"
 "http://www.w3.org/Graphics/SVG/1.1/DTD/svg11.dtd">
<!-- Generated by graphviz version 2.40.1 (20161225.0304)
 -->
<!-- Title: gocallvis Pages: 1 -->
<svg width="1021pt" height="952pt"
 viewBox="0.00 0.00 1021.18 951.80" xmlns="http://www.w3.org/2000/svg" xmlns:xlink="http://www.w3.org/1999/xlink">
<g id="graph0" class="graph" transform="scale(1 1) rotate(0) translate(0 951.8)">
<title>gocallvis</title>
<polygon fill="#d3d3d3" stroke="transparent" points="0,0 0,-951.8 1021.1818,-951.8 1021.1818,0 0,0"/>
<text text-anchor="middle" x="112.6388" y="-8.2" font-family="Arial" font-size="14.00" fill="#000000">github.com/dreadl0ck/netcap/cmd</text>
<g id="clust1" class="cluster">
<title>cluster_focus</title>
<polygon fill="#e6ecfa" stroke="#000000" stroke-width=".5" points="8,-32.8 8,-943.8 1013.1818,-943.8 1013.1818,-32.8 8,-32.8"/>
<text text-anchor="middle" x="510.5909" y="-923.6" font-family="Arial" font-size="18.00" fill="#000000">core</text>
</g>
<g id="clust6" class="cluster">
<title>cluster_github.com/dreadl0ck/netcap/reassembly</title>
<g id="a_clust6"><a xlink:href="/?f=github.com/dreadl0ck/netcap/reassembly" xlink:title="package: github.com/dreadl0ck/netcap/reassembly">
<polygon fill="#ffffe0" stroke="#000000" stroke-width=".8" points="240.7755,-93.8 240.7755,-172.8 545.8278,-172.8 545.8278,-93.8 240.7755,-93.8"/>
<text text-anchor="middle" x="393.3016" y="-154.4" font-family="Tahoma bold" font-size="16.00" fill="#000000">reassembly</text>
</a>
</g>
</g>
<g id="clust5" class="cluster">
<title>cluster_github.com/dreadl0ck/netcap/decoder/stream/utils</title>
<g id="a_clust5"><a xlink:href="/?f=github.com/dreadl0ck/netcap/decoder/stream/utils" xlink:title="package: github.com/dreadl0ck/netcap/decoder/stream/utils">
<polygon fill="#ffffe0" stroke="#000000" stroke-width=".8" points="279.6849,-617.8 279.6849,-818.8 506.9184,-818.8 506.9184,-617.8 279.6849,-617.8"/>
<text text-anchor="middle" x="393.3016" y="-800.4" font-family="Tahoma bold" font-size="16.00" fill="#000000">utils</text>
</a>
</g>
</g>
<g id="clust4" class="cluster">
<title>cluster_github.com/dreadl0ck/netcap/decoder/stream/udp</title>
<g id="a_clust4"><a xlink:href="/?f=github.com/dreadl0ck/netcap/decoder/stream/udp" xlink:title="package: github.com/dreadl0ck/netcap/decoder/stream/udp">
<polygon fill="#ffffe0" stroke="#000000" stroke-width=".8" points="251.3385,-450.8 251.3385,-590.8 535.2648,-590.8 535.2648,-450.8 251.3385,-450.8"/>
<text text-anchor="middle" x="393.3016" y="-572.4" font-family="Tahoma bold" font-size="16.00" fill="#000000">udp</text>
</a>
</g>
</g>
<g id="clust3" class="cluster">
<title>cluster_github.com/dreadl0ck/netcap/decoder/stream/tcp</title>
<g id="a_clust3"><a xlink:href="/?f=github.com/dreadl0ck/netcap/decoder/stream/tcp" xlink:title="package: github.com/dreadl0ck/netcap/decoder/stream/tcp">
<polygon fill="#ffffe0" stroke="#000000" stroke-width=".8" points="268.4896,-180.8 268.4896,-442.8 518.1137,-442.8 518.1137,-180.8 268.4896,-180.8"/>
<text text-anchor="middle" x="393.3016" y="-424.4" font-family="Tahoma bold" font-size="16.00" fill="#000000">tcp</text>
</a>
</g>
</g>
<g id="clust2" class="cluster">
<title>cluster_github.com/dreadl0ck/netcap/decoder/stream/ssh</title>
<g id="a_clust2"><a xlink:href="/?f=github.com/dreadl0ck/netcap/decoder/stream/ssh" xlink:title="package: github.com/dreadl0ck/netcap/decoder/stream/ssh">
<polygon fill="#ffffe0" stroke="#000000" stroke-width=".8" points="312.8814,-826.8 312.8814,-905.8 473.7219,-905.8 473.7219,-826.8 312.8814,-826.8"/>
<text text-anchor="middle" x="393.3016" y="-887.4" font-family="Tahoma bold" font-size="16.00" fill="#000000">ssh</text>
</a>
</g>
</g>
<!-- (github.com/dreadl0ck/netcap/decoder/core.DataFragments).Less -->
<g id="node1" class="node">
<title>(github.com/dreadl0ck/netcap/decoder/core.DataFragments).Less</title>
<ellipse fill="#add8e6" stroke="#000000" stroke-width="1.5" cx="95.8878" cy="-389.8" rx="74.7508" ry="18"/>
<text text-anchor="middle" x="95.8878" y="-385.6" font-family="Verdana" font-size="14.00" fill="#000000">(DataFragments).Less</text>
</g>
<!-- (*github.com/dreadl0ck/netcap/decoder/core.StreamData).Context -->
<g id="node2" class="node">
<title>(*github.com/dreadl0ck/netcap/decoder/core.StreamData).Context</title>
<ellipse fill="#add8e6" stroke="#000000" stroke-width="1.5" cx="703.914" cy="-645.8" rx="78.2965" ry="18"/>
<text text-anchor="middle" x="703.914" y="-641.6" font-family="Verdana" font-size="14.00" fill="#000000">(*StreamData).Context</text>
</g>
<!-- (github.com/dreadl0ck/netcap/decoder/core.DataFragments).Less&#45;&gt;(*github.com/dreadl0ck/netcap/decoder/core.StreamData).Context -->
<g id="edge1" class="edge">
<title>(github.com/dreadl0ck/netcap/decoder/core.DataFragments).Less&#45;&gt;(*github.com/dreadl0ck/netcap/decoder/core.StreamData).Context</title>
<path fill="none" stroke="#000000" stroke-dasharray="5,2" d="M102.3454,-407.9341C118.2987,-449.6841 163.9453,-552.2665 240.7755,-594.8 270.4754,-611.2419 512.1837,-607.2728 545.8278,-611.8 577.6844,-616.0867 612.6688,-623.3404 641.6104,-630.0494"/>
<polygon fill="#000000" stroke="#000000" points="641.0447,-633.5118 651.5804,-632.3941 642.6472,-626.6977 641.0447,-633.5118"/>
</g>
<!-- (*github.com/dreadl0ck/netcap/decoder/stream/tcp.context).GetCaptureInfo -->
<g id="node14" class="node">
<title>(*github.com/dreadl0ck/netcap/decoder/stream/tcp.context).GetCaptureInfo</title>
<ellipse fill="#ffe4b5" stroke="#000000" stroke-width="1.5" cx="393.3016" cy="-389.8" rx="88.8813" ry="18"/>
<text text-anchor="middle" x="393.3016" y="-385.6" font-family="Verdana" font-size="14.00" fill="#000000">(*context).GetCaptureInfo</text>
</g>
<!-- (github.com/dreadl0ck/netcap/decoder/core.DataFragments).Less&#45;&gt;(*github.com/dreadl0ck/netcap/decoder/stream/tcp.context).GetCaptureInfo -->
<g id="edge3" class="edge">
<title>(github.com/dreadl0ck/netcap/decoder/core.DataFragments).Less&#45;&gt;(*github.com/dreadl0ck/netcap/decoder/stream/tcp.context).GetCaptureInfo</title>
<path fill="none" stroke="#8b4513" stroke-dasharray="5,2" d="M170.554,-389.8C208.0692,-389.8 254.025,-389.8 294.4303,-389.8"/>
<polygon fill="#8b4513" stroke="#8b4513" points="294.5747,-393.3001 304.5747,-389.8 294.5747,-386.3001 294.5747,-393.3001"/>
</g>
<!-- (*github.com/dreadl0ck/netcap/reassembly.assemblerSimpleContext).GetCaptureInfo -->
<g id="node23" class="node">
<title>(*github.com/dreadl0ck/netcap/reassembly.assemblerSimpleContext).GetCaptureInfo</title>
<ellipse fill="#ffe4b5" stroke="#000000" stroke-width="1.5" cx="393.3016" cy="-119.8" rx="144.5522" ry="18"/>
<text text-anchor="middle" x="393.3016" y="-115.6" font-family="Verdana" font-size="14.00" fill="#000000">(*assemblerSimpleContext).GetCaptureInfo</text>
</g>
<!-- (github.com/dreadl0ck/netcap/decoder/core.DataFragments).Less&#45;&gt;(*github.com/dreadl0ck/netcap/reassembly.assemblerSimpleContext).GetCaptureInfo -->
<g id="edge2" class="edge">
<title>(github.com/dreadl0ck/netcap/decoder/core.DataFragments).Less&#45;&gt;(*github.com/dreadl0ck/netcap/reassembly.assemblerSimpleContext).GetCaptureInfo</title>
<path fill="none" stroke="#8b4513" stroke-dasharray="5,2" d="M103.3271,-371.6875C121.0342,-330.7342 169.5887,-230.2704 240.7755,-174.8 261.4557,-158.6855 287.2769,-147.0166 311.7612,-138.6913"/>
<polygon fill="#8b4513" stroke="#8b4513" points="312.9973,-141.9699 321.4257,-135.5502 310.8335,-135.3127 312.9973,-141.9699"/>
</g>
<!-- (*github.com/dreadl0ck/netcap/decoder/core.StreamData).SetDirection -->
<g id="node3" class="node">
<title>(*github.com/dreadl0ck/netcap/decoder/core.StreamData).SetDirection</title>
<ellipse fill="#add8e6" stroke="#000000" stroke-width="1.5" cx="703.914" cy="-330.8" rx="93.1726" ry="18"/>
<text text-anchor="middle" x="703.914" y="-326.6" font-family="Verdana" font-size="14.00" fill="#000000">(*StreamData).SetDirection</text>
</g>
<!-- (*github.com/dreadl0ck/netcap/decoder/core.StreamData).Raw -->
<g id="node4" class="node">
<title>(*github.com/dreadl0ck/netcap/decoder/core.StreamData).Raw</title>
<ellipse fill="#add8e6" stroke="#000000" stroke-width="1.5" cx="937.591" cy="-692.8" rx="67.6816" ry="18"/>
<text text-anchor="middle" x="937.591" y="-688.6" font-family="Verdana" font-size="14.00" fill="#000000">(*StreamData).Raw</text>
</g>
<!-- (github.com/dreadl0ck/netcap/decoder/core.DataFragments).Size -->
<g id="node5" class="node">
<title>(github.com/dreadl0ck/netcap/decoder/core.DataFragments).Size</title>
<ellipse fill="#add8e6" stroke="#000000" stroke-width="1.5" cx="703.914" cy="-736.8" rx="73.9944" ry="18"/>
<text text-anchor="middle" x="703.914" y="-732.6" font-family="Verdana" font-size="14.00" fill="#000000">(DataFragments).Size</text>
</g>
<!-- (github.com/dreadl0ck/netcap/decoder/core.DataFragments).Size&#45;&gt;(*github.com/dreadl0ck/netcap/decoder/core.StreamData).Raw -->
<g id="edge6" class="edge">
<title>(github.com/dreadl0ck/netcap/decoder/core.DataFragments).Size&#45;&gt;(*github.com/dreadl0ck/netcap/decoder/core.StreamData).Raw</title>
<path fill="none" stroke="#000000" stroke-dasharray="5,2" d="M762.579,-725.7537C795.9251,-719.4749 837.7588,-711.5978 872.1636,-705.1196"/>
<polygon fill="#000000" stroke="#000000" points="872.9401,-708.535 882.1197,-703.2449 871.6447,-701.6559 872.9401,-708.535"/>
</g>
<!-- (*github.com/dreadl0ck/netcap/decoder/core.StreamData).Transport -->
<g id="node6" class="node">
<title>(*github.com/dreadl0ck/netcap/decoder/core.StreamData).Transport</title>
<ellipse fill="#add8e6" stroke="#000000" stroke-width="1.5" cx="703.914" cy="-581.8" rx="83.7063" ry="18"/>
<text text-anchor="middle" x="703.914" y="-577.6" font-family="Verdana" font-size="14.00" fill="#000000">(*StreamData).Transport</text>
</g>
<!-- (*github.com/dreadl0ck/netcap/decoder/core.StreamData).Direction -->
<g id="node7" class="node">
<title>(*github.com/dreadl0ck/netcap/decoder/core.StreamData).Direction</title>
<ellipse fill="#add8e6" stroke="#000000" stroke-width="1.5" cx="703.914" cy="-851.8" rx="82.9474" ry="18"/>
<text text-anchor="middle" x="703.914" y="-847.6" font-family="Verdana" font-size="14.00" fill="#000000">(*StreamData).Direction</text>
</g>
<!-- (*github.com/dreadl0ck/netcap/decoder/core.StreamData).CaptureInfo -->
<g id="node8" class="node">
<title>(*github.com/dreadl0ck/netcap/decoder/core.StreamData).CaptureInfo</title>
<ellipse fill="#add8e6" stroke="#000000" stroke-width="1.5" cx="703.914" cy="-493.8" rx="91.1477" ry="18"/>
<text text-anchor="middle" x="703.914" y="-489.6" font-family="Verdana" font-size="14.00" fill="#000000">(*StreamData).CaptureInfo</text>
</g>
<!-- (github.com/dreadl0ck/netcap/decoder/core.DataFragments).First -->
<g id="node9" class="node">
<title>(github.com/dreadl0ck/netcap/decoder/core.DataFragments).First</title>
<ellipse fill="#add8e6" stroke="#000000" stroke-width="1.5" cx="703.914" cy="-268.8" rx="74.7651" ry="18"/>
<text text-anchor="middle" x="703.914" y="-264.6" font-family="Verdana" font-size="14.00" fill="#000000">(DataFragments).First</text>
</g>
<!-- (github.com/dreadl0ck/netcap/decoder/core.DataFragments).First&#45;&gt;(*github.com/dreadl0ck/netcap/decoder/core.StreamData).Raw -->
<g id="edge13" class="edge">
<title>(github.com/dreadl0ck/netcap/decoder/core.DataFragments).First&#45;&gt;(*github.com/dreadl0ck/netcap/decoder/core.StreamData).Raw</title>
<path fill="none" stroke="#000000" stroke-dasharray="5,2" d="M760.1206,-280.6886C773.2286,-285.3787 786.4293,-291.8636 797.0003,-300.8 855.1265,-349.9377 912.7397,-583.4063 931.3659,-664.7626"/>
<polygon fill="#000000" stroke="#000000" points="928.0105,-665.7921 933.6355,-674.7704 934.8371,-664.2439 928.0105,-665.7921"/>
</g>
<!-- (*github.com/dreadl0ck/netcap/decoder/core.StreamData).Network -->
<g id="node10" class="node">
<title>(*github.com/dreadl0ck/netcap/decoder/core.StreamData).Network</title>
<ellipse fill="#add8e6" stroke="#000000" stroke-width="1.5" cx="703.914" cy="-426.8" rx="80.5506" ry="18"/>
<text text-anchor="middle" x="703.914" y="-422.6" font-family="Verdana" font-size="14.00" fill="#000000">(*StreamData).Network</text>
</g>
<!-- (github.com/dreadl0ck/netcap/decoder/core.DataFragments).reader -->
<g id="node11" class="node">
<title>(github.com/dreadl0ck/netcap/decoder/core.DataFragments).reader</title>
<ellipse fill="#add8e6" stroke="#000000" stroke-width=".5" cx="95.8878" cy="-58.8" rx="79.7757" ry="18"/>
<text text-anchor="middle" x="95.8878" y="-54.6" font-family="Verdana" font-size="14.00" fill="#000000">(DataFragments).reader</text>
</g>
<!-- (github.com/dreadl0ck/netcap/decoder/core.DataFragments).bytes -->
<g id="node12" class="node">
<title>(github.com/dreadl0ck/netcap/decoder/core.DataFragments).bytes</title>
<ellipse fill="#add8e6" stroke="#000000" stroke-width=".5" cx="393.3016" cy="-58.8" rx="76.6531" ry="18"/>
<text text-anchor="middle" x="393.3016" y="-54.6" font-family="Verdana" font-size="14.00" fill="#000000">(DataFragments).bytes</text>
</g>
<!-- (github.com/dreadl0ck/netcap/decoder/core.DataFragments).reader&#45;&gt;(github.com/dreadl0ck/netcap/decoder/core.DataFragments).bytes -->
<g id="edge29" class="edge">
<title>(github.com/dreadl0ck/netcap/decoder/core.DataFragments).reader&#45;&gt;(github.com/dreadl0ck/netcap/decoder/core.DataFragments).bytes</title>
<path fill="none" stroke="#000000" d="M175.9805,-58.8C216.2729,-58.8 265.173,-58.8 306.3765,-58.8"/>
<polygon fill="#000000" stroke="#000000" points="306.4024,-62.3001 316.4024,-58.8 306.4024,-55.3001 306.4024,-62.3001"/>
</g>
<!-- (*github.com/dreadl0ck/netcap/decoder/stream/ssh.sshReader).Decode -->
<g id="node13" class="node">
<title>(*github.com/dreadl0ck/netcap/decoder/stream/ssh.sshReader).Decode</title>
<ellipse fill="#ffe4b5" stroke="#000000" stroke-width="1.5" cx="393.3016" cy="-852.8" rx="72.3406" ry="18"/>
<text text-anchor="middle" x="393.3016" y="-848.6" font-family="Verdana" font-size="14.00" fill="#000000">(*sshReader).Decode</text>
</g>
<!-- (*github.com/dreadl0ck/netcap/decoder/stream/ssh.sshReader).Decode&#45;&gt;(*github.com/dreadl0ck/netcap/decoder/core.StreamData).Raw -->
<g id="edge18" class="edge">
<title>(*github.com/dreadl0ck/netcap/decoder/stream/ssh.sshReader).Decode&#45;&gt;(*github.com/dreadl0ck/netcap/decoder/core.StreamData).Raw</title>
<path fill="none" stroke="#8b4513" stroke-dasharray="5,2" d="M431.7344,-868.1307C506.6268,-895.4226 675.4061,-944.089 797.0003,-882.8 864.9902,-848.53 908.2787,-764.1257 926.9558,-720.2639"/>
<polygon fill="#8b4513" stroke="#8b4513" points="930.2844,-721.3734 930.8724,-710.7949 923.8159,-718.6978 930.2844,-721.3734"/>
</g>
<!-- (*github.com/dreadl0ck/netcap/decoder/stream/ssh.sshReader).Decode&#45;&gt;(*github.com/dreadl0ck/netcap/decoder/core.StreamData).Direction -->
<g id="edge17" class="edge">
<title>(*github.com/dreadl0ck/netcap/decoder/stream/ssh.sshReader).Decode&#45;&gt;(*github.com/dreadl0ck/netcap/decoder/core.StreamData).Direction</title>
<path fill="none" stroke="#8b4513" stroke-dasharray="5,2" d="M465.7344,-852.5668C508.9901,-852.4275 564.3754,-852.2492 610.8502,-852.0996"/>
<polygon fill="#8b4513" stroke="#8b4513" points="610.9397,-855.5994 620.9283,-852.0672 610.9171,-848.5995 610.9397,-855.5994"/>
</g>
<!-- (*github.com/dreadl0ck/netcap/decoder/stream/tcp.tcpConnection).reorder -->
<g id="node15" class="node">
<title>(*github.com/dreadl0ck/netcap/decoder/stream/tcp.tcpConnection).reorder</title>
<ellipse fill="#ffe4b5" stroke="#000000" stroke-width=".5" cx="393.3016" cy="-328.8" rx="84.9701" ry="18"/>
<text text-anchor="middle" x="393.3016" y="-324.6" font-family="Verdana" font-size="14.00" fill="#000000">(*tcpConnection).reorder</text>
</g>
<!-- (*github.com/dreadl0ck/netcap/decoder/stream/tcp.tcpConnection).reorder&#45;&gt;(*github.com/dreadl0ck/netcap/decoder/core.StreamData).SetDirection -->
<g id="edge4" class="edge">
<title>(*github.com/dreadl0ck/netcap/decoder/stream/tcp.tcpConnection).reorder&#45;&gt;(*github.com/dreadl0ck/netcap/decoder/core.StreamData).SetDirection</title>
<path fill="none" stroke="#8b4513" stroke-dasharray="5,2" d="M478.1778,-329.3465C515.9348,-329.5896 560.7378,-329.8781 600.4373,-330.1337"/>
<polygon fill="#8b4513" stroke="#8b4513" points="600.6582,-333.6351 610.6806,-330.1997 600.7034,-326.6353 600.6582,-333.6351"/>
</g>
<!-- (*github.com/dreadl0ck/netcap/decoder/stream/tcp.tcpConnection).decode -->
<g id="node16" class="node">
<title>(*github.com/dreadl0ck/netcap/decoder/stream/tcp.tcpConnection).decode</title>
<ellipse fill="#ffe4b5" stroke="#000000" stroke-width=".5" cx="393.3016" cy="-267.8" rx="84.1024" ry="18"/>
<text text-anchor="middle" x="393.3016" y="-263.6" font-family="Verdana" font-size="14.00" fill="#000000">(*tcpConnection).decode</text>
</g>
<!-- (*github.com/dreadl0ck/netcap/decoder/stream/tcp.tcpConnection).decode&#45;&gt;(github.com/dreadl0ck/netcap/decoder/core.DataFragments).First -->
<g id="edge14" class="edge">
<title>(*github.com/dreadl0ck/netcap/decoder/stream/tcp.tcpConnection).decode&#45;&gt;(github.com/dreadl0ck/netcap/decoder/core.DataFragments).First</title>
<path fill="none" stroke="#8b4513" d="M477.7676,-268.0719C521.6833,-268.2133 575.2168,-268.3857 619.1727,-268.5272"/>
<polygon fill="#8b4513" stroke="#8b4513" points="619.2498,-272.0273 629.2611,-268.5597 619.2724,-265.0274 619.2498,-272.0273"/>
</g>
<!-- (*github.com/dreadl0ck/netcap/decoder/stream/tcp.tcpStreamReader).ServiceBanner -->
<g id="node17" class="node">
<title>(*github.com/dreadl0ck/netcap/decoder/stream/tcp.tcpStreamReader).ServiceBanner</title>
<ellipse fill="#ffe4b5" stroke="#000000" stroke-width="1.5" cx="393.3016" cy="-206.8" rx="116.6245" ry="18"/>
<text text-anchor="middle" x="393.3016" y="-202.6" font-family="Verdana" font-size="14.00" fill="#000000">(*tcpStreamReader).ServiceBanner</text>
</g>
<!-- (*github.com/dreadl0ck/netcap/decoder/stream/tcp.tcpStreamReader).ServiceBanner&#45;&gt;(*github.com/dreadl0ck/netcap/decoder/core.StreamData).Raw -->
<g id="edge19" class="edge">
<title>(*github.com/dreadl0ck/netcap/decoder/stream/tcp.tcpStreamReader).ServiceBanner&#45;&gt;(*github.com/dreadl0ck/netcap/decoder/core.StreamData).Raw</title>
<path fill="none" stroke="#8b4513" stroke-dasharray="5,2" d="M459.0655,-191.8229C546.0325,-176.1021 699.6254,-163.0197 797.0003,-238.8 866.6912,-293.0357 918.1295,-573.9715 933.1166,-664.59"/>
<polygon fill="#8b4513" stroke="#8b4513" points="929.6966,-665.3643 934.7624,-674.6695 936.6051,-664.2362 929.6966,-665.3643"/>
</g>
<!-- (*github.com/dreadl0ck/netcap/decoder/stream/udp.udpStream).decode -->
<g id="node18" class="node">
<title>(*github.com/dreadl0ck/netcap/decoder/stream/udp.udpStream).decode</title>
<ellipse fill="#ffe4b5" stroke="#000000" stroke-width=".5" cx="393.3016" cy="-476.8" rx="72.3596" ry="18"/>
<text text-anchor="middle" x="393.3016" y="-472.6" font-family="Verdana" font-size="14.00" fill="#000000">(*udpStream).decode</text>
</g>
<!-- (*github.com/dreadl0ck/netcap/decoder/stream/udp.udpStream).decode&#45;&gt;(*github.com/dreadl0ck/netcap/decoder/core.StreamData).SetDirection -->
<g id="edge24" class="edge">
<title>(*github.com/dreadl0ck/netcap/decoder/stream/udp.udpStream).decode&#45;&gt;(*github.com/dreadl0ck/netcap/decoder/core.StreamData).SetDirection</title>
<path fill="none" stroke="#8b4513" stroke-dasharray="5,2" d="M465.5316,-478.4615C493.4213,-475.569 523.8386,-467.6178 545.8278,-448.8 574.4486,-424.307 546.5012,-394.7291 573.8278,-368.8 585.7005,-357.5344 600.726,-349.5855 616.3142,-343.9824"/>
<polygon fill="#8b4513" stroke="#8b4513" points="617.6552,-347.2262 626.0697,-340.7882 615.477,-340.5738 617.6552,-347.2262"/>
</g>
<!-- (*github.com/dreadl0ck/netcap/decoder/stream/udp.udpStream).decode&#45;&gt;(*github.com/dreadl0ck/netcap/decoder/core.StreamData).Raw -->
<g id="edge20" class="edge">
<title>(*github.com/dreadl0ck/netcap/decoder/stream/udp.udpStream).decode&#45;&gt;(*github.com/dreadl0ck/netcap/decoder/core.StreamData).Raw</title>
<path fill="none" stroke="#8b4513" stroke-dasharray="5,2" d="M462.6742,-471.3739C489.5418,-467.421 519.9881,-460.5927 545.8278,-448.8 579.4842,-433.4398 575.9174,-409.0459 610.8278,-396.8 688.9067,-369.4114 727.0581,-352.5897 797.0003,-396.8 892.7216,-457.3052 924.5852,-602.6704 934.025,-664.3534"/>
<polygon fill="#8b4513" stroke="#8b4513" points="930.5999,-665.1246 935.4918,-674.5225 937.5282,-664.1252 930.5999,-665.1246"/>
</g>
<!-- (*github.com/dreadl0ck/netcap/decoder/stream/udp.udpStream).decode&#45;&gt;(*github.com/dreadl0ck/netcap/decoder/core.StreamData).Transport -->
<g id="edge21" class="edge">
<title>(*github.com/dreadl0ck/netcap/decoder/stream/udp.udpStream).decode&#45;&gt;(*github.com/dreadl0ck/netcap/decoder/core.StreamData).Transport</title>
<path fill="none" stroke="#8b4513" stroke-dasharray="5,2" d="M455.7697,-486.0438C483.7197,-491.0565 516.8353,-498.2193 545.8278,-507.8 587.8598,-521.6897 633.3977,-543.8231 664.7542,-560.2695"/>
<polygon fill="#8b4513" stroke="#8b4513" points="663.1335,-563.3716 673.6085,-564.9602 666.4104,-557.186 663.1335,-563.3716"/>
</g>
<!-- (*github.com/dreadl0ck/netcap/decoder/stream/udp.udpStream).decode&#45;&gt;(*github.com/dreadl0ck/netcap/decoder/core.StreamData).CaptureInfo -->
<g id="edge22" class="edge">
<title>(*github.com/dreadl0ck/netcap/decoder/stream/udp.udpStream).decode&#45;&gt;(*github.com/dreadl0ck/netcap/decoder/core.StreamData).CaptureInfo</title>
<path fill="none" stroke="#8b4513" stroke-dasharray="5,2" d="M447.8874,-464.9144C492.2045,-455.9671 551.096,-445.8665 574.8278,-449.8 602.7482,-454.4277 632.738,-464.3265 656.7777,-473.5651"/>
<polygon fill="#8b4513" stroke="#8b4513" points="655.767,-476.9285 666.3542,-477.3306 658.3286,-470.414 655.767,-476.9285"/>
</g>
<!-- (*github.com/dreadl0ck/netcap/decoder/stream/udp.udpStream).decode&#45;&gt;(*github.com/dreadl0ck/netcap/decoder/core.StreamData).Network -->
<g id="edge23" class="edge">
<title>(*github.com/dreadl0ck/netcap/decoder/stream/udp.udpStream).decode&#45;&gt;(*github.com/dreadl0ck/netcap/decoder/core.StreamData).Network</title>
<path fill="none" stroke="#8b4513" stroke-dasharray="5,2" d="M451.6098,-466.0678C501.9963,-456.8053 567.6898,-444.7614 573.8278,-443.8 589.6671,-441.319 606.6311,-438.917 622.9038,-436.7383"/>
<polygon fill="#8b4513" stroke="#8b4513" points="623.4757,-440.1932 632.9303,-435.4118 622.5576,-433.2537 623.4757,-440.1932"/>
</g>
<!-- (*github.com/dreadl0ck/netcap/decoder/stream/udp.udpStreamProcessor).streamWorker$1 -->
<g id="node19" class="node">
<title>(*github.com/dreadl0ck/netcap/decoder/stream/udp.udpStreamProcessor).streamWorker$1</title>
<ellipse fill="#ffe4b5" stroke="#000000" stroke-dasharray="1,5" cx="393.3016" cy="-537.8" rx="133.9264" ry="18"/>
<text text-anchor="middle" x="393.3016" y="-533.6" font-family="Verdana" font-size="14.00" fill="#000000">(*udpStreamProcessor).streamWorker$1</text>
</g>
<!-- (*github.com/dreadl0ck/netcap/decoder/stream/udp.udpStreamProcessor).streamWorker$1&#45;&gt;(*github.com/dreadl0ck/netcap/decoder/core.StreamData).Raw -->
<g id="edge28" class="edge">
<title>(*github.com/dreadl0ck/netcap/decoder/stream/udp.udpStreamProcessor).streamWorker$1&#45;&gt;(*github.com/dreadl0ck/netcap/decoder/core.StreamData).Raw</title>
<path fill="none" stroke="#8b4513" stroke-dasharray="5,2" d="M520.8187,-532.1591C620.2018,-529.618 749.1003,-530.938 797.0003,-551.8 852.2775,-575.8751 897.4924,-632.5941 920.6975,-666.301"/>
<polygon fill="#8b4513" stroke="#8b4513" points="917.8949,-668.4053 926.3827,-674.7463 923.7018,-664.4963 917.8949,-668.4053"/>
</g>
<!-- (*github.com/dreadl0ck/netcap/decoder/stream/udp.udpStreamProcessor).streamWorker$1&#45;&gt;(*github.com/dreadl0ck/netcap/decoder/core.StreamData).Transport -->
<g id="edge25" class="edge">
<title>(*github.com/dreadl0ck/netcap/decoder/stream/udp.udpStreamProcessor).streamWorker$1&#45;&gt;(*github.com/dreadl0ck/netcap/decoder/core.StreamData).Transport</title>
<path fill="none" stroke="#8b4513" stroke-dasharray="5,2" d="M485.6546,-550.8823C529.5269,-557.0971 581.4671,-564.4547 623.6706,-570.4331"/>
<polygon fill="#8b4513" stroke="#8b4513" points="623.2318,-573.9058 633.6238,-571.843 624.2136,-566.975 623.2318,-573.9058"/>
</g>
<!-- (*github.com/dreadl0ck/netcap/decoder/stream/udp.udpStreamProcessor).streamWorker$1&#45;&gt;(*github.com/dreadl0ck/netcap/decoder/core.StreamData).CaptureInfo -->
<g id="edge27" class="edge">
<title>(*github.com/dreadl0ck/netcap/decoder/stream/udp.udpStreamProcessor).streamWorker$1&#45;&gt;(*github.com/dreadl0ck/netcap/decoder/core.StreamData).CaptureInfo</title>
<path fill="none" stroke="#8b4513" stroke-dasharray="5,2" d="M485.6546,-524.7177C528.1127,-518.7033 578.127,-511.6184 619.5596,-505.7493"/>
<polygon fill="#8b4513" stroke="#8b4513" points="620.2139,-509.1916 629.6241,-504.3236 619.2321,-502.2608 620.2139,-509.1916"/>
</g>
<!-- (*github.com/dreadl0ck/netcap/decoder/stream/udp.udpStreamProcessor).streamWorker$1&#45;&gt;(*github.com/dreadl0ck/netcap/decoder/core.StreamData).Network -->
<g id="edge26" class="edge">
<title>(*github.com/dreadl0ck/netcap/decoder/stream/udp.udpStreamProcessor).streamWorker$1&#45;&gt;(*github.com/dreadl0ck/netcap/decoder/core.StreamData).Network</title>
<path fill="none" stroke="#8b4513" stroke-dasharray="5,2" d="M489.0229,-525.0738C508.254,-520.8338 528.0148,-515.2189 545.8278,-507.8 578.0317,-494.3875 579.9933,-480.1163 610.8278,-463.8 623.3205,-457.1894 637.2632,-451.0469 650.476,-445.7417"/>
<polygon fill="#8b4513" stroke="#8b4513" points="651.9047,-448.941 659.9368,-442.0318 649.3492,-442.4241 651.9047,-448.941"/>
</g>
<!-- github.com/dreadl0ck/netcap/decoder/stream/utils.createBannerFromConversation -->
<g id="node20" class="node">
<title>github.com/dreadl0ck/netcap/decoder/stream/utils.createBannerFromConversation</title>
<ellipse fill="#ffe4b5" stroke="#000000" stroke-width=".5" cx="393.3016" cy="-704.8" rx="105.7337" ry="18"/>
<text text-anchor="middle" x="393.3016" y="-700.6" font-family="Verdana" font-size="14.00" fill="#000000">createBannerFromConversation</text>
</g>
<!-- github.com/dreadl0ck/netcap/decoder/stream/utils.createBannerFromConversation&#45;&gt;(*github.com/dreadl0ck/netcap/decoder/core.StreamData).Raw -->
<g id="edge5" class="edge">
<title>github.com/dreadl0ck/netcap/decoder/stream/utils.createBannerFromConversation&#45;&gt;(*github.com/dreadl0ck/netcap/decoder/core.StreamData).Raw</title>
<path fill="none" stroke="#8b4513" stroke-dasharray="5,2" d="M472.3164,-716.8549C496.2714,-721.5735 522.429,-727.8116 545.8278,-735.8 576.3008,-746.2035 579.4665,-760.4987 610.8278,-767.8 691.4159,-786.5619 716.7285,-787.8723 797.0003,-767.8 837.2003,-757.7479 878.4895,-733.7822 905.8305,-715.6264"/>
<polygon fill="#8b4513" stroke="#8b4513" points="907.88,-718.4655 914.1983,-709.9608 903.9555,-712.6691 907.88,-718.4655"/>
</g>
<!-- github.com/dreadl0ck/netcap/decoder/stream/utils.SaveConversation -->
<g id="node21" class="node">
<title>github.com/dreadl0ck/netcap/decoder/stream/utils.SaveConversation</title>
<ellipse fill="#ffe4b5" stroke="#000000" stroke-width="1.5" cx="393.3016" cy="-643.8" rx="62.2199" ry="18"/>
<text text-anchor="middle" x="393.3016" y="-639.6" font-family="Verdana" font-size="14.00" fill="#000000">SaveConversation</text>
</g>
<!-- github.com/dreadl0ck/netcap/decoder/stream/utils.SaveConversation&#45;&gt;(*github.com/dreadl0ck/netcap/decoder/core.StreamData).Context -->
<g id="edge11" class="edge">
<title>github.com/dreadl0ck/netcap/decoder/stream/utils.SaveConversation&#45;&gt;(*github.com/dreadl0ck/netcap/decoder/core.StreamData).Context</title>
<path fill="none" stroke="#8b4513" stroke-dasharray="5,2" d="M452.9591,-649.0612C488.363,-651.6085 534.1385,-653.9024 574.8278,-652.8 588.9551,-652.4172 603.9426,-651.7993 618.5123,-651.0849"/>
<polygon fill="#8b4513" stroke="#8b4513" points="618.7071,-654.5796 628.5166,-650.5767 618.3519,-647.5887 618.7071,-654.5796"/>
</g>
<!-- github.com/dreadl0ck/netcap/decoder/stream/utils.SaveConversation&#45;&gt;(*github.com/dreadl0ck/netcap/decoder/core.StreamData).Raw -->
<g id="edge10" class="edge">
<title>github.com/dreadl0ck/netcap/decoder/stream/utils.SaveConversation&#45;&gt;(*github.com/dreadl0ck/netcap/decoder/core.StreamData).Raw</title>
<path fill="none" stroke="#8b4513" stroke-dasharray="5,2" d="M446.3022,-653.3821C490.2309,-660.9522 554.387,-671.1517 610.8278,-676.8 695.7217,-685.2957 793.4941,-689.3301 859.8023,-691.2137"/>
<polygon fill="#8b4513" stroke="#8b4513" points="860.0753,-694.7224 870.1675,-691.4979 860.2672,-687.7251 860.0753,-694.7224"/>
</g>
<!-- github.com/dreadl0ck/netcap/decoder/stream/utils.SaveConversation&#45;&gt;(github.com/dreadl0ck/netcap/decoder/core.DataFragments).Size -->
<g id="edge7" class="edge">
<title>github.com/dreadl0ck/netcap/decoder/stream/utils.SaveConversation&#45;&gt;(github.com/dreadl0ck/netcap/decoder/core.DataFragments).Size</title>
<path fill="none" stroke="#8b4513" d="M454.4478,-647.1509C483.6961,-650.9468 518.2563,-658.7844 545.8278,-674.8 562.1689,-684.2922 557.612,-697.095 573.8278,-706.8 589.6849,-716.2904 608.2838,-722.7793 626.3782,-727.2157"/>
<polygon fill="#8b4513" stroke="#8b4513" points="625.8321,-730.6805 636.3581,-729.4752 627.3779,-723.8533 625.8321,-730.6805"/>
</g>
<!-- github.com/dreadl0ck/netcap/decoder/stream/utils.SaveConversation&#45;&gt;(*github.com/dreadl0ck/netcap/decoder/core.StreamData).Transport -->
<g id="edge8" class="edge">
<title>github.com/dreadl0ck/netcap/decoder/stream/utils.SaveConversation&#45;&gt;(*github.com/dreadl0ck/netcap/decoder/core.StreamData).Transport</title>
<path fill="none" stroke="#8b4513" stroke-dasharray="5,2" d="M455.1867,-641.1914C490.5398,-638.8253 535.5221,-634.3287 574.8278,-625.8 589.8994,-622.5297 623.0598,-611.1936 651.996,-600.8476"/>
<polygon fill="#8b4513" stroke="#8b4513" points="653.3884,-604.0664 661.615,-597.39 651.0205,-597.479 653.3884,-604.0664"/>
</g>
<!-- github.com/dreadl0ck/netcap/decoder/stream/utils.SaveConversation&#45;&gt;(*github.com/dreadl0ck/netcap/decoder/core.StreamData).Direction -->
<g id="edge9" class="edge">
<title>github.com/dreadl0ck/netcap/decoder/stream/utils.SaveConversation&#45;&gt;(*github.com/dreadl0ck/netcap/decoder/core.StreamData).Direction</title>
<path fill="none" stroke="#8b4513" stroke-dasharray="5,2" d="M455.2427,-645.8643C484.6791,-649.3557 519.1681,-657.3086 545.8278,-674.8 548.463,-676.529 608.7416,-765.4374 610.8278,-767.8 630.2425,-789.7876 655.0094,-811.9014 674.1149,-827.9165"/>
<polygon fill="#8b4513" stroke="#8b4513" points="671.9914,-830.7024 681.9243,-834.3886 676.4581,-825.3127 671.9914,-830.7024"/>
</g>
<!-- github.com/dreadl0ck/netcap/decoder/stream/utils.SaveConversation&#45;&gt;(*github.com/dreadl0ck/netcap/decoder/core.StreamData).CaptureInfo -->
<g id="edge12" class="edge">
<title>github.com/dreadl0ck/netcap/decoder/stream/utils.SaveConversation&#45;&gt;(*github.com/dreadl0ck/netcap/decoder/core.StreamData).CaptureInfo</title>
<path fill="none" stroke="#8b4513" stroke-dasharray="5,2" d="M442.4878,-632.7399C473.1053,-624.8698 512.8041,-612.8431 545.8278,-596.8 577.4321,-581.4464 581.4641,-571.0961 610.8278,-551.8 629.1213,-539.7786 649.7566,-526.8577 666.9414,-516.2694"/>
<polygon fill="#8b4513" stroke="#8b4513" points="668.8933,-519.1781 675.5827,-510.9621 665.2298,-513.2132 668.8933,-519.1781"/>
</g>
<!-- github.com/dreadl0ck/netcap/decoder/stream/utils.DecodeConversation -->
<g id="node22" class="node">
<title>github.com/dreadl0ck/netcap/decoder/stream/utils.DecodeConversation</title>
<ellipse fill="#ffe4b5" stroke="#000000" stroke-width="1.5" cx="393.3016" cy="-765.8" rx="70.7888" ry="18"/>
<text text-anchor="middle" x="393.3016" y="-761.6" font-family="Verdana" font-size="14.00" fill="#000000">DecodeConversation</text>
</g>
<!-- github.com/dreadl0ck/netcap/decoder/stream/utils.DecodeConversation&#45;&gt;(*github.com/dreadl0ck/netcap/decoder/core.StreamData).Raw -->
<g id="edge16" class="edge">
<title>github.com/dreadl0ck/netcap/decoder/stream/utils.DecodeConversation&#45;&gt;(*github.com/dreadl0ck/netcap/decoder/core.StreamData).Raw</title>
<path fill="none" stroke="#8b4513" stroke-dasharray="5,2" d="M447.2061,-777.5044C525.5757,-792.388 674.9412,-812.6778 797.0003,-781.8 841.4153,-770.5642 884.7567,-739.0925 911.3086,-716.7696"/>
<polygon fill="#8b4513" stroke="#8b4513" points="913.6882,-719.3396 918.9925,-710.1681 909.1266,-714.03 913.6882,-719.3396"/>
</g>
<!-- github.com/dreadl0ck/netcap/decoder/stream/utils.DecodeConversation&#45;&gt;(*github.com/dreadl0ck/netcap/decoder/core.StreamData).Direction -->
<g id="edge15" class="edge">
<title>github.com/dreadl0ck/netcap/decoder/stream/utils.DecodeConversation&#45;&gt;(*github.com/dreadl0ck/netcap/decoder/core.StreamData).Direction</title>
<path fill="none" stroke="#8b4513" stroke-dasharray="5,2" d="M441.494,-779.1431C495.6176,-794.1285 583.5807,-818.483 642.5685,-834.8151"/>
<polygon fill="#8b4513" stroke="#8b4513" points="641.9316,-838.2704 652.5029,-837.5657 643.7995,-831.5242 641.9316,-838.2704"/>
</g>
</g>
</svg>
