<?xml version="1.0" encoding="UTF-8" standalone="no"?>
<!DOCTYPE svg PUBLIC "-//W3C//DTD SVG 1.1//EN"
 "http://www.w3.org/Graphics/SVG/1.1/DTD/svg11.dtd">
<!-- Generated by graphviz version 2.40.1 (20161225.0304)
 -->
<!-- Title: gocallvis Pages: 1 -->
<svg width="1415pt" height="892pt"
 viewBox="0.00 0.00 1414.96 891.80" xmlns="http://www.w3.org/2000/svg" xmlns:xlink="http://www.w3.org/1999/xlink">
<g id="graph0" class="graph" transform="scale(1 1) rotate(0) translate(0 891.8)">
<title>gocallvis</title>
<polygon fill="#d3d3d3" stroke="transparent" points="0,0 0,-891.8 1414.9587,-891.8 1414.9587,0 0,0"/>
<text text-anchor="middle" x="112.6388" y="-8.2" font-family="Arial" font-size="14.00" fill="#000000">github.com/dreadl0ck/netcap/cmd</text>
<g id="clust1" class="cluster">
<title>cluster_focus</title>
<polygon fill="#e6ecfa" stroke="#000000" stroke-width=".5" points="8,-32.8 8,-883.8 1406.9587,-883.8 1406.9587,-32.8 8,-32.8"/>
<text text-anchor="middle" x="707.4794" y="-863.6" font-family="Arial" font-size="18.00" fill="#000000">dbs</text>
</g>
<g id="clust7" class="cluster">
<title>cluster_github.com/evilsocket/islazy/zip</title>
<g id="a_clust7"><a xlink:href="/?f=github.com/evilsocket/islazy/zip" xlink:title="package: github.com/evilsocket/islazy/zip">
<polygon fill="#ffffe0" stroke="#000000" stroke-width=".8" points="815.4594,-173.8 815.4594,-252.8 885.4594,-252.8 885.4594,-173.8 815.4594,-173.8"/>
<text text-anchor="middle" x="850.4594" y="-234.4" font-family="Tahoma bold" font-size="16.00" fill="#000000">zip</text>
</a>
</g>
</g>
<g id="clust6" class="cluster">
<title>cluster_github.com/dustin/go&#45;humanize</title>
<g id="a_clust6"><a xlink:href="/?f=github.com/dustin/go-humanize" xlink:title="package: github.com/dustin/go&#45;humanize">
<polygon fill="#ffffe0" stroke="#000000" stroke-width=".8" points="1056.5874,-722.8 1056.5874,-801.8 1134.5874,-801.8 1134.5874,-722.8 1056.5874,-722.8"/>
<text text-anchor="middle" x="1095.5874" y="-783.4" font-family="Tahoma bold" font-size="16.00" fill="#000000">humanize</text>
</a>
</g>
</g>
<g id="clust5" class="cluster">
<title>cluster_github.com/dreadl0ck/netcap/utils</title>
<g id="a_clust5"><a xlink:href="/?f=github.com/dreadl0ck/netcap/utils" xlink:title="package: github.com/dreadl0ck/netcap/utils">
<polygon fill="#ffffe0" stroke="#000000" stroke-width=".8" points="1051.4203,-40.8 1051.4203,-241.8 1139.7545,-241.8 1139.7545,-40.8 1051.4203,-40.8"/>
<text text-anchor="middle" x="1095.5874" y="-223.4" font-family="Tahoma bold" font-size="16.00" fill="#000000">utils</text>
</a>
</g>
</g>
<g id="clust4" class="cluster">
<title>cluster_github.com/dreadl0ck/netcap/cmd/util</title>
<g id="a_clust4"><a xlink:href="/?f=github.com/dreadl0ck/netcap/cmd/util" xlink:title="package: github.com/dreadl0ck/netcap/cmd/util">
<polygon fill="#ffffe0" stroke="#000000" stroke-width=".8" points="16,-520.8 16,-599.8 86,-599.8 86,-520.8 16,-520.8"/>
<text text-anchor="middle" x="51" y="-581.4" font-family="Tahoma bold" font-size="16.00" fill="#000000">util</text>
</a>
</g>
</g>
<g id="clust3" class="cluster">
<title>cluster_github.com/dreadl0ck/cryptoutils</title>
<g id="a_clust3"><a xlink:href="/?f=github.com/dreadl0ck/cryptoutils" xlink:title="package: github.com/dreadl0ck/cryptoutils">
<polygon fill="#ffffe0" stroke="#000000" stroke-width=".8" points="806.2907,-40.8 806.2907,-119.8 894.6281,-119.8 894.6281,-40.8 806.2907,-40.8"/>
<text text-anchor="middle" x="850.4594" y="-101.4" font-family="Tahoma bold" font-size="16.00" fill="#000000">cryptoutils</text>
</a>
</g>
</g>
<g id="clust2" class="cluster">
<title>cluster_github.com/blevesearch/bleve</title>
<g id="a_clust2"><a xlink:href="/?f=github.com/blevesearch/bleve" xlink:title="package: github.com/blevesearch/bleve">
<polygon fill="#ffffe0" stroke="#000000" stroke-width=".8" points="1250.3827,-424.8 1250.3827,-747.8 1398.9587,-747.8 1398.9587,-424.8 1250.3827,-424.8"/>
<text text-anchor="middle" x="1324.6707" y="-729.4" font-family="Tahoma bold" font-size="16.00" fill="#000000">bleve</text>
</a>
</g>
</g>
<!-- github.com/dreadl0ck/netcap/dbs.CloneDBs -->
<g id="node1" class="node">
<title>github.com/dreadl0ck/netcap/dbs.CloneDBs</title>
<ellipse fill="#add8e6" stroke="#000000" stroke-width="1.5" cx="368.5329" cy="-182.8" rx="37.4967" ry="18"/>
<text text-anchor="middle" x="368.5329" y="-178.6" font-family="Verdana" font-size="14.00" fill="#000000">CloneDBs</text>
</g>
<!-- github.com/dreadl0ck/netcap/dbs.UpdateDBs -->
<g id="node2" class="node">
<title>github.com/dreadl0ck/netcap/dbs.UpdateDBs</title>
<ellipse fill="#add8e6" stroke="#000000" stroke-width="1.5" cx="593.4452" cy="-128.8" rx="41.3941" ry="18"/>
<text text-anchor="middle" x="593.4452" y="-124.6" font-family="Verdana" font-size="14.00" fill="#000000">UpdateDBs</text>
</g>
<!-- github.com/dreadl0ck/netcap/dbs.CloneDBs&#45;&gt;github.com/dreadl0ck/netcap/dbs.UpdateDBs -->
<g id="edge5" class="edge">
<title>github.com/dreadl0ck/netcap/dbs.CloneDBs&#45;&gt;github.com/dreadl0ck/netcap/dbs.UpdateDBs</title>
<path fill="none" stroke="#000000" d="M402.2045,-174.7157C440.664,-165.4818 503.8295,-150.3162 546.9626,-139.9602"/>
<polygon fill="#000000" stroke="#000000" points="548.0206,-143.3057 556.9271,-137.5678 546.3863,-136.4991 548.0206,-143.3057"/>
</g>
<!-- github.com/dreadl0ck/netcap/utils.Confirm -->
<g id="node32" class="node">
<title>github.com/dreadl0ck/netcap/utils.Confirm</title>
<ellipse fill="#ffe4b5" stroke="#000000" stroke-width="1.5" cx="1095.5874" cy="-127.8" rx="31.1839" ry="18"/>
<text text-anchor="middle" x="1095.5874" y="-123.6" font-family="Verdana" font-size="14.00" fill="#000000">Confirm</text>
</g>
<!-- github.com/dreadl0ck/netcap/dbs.CloneDBs&#45;&gt;github.com/dreadl0ck/netcap/utils.Confirm -->
<g id="edge1" class="edge">
<title>github.com/dreadl0ck/netcap/dbs.CloneDBs&#45;&gt;github.com/dreadl0ck/netcap/utils.Confirm</title>
<path fill="none" stroke="#8b4513" d="M405.7654,-180.2926C466.4047,-176.1832 590.2672,-167.6817 695.1268,-159.8 826.3804,-149.9344 981.7438,-137.2243 1054.3422,-131.2248"/>
<polygon fill="#8b4513" stroke="#8b4513" points="1054.7628,-134.7021 1064.4401,-130.3895 1054.1856,-127.7259 1054.7628,-134.7021"/>
</g>
<!-- github.com/dreadl0ck/cryptoutils.MD5Data -->
<g id="node30" class="node">
<title>github.com/dreadl0ck/cryptoutils.MD5Data</title>
<ellipse fill="#ffe4b5" stroke="#000000" stroke-width="1.5" cx="850.4594" cy="-66.8" rx="36.3382" ry="18"/>
<text text-anchor="middle" x="850.4594" y="-62.6" font-family="Verdana" font-size="14.00" fill="#000000">MD5Data</text>
</g>
<!-- github.com/dreadl0ck/netcap/dbs.UpdateDBs&#45;&gt;github.com/dreadl0ck/cryptoutils.MD5Data -->
<g id="edge2" class="edge">
<title>github.com/dreadl0ck/netcap/dbs.UpdateDBs&#45;&gt;github.com/dreadl0ck/cryptoutils.MD5Data</title>
<path fill="none" stroke="#8b4513" d="M629.7239,-120.0484C676.5859,-108.7438 758.0317,-89.0965 807.806,-77.0894"/>
<polygon fill="#8b4513" stroke="#8b4513" points="808.7204,-80.4693 817.6208,-74.7217 807.0788,-73.6644 808.7204,-80.4693"/>
</g>
<!-- github.com/dreadl0ck/netcap/utils.CopyFile -->
<g id="node33" class="node">
<title>github.com/dreadl0ck/netcap/utils.CopyFile</title>
<ellipse fill="#ffe4b5" stroke="#000000" stroke-width="1.5" cx="1095.5874" cy="-66.8" rx="33.9701" ry="18"/>
<text text-anchor="middle" x="1095.5874" y="-62.6" font-family="Verdana" font-size="14.00" fill="#000000">CopyFile</text>
</g>
<!-- github.com/dreadl0ck/netcap/dbs.UpdateDBs&#45;&gt;github.com/dreadl0ck/netcap/utils.CopyFile -->
<g id="edge3" class="edge">
<title>github.com/dreadl0ck/netcap/dbs.UpdateDBs&#45;&gt;github.com/dreadl0ck/netcap/utils.CopyFile</title>
<path fill="none" stroke="#8b4513" d="M634.0785,-132.4417C698.1692,-137.239 826.3892,-142.9911 932.792,-123.8 966.686,-117.6868 973.2917,-109.1975 1005.792,-97.8 1022.6755,-91.8792 1041.375,-85.4095 1057.3195,-79.9194"/>
<polygon fill="#8b4513" stroke="#8b4513" points="1058.5323,-83.2036 1066.8502,-76.6413 1056.2555,-76.5842 1058.5323,-83.2036"/>
</g>
<!-- github.com/evilsocket/islazy/zip.Unzip -->
<g id="node36" class="node">
<title>github.com/evilsocket/islazy/zip.Unzip</title>
<ellipse fill="#ffe4b5" stroke="#000000" stroke-width="1.5" cx="850.4594" cy="-199.8" rx="27" ry="18"/>
<text text-anchor="middle" x="850.4594" y="-195.6" font-family="Verdana" font-size="14.00" fill="#000000">Unzip</text>
</g>
<!-- github.com/dreadl0ck/netcap/dbs.UpdateDBs&#45;&gt;github.com/evilsocket/islazy/zip.Unzip -->
<g id="edge4" class="edge">
<title>github.com/dreadl0ck/netcap/dbs.UpdateDBs&#45;&gt;github.com/evilsocket/islazy/zip.Unzip</title>
<path fill="none" stroke="#8b4513" d="M628.2099,-138.6885C663.4373,-148.6764 719.5209,-164.4893 768.1268,-177.8 783.6632,-182.0546 800.8764,-186.6696 815.53,-190.5688"/>
<polygon fill="#8b4513" stroke="#8b4513" points="814.6504,-193.9564 825.2138,-193.1407 816.4473,-187.191 814.6504,-193.9564"/>
</g>
<!-- github.com/dreadl0ck/netcap/dbs.processSource -->
<g id="node3" class="node">
<title>github.com/dreadl0ck/netcap/dbs.processSource</title>
<ellipse fill="#add8e6" stroke="#000000" stroke-width=".5" cx="368.5329" cy="-439.8" rx="50.4625" ry="18"/>
<text text-anchor="middle" x="368.5329" y="-435.6" font-family="Verdana" font-size="14.00" fill="#000000">processSource</text>
</g>
<!-- github.com/dreadl0ck/netcap/dbs.fetchResource -->
<g id="node4" class="node">
<title>github.com/dreadl0ck/netcap/dbs.fetchResource</title>
<ellipse fill="#add8e6" stroke="#000000" stroke-width=".5" cx="850.4594" cy="-400.8" rx="49.5743" ry="18"/>
<text text-anchor="middle" x="850.4594" y="-396.6" font-family="Verdana" font-size="14.00" fill="#000000">fetchResource</text>
</g>
<!-- github.com/dreadl0ck/netcap/dbs.processSource&#45;&gt;github.com/dreadl0ck/netcap/dbs.fetchResource -->
<g id="edge7" class="edge">
<title>github.com/dreadl0ck/netcap/dbs.processSource&#45;&gt;github.com/dreadl0ck/netcap/dbs.fetchResource</title>
<path fill="none" stroke="#000000" d="M406.981,-428.1943C431.0882,-421.4804 462.9511,-413.6238 491.7636,-409.8 596.235,-395.9352 719.2793,-396.4651 790.7223,-398.4193"/>
<polygon fill="#000000" stroke="#000000" points="790.7822,-401.9224 800.8803,-398.7164 790.9869,-394.9254 790.7822,-401.9224"/>
</g>
<!-- github.com/dreadl0ck/netcap/dbs.moveToDbs -->
<g id="node5" class="node">
<title>github.com/dreadl0ck/netcap/dbs.moveToDbs</title>
<ellipse fill="#add8e6" stroke="#000000" stroke-width=".5" cx="593.4452" cy="-622.8" rx="43.7982" ry="18"/>
<text text-anchor="middle" x="593.4452" y="-618.6" font-family="Verdana" font-size="14.00" fill="#000000">moveToDbs</text>
</g>
<!-- github.com/dreadl0ck/netcap/dbs.processSource&#45;&gt;github.com/dreadl0ck/netcap/dbs.moveToDbs -->
<g id="edge8" class="edge">
<title>github.com/dreadl0ck/netcap/dbs.processSource&#45;&gt;github.com/dreadl0ck/netcap/dbs.moveToDbs</title>
<path fill="none" stroke="#000000" stroke-dasharray="5,2" d="M378.002,-457.6251C395.8947,-489.5838 437.7681,-556.6606 491.7636,-592.8 506.8512,-602.8982 525.4083,-609.6685 542.5211,-614.1761"/>
<polygon fill="#000000" stroke="#000000" points="541.849,-617.6146 552.3929,-616.5768 543.5031,-610.8128 541.849,-617.6146"/>
</g>
<!-- github.com/dreadl0ck/netcap/dbs.unzipAndMoveToDbs -->
<g id="node6" class="node">
<title>github.com/dreadl0ck/netcap/dbs.unzipAndMoveToDbs</title>
<ellipse fill="#add8e6" stroke="#000000" stroke-width=".5" cx="593.4452" cy="-252.8" rx="75.9817" ry="18"/>
<text text-anchor="middle" x="593.4452" y="-248.6" font-family="Verdana" font-size="14.00" fill="#000000">unzipAndMoveToDbs</text>
</g>
<!-- github.com/dreadl0ck/netcap/dbs.processSource&#45;&gt;github.com/dreadl0ck/netcap/dbs.unzipAndMoveToDbs -->
<g id="edge10" class="edge">
<title>github.com/dreadl0ck/netcap/dbs.processSource&#45;&gt;github.com/dreadl0ck/netcap/dbs.unzipAndMoveToDbs</title>
<path fill="none" stroke="#000000" stroke-dasharray="5,2" d="M382.2756,-422.2083C403.6601,-395.6074 447.1041,-344.5696 491.7636,-309.8 509.6035,-295.9108 531.2375,-283.2887 549.9567,-273.4729"/>
<polygon fill="#000000" stroke="#000000" points="551.5876,-276.5699 558.8825,-268.8864 548.3884,-270.3437 551.5876,-276.5699"/>
</g>
<!-- github.com/dreadl0ck/netcap/dbs.untarAndMoveToDbs -->
<g id="node7" class="node">
<title>github.com/dreadl0ck/netcap/dbs.untarAndMoveToDbs</title>
<ellipse fill="#add8e6" stroke="#000000" stroke-width=".5" cx="593.4452" cy="-339.8" rx="74.336" ry="18"/>
<text text-anchor="middle" x="593.4452" y="-335.6" font-family="Verdana" font-size="14.00" fill="#000000">untarAndMoveToDbs</text>
</g>
<!-- github.com/dreadl0ck/netcap/dbs.processSource&#45;&gt;github.com/dreadl0ck/netcap/dbs.untarAndMoveToDbs -->
<g id="edge14" class="edge">
<title>github.com/dreadl0ck/netcap/dbs.processSource&#45;&gt;github.com/dreadl0ck/netcap/dbs.untarAndMoveToDbs</title>
<path fill="none" stroke="#000000" stroke-dasharray="5,2" d="M390.262,-423.3309C407.1456,-411.1313 431.5247,-394.7858 454.7636,-383.8 479.0494,-372.3193 507.0905,-362.7839 531.5756,-355.5589"/>
<polygon fill="#000000" stroke="#000000" points="532.8354,-358.8384 541.4745,-352.7051 530.8963,-352.1123 532.8354,-358.8384"/>
</g>
<!-- github.com/dreadl0ck/netcap/dbs.downloadAndIndexNVD -->
<g id="node11" class="node">
<title>github.com/dreadl0ck/netcap/dbs.downloadAndIndexNVD</title>
<ellipse fill="#add8e6" stroke="#000000" stroke-width=".5" cx="593.4452" cy="-439.8" rx="84.55" ry="18"/>
<text text-anchor="middle" x="593.4452" y="-435.6" font-family="Verdana" font-size="14.00" fill="#000000">downloadAndIndexNVD</text>
</g>
<!-- github.com/dreadl0ck/netcap/dbs.processSource&#45;&gt;github.com/dreadl0ck/netcap/dbs.downloadAndIndexNVD -->
<g id="edge32" class="edge">
<title>github.com/dreadl0ck/netcap/dbs.processSource&#45;&gt;github.com/dreadl0ck/netcap/dbs.downloadAndIndexNVD</title>
<path fill="none" stroke="#000000" stroke-dasharray="5,2" d="M419.0076,-439.8C442.5388,-439.8 471.3355,-439.8 498.6975,-439.8"/>
<polygon fill="#000000" stroke="#000000" points="498.701,-443.3001 508.7009,-439.8 498.7009,-436.3001 498.701,-443.3001"/>
</g>
<!-- github.com/dreadl0ck/netcap/dbs.downloadAndIndexExploitDB -->
<g id="node20" class="node">
<title>github.com/dreadl0ck/netcap/dbs.downloadAndIndexExploitDB</title>
<ellipse fill="#add8e6" stroke="#000000" stroke-width=".5" cx="593.4452" cy="-561.8" rx="101.8635" ry="18"/>
<text text-anchor="middle" x="593.4452" y="-557.6" font-family="Verdana" font-size="14.00" fill="#000000">downloadAndIndexExploitDB</text>
</g>
<!-- github.com/dreadl0ck/netcap/dbs.processSource&#45;&gt;github.com/dreadl0ck/netcap/dbs.downloadAndIndexExploitDB -->
<g id="edge34" class="edge">
<title>github.com/dreadl0ck/netcap/dbs.processSource&#45;&gt;github.com/dreadl0ck/netcap/dbs.downloadAndIndexExploitDB</title>
<path fill="none" stroke="#000000" stroke-dasharray="5,2" d="M386.7654,-456.7334C409.6694,-477.1805 450.9378,-511.364 491.7636,-531.8 501.3404,-536.5938 511.8169,-540.7583 522.2892,-544.3319"/>
<polygon fill="#000000" stroke="#000000" points="521.2875,-547.6865 531.8797,-547.4487 523.4511,-541.0292 521.2875,-547.6865"/>
</g>
<!-- github.com/dreadl0ck/netcap/dbs.unzipAndMoveToDbs&#45;&gt;github.com/evilsocket/islazy/zip.Unzip -->
<g id="edge9" class="edge">
<title>github.com/dreadl0ck/netcap/dbs.unzipAndMoveToDbs&#45;&gt;github.com/evilsocket/islazy/zip.Unzip</title>
<path fill="none" stroke="#8b4513" d="M650.8043,-240.9717C700.9644,-230.628 772.2425,-215.9294 814.6746,-207.1793"/>
<polygon fill="#8b4513" stroke="#8b4513" points="815.4672,-210.5896 824.5542,-205.142 814.0534,-203.7339 815.4672,-210.5896"/>
</g>
<!-- github.com/dreadl0ck/netcap/dbs.untarAndMoveToDbs$1 -->
<g id="node8" class="node">
<title>github.com/dreadl0ck/netcap/dbs.untarAndMoveToDbs$1</title>
<ellipse fill="#add8e6" stroke="#000000" stroke-dasharray="1,5" cx="850.4594" cy="-278.8" rx="82.1656" ry="18"/>
<text text-anchor="middle" x="850.4594" y="-274.6" font-family="Verdana" font-size="14.00" fill="#000000">untarAndMoveToDbs$1</text>
</g>
<!-- github.com/dreadl0ck/netcap/dbs.untarAndMoveToDbs&#45;&gt;github.com/dreadl0ck/netcap/dbs.untarAndMoveToDbs$1 -->
<g id="edge11" class="edge">
<title>github.com/dreadl0ck/netcap/dbs.untarAndMoveToDbs&#45;&gt;github.com/dreadl0ck/netcap/dbs.untarAndMoveToDbs$1</title>
<path fill="none" stroke="#000000" d="M646.6987,-327.1608C681.7369,-318.8448 728.2992,-307.7936 768.0682,-298.3548"/>
<polygon fill="#000000" stroke="#000000" points="785.6856,-297.7708 794.607,-292.0561 784.069,-290.96 785.6856,-297.7708"/>
<polyline fill="none" stroke="#000000" points="784.8773,-294.3654 780.0124,-295.52 "/>
<polygon fill="none" stroke="#000000" points="768.3368,-298.2911 773.2509,-293.0137 780.0124,-295.52 775.0983,-300.7975 768.3368,-298.2911"/>
</g>
<!-- github.com/dreadl0ck/netcap/dbs.unpackTarball -->
<g id="node9" class="node">
<title>github.com/dreadl0ck/netcap/dbs.unpackTarball</title>
<ellipse fill="#add8e6" stroke="#000000" stroke-width=".5" cx="850.4594" cy="-339.8" rx="50.464" ry="18"/>
<text text-anchor="middle" x="850.4594" y="-335.6" font-family="Verdana" font-size="14.00" fill="#000000">unpackTarball</text>
</g>
<!-- github.com/dreadl0ck/netcap/dbs.untarAndMoveToDbs&#45;&gt;github.com/dreadl0ck/netcap/dbs.unpackTarball -->
<g id="edge13" class="edge">
<title>github.com/dreadl0ck/netcap/dbs.untarAndMoveToDbs&#45;&gt;github.com/dreadl0ck/netcap/dbs.unpackTarball</title>
<path fill="none" stroke="#000000" d="M668.1296,-339.8C706.7097,-339.8 753.1892,-339.8 789.5639,-339.8"/>
<polygon fill="#000000" stroke="#000000" points="790.0231,-343.3001 800.023,-339.8 790.023,-336.3001 790.0231,-343.3001"/>
</g>
<!-- github.com/dreadl0ck/netcap/dbs.isValidRelativePath -->
<g id="node10" class="node">
<title>github.com/dreadl0ck/netcap/dbs.isValidRelativePath</title>
<ellipse fill="#add8e6" stroke="#000000" stroke-width=".5" cx="1095.5874" cy="-267.8" rx="67.6552" ry="18"/>
<text text-anchor="middle" x="1095.5874" y="-263.6" font-family="Verdana" font-size="14.00" fill="#000000">isValidRelativePath</text>
</g>
<!-- github.com/dreadl0ck/netcap/dbs.unpackTarball&#45;&gt;github.com/dreadl0ck/netcap/dbs.isValidRelativePath -->
<g id="edge12" class="edge">
<title>github.com/dreadl0ck/netcap/dbs.unpackTarball&#45;&gt;github.com/dreadl0ck/netcap/dbs.isValidRelativePath</title>
<path fill="none" stroke="#000000" d="M889.5717,-328.3118C930.2466,-316.3646 994.2738,-297.5583 1040.1529,-284.0824"/>
<polygon fill="#000000" stroke="#000000" points="1041.3343,-287.3834 1049.9426,-281.207 1039.3615,-280.6671 1041.3343,-287.3834"/>
</g>
<!-- github.com/dreadl0ck/netcap/dbs.downloadAndIndexNVD&#45;&gt;github.com/dreadl0ck/netcap/dbs.fetchResource -->
<g id="edge17" class="edge">
<title>github.com/dreadl0ck/netcap/dbs.downloadAndIndexNVD&#45;&gt;github.com/dreadl0ck/netcap/dbs.fetchResource</title>
<path fill="none" stroke="#000000" d="M662.3203,-429.3487C703.6784,-423.0729 755.6248,-415.1905 794.4496,-409.2991"/>
<polygon fill="#000000" stroke="#000000" points="795.1649,-412.7307 804.5266,-407.77 794.1147,-405.8099 795.1649,-412.7307"/>
</g>
<!-- github.com/dreadl0ck/netcap/dbs.yearRange -->
<g id="node12" class="node">
<title>github.com/dreadl0ck/netcap/dbs.yearRange</title>
<ellipse fill="#add8e6" stroke="#000000" stroke-width=".5" cx="1095.5874" cy="-328.8" rx="38.2226" ry="18"/>
<text text-anchor="middle" x="1095.5874" y="-324.6" font-family="Verdana" font-size="14.00" fill="#000000">yearRange</text>
</g>
<!-- github.com/dreadl0ck/netcap/dbs.downloadAndIndexNVD&#45;&gt;github.com/dreadl0ck/netcap/dbs.yearRange -->
<g id="edge15" class="edge">
<title>github.com/dreadl0ck/netcap/dbs.downloadAndIndexNVD&#45;&gt;github.com/dreadl0ck/netcap/dbs.yearRange</title>
<path fill="none" stroke="#000000" d="M657.0236,-451.7819C727.4789,-462.0625 843,-469.8732 932.792,-431.8 974.7465,-414.0107 967.073,-383.8307 1005.792,-359.8 1019.7009,-351.1676 1036.3231,-344.5689 1051.4637,-339.7246"/>
<polygon fill="#000000" stroke="#000000" points="1052.5988,-343.038 1061.1559,-336.7909 1050.5708,-336.3382 1052.5988,-343.038"/>
</g>
<!-- github.com/dreadl0ck/netcap/dbs.makeSource -->
<g id="node13" class="node">
<title>github.com/dreadl0ck/netcap/dbs.makeSource</title>
<ellipse fill="#add8e6" stroke="#000000" stroke-width=".5" cx="850.4594" cy="-497.8" rx="43.7792" ry="18"/>
<text text-anchor="middle" x="850.4594" y="-493.6" font-family="Verdana" font-size="14.00" fill="#000000">makeSource</text>
</g>
<!-- github.com/dreadl0ck/netcap/dbs.downloadAndIndexNVD&#45;&gt;github.com/dreadl0ck/netcap/dbs.makeSource -->
<g id="edge16" class="edge">
<title>github.com/dreadl0ck/netcap/dbs.downloadAndIndexNVD&#45;&gt;github.com/dreadl0ck/netcap/dbs.makeSource</title>
<path fill="none" stroke="#000000" d="M651.7657,-452.9611C697.1502,-463.2029 759.3824,-477.2468 802.0386,-486.8729"/>
<polygon fill="#000000" stroke="#000000" points="801.3762,-490.3114 811.9014,-489.0987 802.9172,-483.4831 801.3762,-490.3114"/>
</g>
<!-- github.com/dreadl0ck/netcap/dbs.IndexData -->
<g id="node14" class="node">
<title>github.com/dreadl0ck/netcap/dbs.IndexData</title>
<ellipse fill="#add8e6" stroke="#000000" stroke-width="1.5" cx="850.4594" cy="-569.8" rx="37.4651" ry="18"/>
<text text-anchor="middle" x="850.4594" y="-565.6" font-family="Verdana" font-size="14.00" fill="#000000">IndexData</text>
</g>
<!-- github.com/dreadl0ck/netcap/dbs.downloadAndIndexNVD&#45;&gt;github.com/dreadl0ck/netcap/dbs.IndexData -->
<g id="edge31" class="edge">
<title>github.com/dreadl0ck/netcap/dbs.downloadAndIndexNVD&#45;&gt;github.com/dreadl0ck/netcap/dbs.IndexData</title>
<path fill="none" stroke="#000000" d="M650.617,-453.1334C665.5506,-457.7062 681.3208,-463.5482 695.1268,-470.8 731.8122,-490.0696 733.1665,-506.5534 768.1268,-528.8 782.3828,-537.8716 798.9209,-546.4491 813.4187,-553.3909"/>
<polygon fill="#000000" stroke="#000000" points="812.0673,-556.6229 822.6067,-557.7052 815.0425,-550.2866 812.0673,-556.6229"/>
</g>
<!-- github.com/dreadl0ck/netcap/dbs.IndexData&#45;&gt;github.com/dreadl0ck/netcap/dbs.yearRange -->
<g id="edge27" class="edge">
<title>github.com/dreadl0ck/netcap/dbs.IndexData&#45;&gt;github.com/dreadl0ck/netcap/dbs.yearRange</title>
<path fill="none" stroke="#000000" d="M881.0974,-559.3163C897.7587,-552.5126 917.9358,-542.3684 932.792,-528.8 955.9252,-507.6722 956.5671,-497.2012 969.792,-468.8 991.3282,-422.5501 969.9596,-396.1167 1005.792,-359.8 1017.1943,-348.2436 1033.1046,-340.991 1048.3702,-336.4411"/>
<polygon fill="#000000" stroke="#000000" points="1049.4841,-339.7668 1058.2549,-333.8234 1047.6921,-333.0001 1049.4841,-339.7668"/>
</g>
<!-- github.com/dreadl0ck/netcap/dbs.makeBleveIndex -->
<g id="node15" class="node">
<title>github.com/dreadl0ck/netcap/dbs.makeBleveIndex</title>
<ellipse fill="#add8e6" stroke="#000000" stroke-width=".5" cx="1095.5874" cy="-389.8" rx="58.2911" ry="18"/>
<text text-anchor="middle" x="1095.5874" y="-385.6" font-family="Verdana" font-size="14.00" fill="#000000">makeBleveIndex</text>
</g>
<!-- github.com/dreadl0ck/netcap/dbs.IndexData&#45;&gt;github.com/dreadl0ck/netcap/dbs.makeBleveIndex -->
<g id="edge21" class="edge">
<title>github.com/dreadl0ck/netcap/dbs.IndexData&#45;&gt;github.com/dreadl0ck/netcap/dbs.makeBleveIndex</title>
<path fill="none" stroke="#000000" d="M878.9322,-557.8945C895.2842,-550.5093 915.8673,-540.2593 932.792,-528.8 951.0379,-516.4461 956.5448,-513.408 969.792,-495.8 992.021,-466.2537 978.1866,-445.3978 1005.792,-420.8 1014.4585,-413.0778 1025.147,-407.2585 1036.0907,-402.8795"/>
<polygon fill="#000000" stroke="#000000" points="1037.5175,-406.0853 1045.7291,-399.3905 1035.1348,-399.5033 1037.5175,-406.0853"/>
</g>
<!-- github.com/dreadl0ck/netcap/dbs.IndexData$1 -->
<g id="node16" class="node">
<title>github.com/dreadl0ck/netcap/dbs.IndexData$1</title>
<ellipse fill="#add8e6" stroke="#000000" stroke-dasharray="1,5" cx="1095.5874" cy="-450.8" rx="45.2946" ry="18"/>
<text text-anchor="middle" x="1095.5874" y="-446.6" font-family="Verdana" font-size="14.00" fill="#000000">IndexData$1</text>
</g>
<!-- github.com/dreadl0ck/netcap/dbs.IndexData&#45;&gt;github.com/dreadl0ck/netcap/dbs.IndexData$1 -->
<g id="edge22" class="edge">
<title>github.com/dreadl0ck/netcap/dbs.IndexData&#45;&gt;github.com/dreadl0ck/netcap/dbs.IndexData$1</title>
<path fill="none" stroke="#000000" d="M883.6727,-561.3493C908.8429,-553.893 943.4701,-541.3037 969.792,-522.8 989.6304,-508.8541 985.6599,-495.3184 1005.792,-481.8 1013.3226,-476.7433 1021.7621,-472.4286 1030.3725,-468.7703"/>
<polygon fill="#000000" stroke="#000000" points="1047.725,-466.3237 1055.9777,-459.6797 1045.383,-459.7271 1047.725,-466.3237"/>
<polyline fill="none" stroke="#000000" points="1046.554,-463.0254 1041.8421,-464.6983 "/>
<polygon fill="none" stroke="#000000" points="1030.5337,-468.7132 1034.8496,-462.9362 1041.8421,-464.6983 1037.5262,-470.4752 1030.5337,-468.7132"/>
</g>
<!-- github.com/dreadl0ck/netcap/dbs.IndexData$2 -->
<g id="node17" class="node">
<title>github.com/dreadl0ck/netcap/dbs.IndexData$2</title>
<ellipse fill="#add8e6" stroke="#000000" stroke-dasharray="1,5" cx="1095.5874" cy="-511.8" rx="45.2946" ry="18"/>
<text text-anchor="middle" x="1095.5874" y="-507.6" font-family="Verdana" font-size="14.00" fill="#000000">IndexData$2</text>
</g>
<!-- github.com/dreadl0ck/netcap/dbs.IndexData&#45;&gt;github.com/dreadl0ck/netcap/dbs.IndexData$2 -->
<g id="edge24" class="edge">
<title>github.com/dreadl0ck/netcap/dbs.IndexData&#45;&gt;github.com/dreadl0ck/netcap/dbs.IndexData$2</title>
<path fill="none" stroke="#000000" d="M886.729,-564.9471C910.503,-561.4658 942.1783,-556.2571 969.792,-549.8 991.2502,-544.7823 1014.4247,-538.1411 1034.9653,-531.8159"/>
<polygon fill="#000000" stroke="#000000" points="1052.4626,-529.9314 1060.9341,-523.5687 1050.3438,-523.2597 1052.4626,-529.9314"/>
<polyline fill="none" stroke="#000000" points="1051.4032,-526.5956 1046.6377,-528.109 "/>
<polygon fill="none" stroke="#000000" points="1035.2006,-531.7412 1039.7084,-526.1128 1046.6377,-528.109 1042.1299,-533.7375 1035.2006,-531.7412"/>
</g>
<!-- github.com/dreadl0ck/netcap/dbs.IndexData$3 -->
<g id="node18" class="node">
<title>github.com/dreadl0ck/netcap/dbs.IndexData$3</title>
<ellipse fill="#add8e6" stroke="#000000" stroke-dasharray="1,5" cx="1095.5874" cy="-572.8" rx="45.2946" ry="18"/>
<text text-anchor="middle" x="1095.5874" y="-568.6" font-family="Verdana" font-size="14.00" fill="#000000">IndexData$3</text>
</g>
<!-- github.com/dreadl0ck/netcap/dbs.IndexData&#45;&gt;github.com/dreadl0ck/netcap/dbs.IndexData$3 -->
<g id="edge26" class="edge">
<title>github.com/dreadl0ck/netcap/dbs.IndexData&#45;&gt;github.com/dreadl0ck/netcap/dbs.IndexData$3</title>
<path fill="none" stroke="#000000" d="M887.7411,-572.5712C911.0261,-574.1616 941.6386,-575.9976 968.792,-576.8 986.5278,-577.3241 1005.6583,-577.1222 1023.549,-576.5993"/>
<polygon fill="#000000" stroke="#000000" points="1040.8401,-579.4344 1050.6976,-575.5511 1040.57,-572.4396 1040.8401,-579.4344"/>
<polyline fill="none" stroke="#000000" points="1040.7051,-575.937 1035.7088,-576.1299 "/>
<polygon fill="none" stroke="#000000" points="1023.7177,-576.5929 1029.5589,-572.3644 1035.7088,-576.1299 1029.8676,-580.3584 1023.7177,-576.5929"/>
</g>
<!-- github.com/dreadl0ck/netcap/dbs.intermediatePatchVersions -->
<g id="node19" class="node">
<title>github.com/dreadl0ck/netcap/dbs.intermediatePatchVersions</title>
<ellipse fill="#add8e6" stroke="#000000" stroke-width=".5" cx="1095.5874" cy="-633.8" rx="89.5912" ry="18"/>
<text text-anchor="middle" x="1095.5874" y="-629.6" font-family="Verdana" font-size="14.00" fill="#000000">intermediatePatchVersions</text>
</g>
<!-- github.com/dreadl0ck/netcap/dbs.IndexData&#45;&gt;github.com/dreadl0ck/netcap/dbs.intermediatePatchVersions -->
<g id="edge28" class="edge">
<title>github.com/dreadl0ck/netcap/dbs.IndexData&#45;&gt;github.com/dreadl0ck/netcap/dbs.intermediatePatchVersions</title>
<path fill="none" stroke="#000000" d="M883.5185,-578.4313C921.0958,-588.2423 983.3541,-604.4972 1030.7187,-616.8635"/>
<polygon fill="#000000" stroke="#000000" points="1030.0256,-620.2999 1040.5854,-619.4396 1031.794,-613.5269 1030.0256,-620.2999"/>
</g>
<!-- github.com/blevesearch/bleve.Open -->
<g id="node25" class="node">
<title>github.com/blevesearch/bleve.Open</title>
<ellipse fill="#ffe4b5" stroke="#000000" stroke-width="1.5" cx="1324.6707" cy="-633.8" rx="27" ry="18"/>
<text text-anchor="middle" x="1324.6707" y="-629.6" font-family="Verdana" font-size="14.00" fill="#000000">Open</text>
</g>
<!-- github.com/dreadl0ck/netcap/dbs.IndexData&#45;&gt;github.com/blevesearch/bleve.Open -->
<g id="edge18" class="edge">
<title>github.com/dreadl0ck/netcap/dbs.IndexData&#45;&gt;github.com/blevesearch/bleve.Open</title>
<path fill="none" stroke="#8b4513" d="M868.9199,-585.8697C896.4779,-608.6773 951.0215,-649.3791 1005.792,-664.8 1106.7634,-693.2289 1232.022,-662.9483 1290.9873,-645.03"/>
<polygon fill="#8b4513" stroke="#8b4513" points="1292.0293,-648.3714 1300.5378,-642.0581 1289.9494,-641.6875 1292.0293,-648.3714"/>
</g>
<!-- (*github.com/blevesearch/bleve.indexImpl).Index -->
<g id="node29" class="node">
<title>(*github.com/blevesearch/bleve.indexImpl).Index</title>
<ellipse fill="#ffe4b5" stroke="#000000" stroke-width="1.5" cx="1324.6707" cy="-694.8" rx="66.064" ry="18"/>
<text text-anchor="middle" x="1324.6707" y="-690.6" font-family="Verdana" font-size="14.00" fill="#000000">(*indexImpl).Index</text>
</g>
<!-- github.com/dreadl0ck/netcap/dbs.IndexData&#45;&gt;(*github.com/blevesearch/bleve.indexImpl).Index -->
<g id="edge30" class="edge">
<title>github.com/dreadl0ck/netcap/dbs.IndexData&#45;&gt;(*github.com/blevesearch/bleve.indexImpl).Index</title>
<path fill="none" stroke="#8b4513" stroke-dasharray="5,2" d="M866.1862,-586.2592C892.2454,-612.1073 947.3322,-660.9103 1005.792,-676.8 1087.0569,-698.8882 1184.1314,-701.1035 1249.6552,-699.2514"/>
<polygon fill="#8b4513" stroke="#8b4513" points="1250.0111,-702.7419 1259.8932,-698.9217 1249.7857,-695.7455 1250.0111,-702.7419"/>
</g>
<!-- github.com/dreadl0ck/netcap/utils.ClearLine -->
<g id="node34" class="node">
<title>github.com/dreadl0ck/netcap/utils.ClearLine</title>
<ellipse fill="#ffe4b5" stroke="#000000" stroke-width="1.5" cx="1095.5874" cy="-188.8" rx="36.335" ry="18"/>
<text text-anchor="middle" x="1095.5874" y="-184.6" font-family="Verdana" font-size="14.00" fill="#000000">ClearLine</text>
</g>
<!-- github.com/dreadl0ck/netcap/dbs.IndexData&#45;&gt;github.com/dreadl0ck/netcap/utils.ClearLine -->
<g id="edge23" class="edge">
<title>github.com/dreadl0ck/netcap/dbs.IndexData&#45;&gt;github.com/dreadl0ck/netcap/utils.ClearLine</title>
<path fill="none" stroke="#8b4513" d="M883.37,-560.8969C900.5217,-554.6224 920.4408,-544.4797 932.792,-528.8 1022.5232,-414.8875 904.007,-314.0839 1005.792,-210.8 1017.1594,-199.2652 1033.5153,-193.4054 1049.1614,-190.539"/>
<polygon fill="#8b4513" stroke="#8b4513" points="1049.8934,-193.9693 1059.2812,-189.0581 1048.8798,-187.043 1049.8934,-193.9693"/>
</g>
<!-- github.com/dustin/go&#45;humanize.Bytes -->
<g id="node35" class="node">
<title>github.com/dustin/go&#45;humanize.Bytes</title>
<ellipse fill="#ffe4b5" stroke="#000000" stroke-width="1.5" cx="1095.5874" cy="-748.8" rx="27" ry="18"/>
<text text-anchor="middle" x="1095.5874" y="-744.6" font-family="Verdana" font-size="14.00" fill="#000000">Bytes</text>
</g>
<!-- github.com/dreadl0ck/netcap/dbs.IndexData&#45;&gt;github.com/dustin/go&#45;humanize.Bytes -->
<g id="edge29" class="edge">
<title>github.com/dreadl0ck/netcap/dbs.IndexData&#45;&gt;github.com/dustin/go&#45;humanize.Bytes</title>
<path fill="none" stroke="#8b4513" d="M861.0518,-587.4752C879.5244,-616.9569 920.3242,-676.4162 968.792,-711.8 995.1979,-731.0776 1031.5196,-740.3589 1058.522,-744.7992"/>
<polygon fill="#8b4513" stroke="#8b4513" points="1058.3304,-748.3092 1068.7375,-746.3235 1059.3636,-741.3859 1058.3304,-748.3092"/>
</g>
<!-- github.com/blevesearch/bleve.NewIndexMapping -->
<g id="node26" class="node">
<title>github.com/blevesearch/bleve.NewIndexMapping</title>
<ellipse fill="#ffe4b5" stroke="#000000" stroke-width="1.5" cx="1324.6707" cy="-511.8" rx="66.1217" ry="18"/>
<text text-anchor="middle" x="1324.6707" y="-507.6" font-family="Verdana" font-size="14.00" fill="#000000">NewIndexMapping</text>
</g>
<!-- github.com/dreadl0ck/netcap/dbs.makeBleveIndex&#45;&gt;github.com/blevesearch/bleve.NewIndexMapping -->
<g id="edge19" class="edge">
<title>github.com/dreadl0ck/netcap/dbs.makeBleveIndex&#45;&gt;github.com/blevesearch/bleve.NewIndexMapping</title>
<path fill="none" stroke="#8b4513" d="M1140.6264,-401.2541C1155.4776,-406.0807 1171.6866,-412.5334 1185.3827,-420.8 1219.3013,-441.2722 1217.0013,-460.4631 1250.3827,-481.8 1257.4585,-486.3227 1265.3286,-490.3807 1273.225,-493.9418"/>
<polygon fill="#8b4513" stroke="#8b4513" points="1271.8899,-497.1774 1282.4606,-497.8918 1274.6426,-490.7413 1271.8899,-497.1774"/>
</g>
<!-- github.com/blevesearch/bleve.New -->
<g id="node27" class="node">
<title>github.com/blevesearch/bleve.New</title>
<ellipse fill="#ffe4b5" stroke="#000000" stroke-width="1.5" cx="1324.6707" cy="-450.8" rx="27" ry="18"/>
<text text-anchor="middle" x="1324.6707" y="-446.6" font-family="Verdana" font-size="14.00" fill="#000000">New</text>
</g>
<!-- github.com/dreadl0ck/netcap/dbs.makeBleveIndex&#45;&gt;github.com/blevesearch/bleve.New -->
<g id="edge20" class="edge">
<title>github.com/dreadl0ck/netcap/dbs.makeBleveIndex&#45;&gt;github.com/blevesearch/bleve.New</title>
<path fill="none" stroke="#8b4513" d="M1139.757,-401.5614C1183.4131,-413.1861 1249.337,-430.7402 1289.5465,-441.4472"/>
<polygon fill="#8b4513" stroke="#8b4513" points="1288.8669,-444.8881 1299.4308,-444.0792 1290.6682,-438.1238 1288.8669,-444.8881"/>
</g>
<!-- (*github.com/blevesearch/bleve.indexImpl).Close -->
<g id="node28" class="node">
<title>(*github.com/blevesearch/bleve.indexImpl).Close</title>
<ellipse fill="#ffe4b5" stroke="#000000" stroke-width="1.5" cx="1324.6707" cy="-572.8" rx="66.0766" ry="18"/>
<text text-anchor="middle" x="1324.6707" y="-568.6" font-family="Verdana" font-size="14.00" fill="#000000">(*indexImpl).Close</text>
</g>
<!-- github.com/dreadl0ck/netcap/dbs.IndexData$3&#45;&gt;(*github.com/blevesearch/bleve.indexImpl).Close -->
<g id="edge25" class="edge">
<title>github.com/dreadl0ck/netcap/dbs.IndexData$3&#45;&gt;(*github.com/blevesearch/bleve.indexImpl).Close</title>
<path fill="none" stroke="#8b4513" stroke-dasharray="5,2" d="M1141.1208,-572.8C1171.5235,-572.8 1212.2674,-572.8 1247.6442,-572.8"/>
<polygon fill="#8b4513" stroke="#8b4513" points="1247.9486,-576.3001 1257.9486,-572.8 1247.9486,-569.3001 1247.9486,-576.3001"/>
</g>
<!-- github.com/dreadl0ck/netcap/dbs.downloadAndIndexExploitDB&#45;&gt;github.com/dreadl0ck/netcap/dbs.IndexData -->
<g id="edge33" class="edge">
<title>github.com/dreadl0ck/netcap/dbs.downloadAndIndexExploitDB&#45;&gt;github.com/dreadl0ck/netcap/dbs.IndexData</title>
<path fill="none" stroke="#000000" d="M693.9178,-564.9274C731.3226,-566.0917 772.0585,-567.3596 802.597,-568.3102"/>
<polygon fill="#000000" stroke="#000000" points="802.8473,-571.8196 812.9514,-568.6325 803.0652,-564.823 802.8473,-571.8196"/>
</g>
<!-- github.com/dreadl0ck/netcap/dbs.GenerateDBs -->
<g id="node21" class="node">
<title>github.com/dreadl0ck/netcap/dbs.GenerateDBs</title>
<ellipse fill="#add8e6" stroke="#000000" stroke-width="1.5" cx="198.1511" cy="-740.8" rx="47.3027" ry="18"/>
<text text-anchor="middle" x="198.1511" y="-736.6" font-family="Verdana" font-size="14.00" fill="#000000">GenerateDBs</text>
</g>
<!-- github.com/dreadl0ck/netcap/dbs.GenerateDBs&#45;&gt;github.com/dreadl0ck/netcap/dbs.processSource -->
<g id="edge35" class="edge">
<title>github.com/dreadl0ck/netcap/dbs.GenerateDBs&#45;&gt;github.com/dreadl0ck/netcap/dbs.processSource</title>
<path fill="none" stroke="#000000" d="M208.299,-722.8725C235.4069,-674.9831 309.9631,-543.2706 347.0299,-477.7877"/>
<polygon fill="#000000" stroke="#000000" points="356.5579,-468.0602 358.4382,-457.6336 350.4662,-464.6119 356.5579,-468.0602"/>
<polyline fill="none" stroke="#000000" points="353.5121,-466.3361 351.049,-470.6873 "/>
<ellipse fill="none" stroke="#000000" cx="349.0786" cy="-474.1684" rx="4" ry="4"/>
</g>
<!-- github.com/dreadl0ck/netcap/dbs.saveTotalDatabaseSize -->
<g id="node22" class="node">
<title>github.com/dreadl0ck/netcap/dbs.saveTotalDatabaseSize</title>
<ellipse fill="#add8e6" stroke="#000000" stroke-width=".5" cx="850.4594" cy="-802.8" rx="77.8341" ry="18"/>
<text text-anchor="middle" x="850.4594" y="-798.6" font-family="Verdana" font-size="14.00" fill="#000000">saveTotalDatabaseSize</text>
</g>
<!-- github.com/dreadl0ck/netcap/dbs.GenerateDBs&#45;&gt;github.com/dreadl0ck/netcap/dbs.saveTotalDatabaseSize -->
<g id="edge38" class="edge">
<title>github.com/dreadl0ck/netcap/dbs.GenerateDBs&#45;&gt;github.com/dreadl0ck/netcap/dbs.saveTotalDatabaseSize</title>
<path fill="none" stroke="#000000" d="M226.2597,-755.2825C259.3757,-770.9748 316.4894,-793.8 368.5329,-793.8 368.5329,-793.8 368.5329,-793.8 593.4452,-793.8 650.3571,-793.8 714.3143,-796.0313 764.1908,-798.272"/>
<polygon fill="#000000" stroke="#000000" points="764.1423,-801.7733 774.2919,-798.7345 764.4625,-794.7806 764.1423,-801.7733"/>
</g>
<!-- github.com/dreadl0ck/netcap/dbs.GenerateDBs&#45;&gt;github.com/dustin/go&#45;humanize.Bytes -->
<g id="edge39" class="edge">
<title>github.com/dreadl0ck/netcap/dbs.GenerateDBs&#45;&gt;github.com/dustin/go&#45;humanize.Bytes</title>
<path fill="none" stroke="#8b4513" d="M241.7898,-747.9658C276.1324,-752.9854 325.2542,-758.8 368.5329,-758.8 368.5329,-758.8 368.5329,-758.8 850.4594,-758.8 924.1109,-758.8 1010.1068,-754.2373 1058.1656,-751.2759"/>
<polygon fill="#8b4513" stroke="#8b4513" points="1058.6357,-754.7534 1068.3969,-750.6342 1058.1974,-747.7671 1058.6357,-754.7534"/>
</g>
<!-- github.com/dreadl0ck/netcap/dbs.calculateDirectorySize -->
<g id="node23" class="node">
<title>github.com/dreadl0ck/netcap/dbs.calculateDirectorySize</title>
<ellipse fill="#add8e6" stroke="#000000" stroke-width=".5" cx="1095.5874" cy="-827.8" rx="76.6891" ry="18"/>
<text text-anchor="middle" x="1095.5874" y="-823.6" font-family="Verdana" font-size="14.00" fill="#000000">calculateDirectorySize</text>
</g>
<!-- github.com/dreadl0ck/netcap/dbs.saveTotalDatabaseSize&#45;&gt;github.com/dreadl0ck/netcap/dbs.calculateDirectorySize -->
<g id="edge36" class="edge">
<title>github.com/dreadl0ck/netcap/dbs.saveTotalDatabaseSize&#45;&gt;github.com/dreadl0ck/netcap/dbs.calculateDirectorySize</title>
<path fill="none" stroke="#000000" d="M922.0195,-810.0982C951.2208,-813.0764 985.1234,-816.534 1015.1758,-819.599"/>
<polygon fill="#000000" stroke="#000000" points="1014.9041,-823.0894 1025.2076,-820.6221 1015.6143,-816.1255 1014.9041,-823.0894"/>
</g>
<!-- github.com/dreadl0ck/netcap/dbs.saveTotalDatabaseSize&#45;&gt;github.com/dustin/go&#45;humanize.Bytes -->
<g id="edge37" class="edge">
<title>github.com/dreadl0ck/netcap/dbs.saveTotalDatabaseSize&#45;&gt;github.com/dustin/go&#45;humanize.Bytes</title>
<path fill="none" stroke="#8b4513" d="M907.0045,-790.3435C954.0894,-779.971 1019.7027,-765.5169 1059.8234,-756.6786"/>
<polygon fill="#8b4513" stroke="#8b4513" points="1060.6794,-760.074 1069.6923,-754.5045 1059.1734,-753.2379 1060.6794,-760.074"/>
</g>
<!-- github.com/dreadl0ck/netcap/dbs.init -->
<g id="node24" class="node">
<title>github.com/dreadl0ck/netcap/dbs.init</title>
<ellipse fill="#add8e6" stroke="#000000" stroke-width=".5" cx="593.4452" cy="-500.8" rx="27" ry="18"/>
<text text-anchor="middle" x="593.4452" y="-496.6" font-family="Verdana" font-size="14.00" fill="#000000">init</text>
</g>
<!-- github.com/dreadl0ck/netcap/dbs.init&#45;&gt;github.com/dreadl0ck/netcap/dbs.makeSource -->
<g id="edge43" class="edge">
<title>github.com/dreadl0ck/netcap/dbs.init&#45;&gt;github.com/dreadl0ck/netcap/dbs.makeSource</title>
<path fill="none" stroke="#000000" d="M620.4645,-500.4846C662.1154,-499.9984 742.8182,-499.0564 796.6802,-498.4277"/>
<polygon fill="#000000" stroke="#000000" points="796.7838,-501.9269 806.7422,-498.3103 796.702,-494.9273 796.7838,-501.9269"/>
</g>
<!-- github.com/dreadl0ck/netcap/cmd/util.Run -->
<g id="node31" class="node">
<title>github.com/dreadl0ck/netcap/cmd/util.Run</title>
<ellipse fill="#ffe4b5" stroke="#000000" stroke-width="1.5" cx="51" cy="-546.8" rx="27" ry="18"/>
<text text-anchor="middle" x="51" y="-542.6" font-family="Verdana" font-size="14.00" fill="#000000">Run</text>
</g>
<!-- github.com/dreadl0ck/netcap/cmd/util.Run&#45;&gt;github.com/dreadl0ck/netcap/dbs.CloneDBs -->
<g id="edge6" class="edge">
<title>github.com/dreadl0ck/netcap/cmd/util.Run&#45;&gt;github.com/dreadl0ck/netcap/dbs.CloneDBs</title>
<path fill="none" stroke="#8b4513" d="M64.644,-531.1594C114.3783,-474.147 286.2053,-277.1752 347.0058,-207.4773"/>
<polygon fill="#8b4513" stroke="#8b4513" points="349.9182,-209.463 353.8545,-199.6264 344.6432,-204.8613 349.9182,-209.463"/>
</g>
<!-- github.com/dreadl0ck/netcap/cmd/util.Run&#45;&gt;github.com/dreadl0ck/netcap/dbs.UpdateDBs -->
<g id="edge41" class="edge">
<title>github.com/dreadl0ck/netcap/cmd/util.Run&#45;&gt;github.com/dreadl0ck/netcap/dbs.UpdateDBs</title>
<path fill="none" stroke="#8b4513" d="M53.2838,-528.8391C63.9468,-448.8313 111.984,-128.8 198.1511,-128.8 198.1511,-128.8 198.1511,-128.8 368.5329,-128.8 427.9427,-128.8 496.1798,-128.8 541.7663,-128.8"/>
<polygon fill="#8b4513" stroke="#8b4513" points="541.992,-132.3001 551.992,-128.8 541.9919,-125.3001 541.992,-132.3001"/>
</g>
<!-- github.com/dreadl0ck/netcap/cmd/util.Run&#45;&gt;github.com/dreadl0ck/netcap/dbs.IndexData -->
<g id="edge42" class="edge">
<title>github.com/dreadl0ck/netcap/cmd/util.Run&#45;&gt;github.com/dreadl0ck/netcap/dbs.IndexData</title>
<path fill="none" stroke="#8b4513" d="M60.9729,-563.7386C81.8724,-596.8166 133.7048,-666.8 198.1511,-666.8 198.1511,-666.8 198.1511,-666.8 593.4452,-666.8 639.0049,-666.8 651.759,-667.7611 695.1268,-653.8 741.609,-638.8363 790.3808,-609.976 820.5997,-590.3039"/>
<polygon fill="#8b4513" stroke="#8b4513" points="822.5679,-593.1985 828.9862,-584.769 818.7121,-587.3561 822.5679,-593.1985"/>
</g>
<!-- github.com/dreadl0ck/netcap/cmd/util.Run&#45;&gt;github.com/dreadl0ck/netcap/dbs.GenerateDBs -->
<g id="edge40" class="edge">
<title>github.com/dreadl0ck/netcap/cmd/util.Run&#45;&gt;github.com/dreadl0ck/netcap/dbs.GenerateDBs</title>
<path fill="none" stroke="#8b4513" d="M57.0003,-564.621C66.3252,-590.5502 86.1623,-639.3361 114,-673.8 128.2893,-691.4906 148.0252,-707.5112 164.7928,-719.4477"/>
<polygon fill="#8b4513" stroke="#8b4513" points="163.0329,-722.4863 173.2461,-725.3047 167.0196,-716.7325 163.0329,-722.4863"/>
</g>
</g>
</svg>
