<?xml version="1.0" encoding="UTF-8" standalone="no"?>
<!DOCTYPE svg PUBLIC "-//W3C//DTD SVG 1.1//EN"
 "http://www.w3.org/Graphics/SVG/1.1/DTD/svg11.dtd">
<!-- Generated by graphviz version 2.40.1 (20161225.0304)
 -->
<!-- Title: gocallvis Pages: 1 -->
<svg width="673pt" height="811pt"
 viewBox="0.00 0.00 673.46 810.80" xmlns="http://www.w3.org/2000/svg" xmlns:xlink="http://www.w3.org/1999/xlink">
<g id="graph0" class="graph" transform="scale(1 1) rotate(0) translate(0 810.8)">
<title>gocallvis</title>
<polygon fill="#d3d3d3" stroke="transparent" points="0,0 0,-810.8 673.4612,-810.8 673.4612,0 0,0"/>
<text text-anchor="middle" x="112.6388" y="-8.2" font-family="Arial" font-size="14.00" fill="#000000">github.com/dreadl0ck/netcap/cmd</text>
<g id="clust1" class="cluster">
<title>cluster_focus</title>
<polygon fill="#e6ecfa" stroke="#000000" stroke-width=".5" points="8,-32.8 8,-802.8 665.4612,-802.8 665.4612,-32.8 8,-32.8"/>
<text text-anchor="middle" x="336.7306" y="-782.6" font-family="Arial" font-size="18.00" fill="#000000">dpi</text>
</g>
<g id="clust7" class="cluster">
<title>cluster_github.com/dreadl0ck/netcap/decoder/stream/tcp</title>
<g id="a_clust7"><a xlink:href="/?f=github.com/dreadl0ck/netcap/decoder/stream/tcp" xlink:title="package: github.com/dreadl0ck/netcap/decoder/stream/tcp">
<polygon fill="#ffffe0" stroke="#000000" stroke-width=".8" points="16,-549.8 16,-628.8 170.2888,-628.8 170.2888,-549.8 16,-549.8"/>
<text text-anchor="middle" x="93.1444" y="-610.4" font-family="Tahoma bold" font-size="16.00" fill="#000000">tcp</text>
</a>
</g>
</g>
<g id="clust6" class="cluster">
<title>cluster_github.com/dreadl0ck/netcap/decoder/packet</title>
<g id="a_clust6"><a xlink:href="/?f=github.com/dreadl0ck/netcap/decoder/packet" xlink:title="package: github.com/dreadl0ck/netcap/decoder/packet">
<polygon fill="#ffffe0" stroke="#000000" stroke-width=".8" points="42.378,-672.8 42.378,-751.8 143.9108,-751.8 143.9108,-672.8 42.378,-672.8"/>
<text text-anchor="middle" x="93.1444" y="-733.4" font-family="Tahoma bold" font-size="16.00" fill="#000000">packet</text>
</a>
</g>
</g>
<g id="clust5" class="cluster">
<title>cluster_github.com/dreadl0ck/netcap/collector</title>
<g id="a_clust5"><a xlink:href="/?f=github.com/dreadl0ck/netcap/collector" xlink:title="package: github.com/dreadl0ck/netcap/collector">
<polygon fill="#ffffe0" stroke="#000000" stroke-width=".8" points="28.9721,-249.8 28.9721,-328.8 157.3166,-328.8 157.3166,-249.8 28.9721,-249.8"/>
<text text-anchor="middle" x="93.1444" y="-310.4" font-family="Tahoma bold" font-size="16.00" fill="#000000">collector</text>
</a>
</g>
</g>
<g id="clust4" class="cluster">
<title>cluster_github.com/dreadl0ck/go&#45;dpi/modules/wrappers</title>
<g id="a_clust4"><a xlink:href="/?f=github.com/dreadl0ck/go-dpi/modules/wrappers" xlink:title="package: github.com/dreadl0ck/go&#45;dpi/modules/wrappers">
<polygon fill="#ffffe0" stroke="#000000" stroke-width=".8" points="391.9807,-127.8 391.9807,-389.8 657.4612,-389.8 657.4612,-127.8 391.9807,-127.8"/>
<text text-anchor="middle" x="524.7209" y="-371.4" font-family="Tahoma bold" font-size="16.00" fill="#000000">wrappers</text>
</a>
</g>
</g>
<g id="clust3" class="cluster">
<title>cluster_github.com/dreadl0ck/go&#45;dpi/modules/classifiers</title>
<g id="a_clust3"><a xlink:href="/?f=github.com/dreadl0ck/go-dpi/modules/classifiers" xlink:title="package: github.com/dreadl0ck/go&#45;dpi/modules/classifiers">
<polygon fill="#ffffe0" stroke="#000000" stroke-width=".8" points="442.3085,-40.8 442.3085,-119.8 607.1333,-119.8 607.1333,-40.8 442.3085,-40.8"/>
<text text-anchor="middle" x="524.7209" y="-101.4" font-family="Tahoma bold" font-size="16.00" fill="#000000">classifiers</text>
</a>
</g>
</g>
<g id="clust2" class="cluster">
<title>cluster_github.com/dreadl0ck/go&#45;dpi</title>
<g id="a_clust2"><a xlink:href="/?f=github.com/dreadl0ck/go-dpi" xlink:title="package: github.com/dreadl0ck/go&#45;dpi">
<polygon fill="#ffffe0" stroke="#000000" stroke-width=".8" points="432.1785,-397.8 432.1785,-720.8 617.2633,-720.8 617.2633,-397.8 432.1785,-397.8"/>
<text text-anchor="middle" x="524.7209" y="-702.4" font-family="Tahoma bold" font-size="16.00" fill="#000000">godpi</text>
</a>
</g>
</g>
<!-- github.com/dreadl0ck/netcap/dpi.IsEnabled -->
<g id="node1" class="node">
<title>github.com/dreadl0ck/netcap/dpi.IsEnabled</title>
<ellipse fill="#add8e6" stroke="#000000" stroke-width="1.5" cx="281.1347" cy="-606.8" rx="36.3382" ry="18"/>
<text text-anchor="middle" x="281.1347" y="-602.6" font-family="Verdana" font-size="14.00" fill="#000000">IsEnabled</text>
</g>
<!-- github.com/dreadl0ck/netcap/dpi.Destroy -->
<g id="node2" class="node">
<title>github.com/dreadl0ck/netcap/dpi.Destroy</title>
<ellipse fill="#add8e6" stroke="#000000" stroke-width="1.5" cx="281.1347" cy="-545.8" rx="29.6533" ry="18"/>
<text text-anchor="middle" x="281.1347" y="-541.6" font-family="Verdana" font-size="14.00" fill="#000000">Destroy</text>
</g>
<!-- github.com/dreadl0ck/go&#45;dpi.Destroy -->
<g id="node7" class="node">
<title>github.com/dreadl0ck/go&#45;dpi.Destroy</title>
<ellipse fill="#ffe4b5" stroke="#000000" stroke-width="1.5" cx="524.7209" cy="-545.8" rx="29.6533" ry="18"/>
<text text-anchor="middle" x="524.7209" y="-541.6" font-family="Verdana" font-size="14.00" fill="#000000">Destroy</text>
</g>
<!-- github.com/dreadl0ck/netcap/dpi.Destroy&#45;&gt;github.com/dreadl0ck/go&#45;dpi.Destroy -->
<g id="edge2" class="edge">
<title>github.com/dreadl0ck/netcap/dpi.Destroy&#45;&gt;github.com/dreadl0ck/go&#45;dpi.Destroy</title>
<path fill="none" stroke="#8b4513" d="M311.0032,-545.8C354.6765,-545.8 436.0518,-545.8 484.811,-545.8"/>
<polygon fill="#8b4513" stroke="#8b4513" points="484.9896,-549.3001 494.9896,-545.8 484.9895,-542.3001 484.9896,-549.3001"/>
</g>
<!-- github.com/dreadl0ck/netcap/dpi.GetProtocols -->
<g id="node3" class="node">
<title>github.com/dreadl0ck/netcap/dpi.GetProtocols</title>
<ellipse fill="#add8e6" stroke="#000000" stroke-width="1.5" cx="281.1347" cy="-667.8" rx="45.6925" ry="18"/>
<text text-anchor="middle" x="281.1347" y="-663.6" font-family="Verdana" font-size="14.00" fill="#000000">GetProtocols</text>
</g>
<!-- github.com/dreadl0ck/go&#45;dpi.GetPacketFlow -->
<g id="node8" class="node">
<title>github.com/dreadl0ck/go&#45;dpi.GetPacketFlow</title>
<ellipse fill="#ffe4b5" stroke="#000000" stroke-width="1.5" cx="524.7209" cy="-667.8" rx="53.1323" ry="18"/>
<text text-anchor="middle" x="524.7209" y="-663.6" font-family="Verdana" font-size="14.00" fill="#000000">GetPacketFlow</text>
</g>
<!-- github.com/dreadl0ck/netcap/dpi.GetProtocols&#45;&gt;github.com/dreadl0ck/go&#45;dpi.GetPacketFlow -->
<g id="edge4" class="edge">
<title>github.com/dreadl0ck/netcap/dpi.GetProtocols&#45;&gt;github.com/dreadl0ck/go&#45;dpi.GetPacketFlow</title>
<path fill="none" stroke="#8b4513" d="M327.2378,-667.8C365.0816,-667.8 419.0783,-667.8 461.0475,-667.8"/>
<polygon fill="#8b4513" stroke="#8b4513" points="461.1678,-671.3001 471.1678,-667.8 461.1678,-664.3001 461.1678,-671.3001"/>
</g>
<!-- github.com/dreadl0ck/go&#45;dpi.ClassifyFlowAllModules -->
<g id="node9" class="node">
<title>github.com/dreadl0ck/go&#45;dpi.ClassifyFlowAllModules</title>
<ellipse fill="#ffe4b5" stroke="#000000" stroke-width="1.5" cx="524.7209" cy="-606.8" rx="84.5848" ry="18"/>
<text text-anchor="middle" x="524.7209" y="-602.6" font-family="Verdana" font-size="14.00" fill="#000000">ClassifyFlowAllModules</text>
</g>
<!-- github.com/dreadl0ck/netcap/dpi.GetProtocols&#45;&gt;github.com/dreadl0ck/go&#45;dpi.ClassifyFlowAllModules -->
<g id="edge5" class="edge">
<title>github.com/dreadl0ck/netcap/dpi.GetProtocols&#45;&gt;github.com/dreadl0ck/go&#45;dpi.ClassifyFlowAllModules</title>
<path fill="none" stroke="#8b4513" d="M318.5046,-657.3375C339.9571,-651.4189 367.4291,-643.9873 391.9807,-637.8 412.8847,-632.532 435.7193,-627.0879 456.4638,-622.26"/>
<polygon fill="#8b4513" stroke="#8b4513" points="457.5103,-625.6103 466.4619,-619.943 455.9299,-618.7911 457.5103,-625.6103"/>
</g>
<!-- github.com/dreadl0ck/netcap/dpi.NewProto -->
<g id="node4" class="node">
<title>github.com/dreadl0ck/netcap/dpi.NewProto</title>
<ellipse fill="#add8e6" stroke="#000000" stroke-width="1.5" cx="281.1347" cy="-737.8" rx="36.7242" ry="18"/>
<text text-anchor="middle" x="281.1347" y="-733.6" font-family="Verdana" font-size="14.00" fill="#000000">NewProto</text>
</g>
<!-- github.com/dreadl0ck/netcap/dpi.getCategoryString -->
<g id="node5" class="node">
<title>github.com/dreadl0ck/netcap/dpi.getCategoryString</title>
<ellipse fill="#add8e6" stroke="#000000" stroke-width=".5" cx="524.7209" cy="-746.8" rx="62.6046" ry="18"/>
<text text-anchor="middle" x="524.7209" y="-742.6" font-family="Verdana" font-size="14.00" fill="#000000">getCategoryString</text>
</g>
<!-- github.com/dreadl0ck/netcap/dpi.NewProto&#45;&gt;github.com/dreadl0ck/netcap/dpi.getCategoryString -->
<g id="edge7" class="edge">
<title>github.com/dreadl0ck/netcap/dpi.NewProto&#45;&gt;github.com/dreadl0ck/netcap/dpi.getCategoryString</title>
<path fill="none" stroke="#000000" d="M317.8658,-739.1571C353.3767,-740.4692 408.1573,-742.4932 452.4251,-744.1288"/>
<polygon fill="#000000" stroke="#000000" points="452.442,-747.6317 462.5644,-744.5034 452.7005,-740.6365 452.442,-747.6317"/>
</g>
<!-- github.com/dreadl0ck/netcap/dpi.Init -->
<g id="node6" class="node">
<title>github.com/dreadl0ck/netcap/dpi.Init</title>
<ellipse fill="#add8e6" stroke="#000000" stroke-width="1.5" cx="281.1347" cy="-275.8" rx="27" ry="18"/>
<text text-anchor="middle" x="281.1347" y="-271.6" font-family="Verdana" font-size="14.00" fill="#000000">Init</text>
</g>
<!-- github.com/dreadl0ck/go&#45;dpi.SetModules -->
<g id="node10" class="node">
<title>github.com/dreadl0ck/go&#45;dpi.SetModules</title>
<ellipse fill="#ffe4b5" stroke="#000000" stroke-width="1.5" cx="524.7209" cy="-423.8" rx="42.1675" ry="18"/>
<text text-anchor="middle" x="524.7209" y="-419.6" font-family="Verdana" font-size="14.00" fill="#000000">SetModules</text>
</g>
<!-- github.com/dreadl0ck/netcap/dpi.Init&#45;&gt;github.com/dreadl0ck/go&#45;dpi.SetModules -->
<g id="edge14" class="edge">
<title>github.com/dreadl0ck/netcap/dpi.Init&#45;&gt;github.com/dreadl0ck/go&#45;dpi.SetModules</title>
<path fill="none" stroke="#8b4513" d="M291.7385,-292.8221C309.1922,-319.3127 346.6023,-370.0308 391.9807,-395.8 416.3712,-409.6507 446.7954,-416.6742 472.3611,-420.2251"/>
<polygon fill="#8b4513" stroke="#8b4513" points="472.267,-423.7404 482.6231,-421.5038 473.1326,-416.7941 472.267,-423.7404"/>
</g>
<!-- github.com/dreadl0ck/go&#45;dpi.Initialize -->
<g id="node11" class="node">
<title>github.com/dreadl0ck/go&#45;dpi.Initialize</title>
<ellipse fill="#ffe4b5" stroke="#000000" stroke-width="1.5" cx="524.7209" cy="-484.8" rx="32.8051" ry="18"/>
<text text-anchor="middle" x="524.7209" y="-480.6" font-family="Verdana" font-size="14.00" fill="#000000">Initialize</text>
</g>
<!-- github.com/dreadl0ck/netcap/dpi.Init&#45;&gt;github.com/dreadl0ck/go&#45;dpi.Initialize -->
<g id="edge15" class="edge">
<title>github.com/dreadl0ck/netcap/dpi.Init&#45;&gt;github.com/dreadl0ck/go&#45;dpi.Initialize</title>
<path fill="none" stroke="#8b4513" d="M286.8367,-293.5572C299.486,-329.9569 333.4946,-413.1074 391.9807,-454.8 418.0813,-473.4061 453.7978,-480.717 481.6079,-483.479"/>
<polygon fill="#8b4513" stroke="#8b4513" points="481.5874,-486.9893 491.8428,-484.3289 482.1668,-480.0133 481.5874,-486.9893"/>
</g>
<!-- github.com/dreadl0ck/go&#45;dpi/modules/classifiers.NewClassifierModule -->
<g id="node12" class="node">
<title>github.com/dreadl0ck/go&#45;dpi/modules/classifiers.NewClassifierModule</title>
<ellipse fill="#ffe4b5" stroke="#000000" stroke-width="1.5" cx="524.7209" cy="-66.8" rx="74.3249" ry="18"/>
<text text-anchor="middle" x="524.7209" y="-62.6" font-family="Verdana" font-size="14.00" fill="#000000">NewClassifierModule</text>
</g>
<!-- github.com/dreadl0ck/netcap/dpi.Init&#45;&gt;github.com/dreadl0ck/go&#45;dpi/modules/classifiers.NewClassifierModule -->
<g id="edge11" class="edge">
<title>github.com/dreadl0ck/netcap/dpi.Init&#45;&gt;github.com/dreadl0ck/go&#45;dpi/modules/classifiers.NewClassifierModule</title>
<path fill="none" stroke="#8b4513" d="M289.4049,-258.6126C305.2312,-227.3626 342.6584,-160.8649 391.9807,-121.8 413.3869,-104.8456 440.7578,-92.3342 465.0781,-83.5661"/>
<polygon fill="#8b4513" stroke="#8b4513" points="466.2797,-86.854 474.5809,-80.2706 463.9861,-80.2404 466.2797,-86.854"/>
</g>
<!-- github.com/dreadl0ck/go&#45;dpi/modules/wrappers.NewNDPIWrapper -->
<g id="node13" class="node">
<title>github.com/dreadl0ck/go&#45;dpi/modules/wrappers.NewNDPIWrapper</title>
<ellipse fill="#ffe4b5" stroke="#000000" stroke-width="1.5" cx="524.7209" cy="-214.8" rx="65.7132" ry="18"/>
<text text-anchor="middle" x="524.7209" y="-210.6" font-family="Verdana" font-size="14.00" fill="#000000">NewNDPIWrapper</text>
</g>
<!-- github.com/dreadl0ck/netcap/dpi.Init&#45;&gt;github.com/dreadl0ck/go&#45;dpi/modules/wrappers.NewNDPIWrapper -->
<g id="edge9" class="edge">
<title>github.com/dreadl0ck/netcap/dpi.Init&#45;&gt;github.com/dreadl0ck/go&#45;dpi/modules/wrappers.NewNDPIWrapper</title>
<path fill="none" stroke="#8b4513" d="M306.1627,-268.7586C328.5863,-262.5139 362.4027,-253.254 391.9807,-245.8 415.4686,-239.8808 441.3939,-233.7393 464.0528,-228.4995"/>
<polygon fill="#8b4513" stroke="#8b4513" points="464.9199,-231.8915 473.8791,-226.2362 463.3487,-225.0701 464.9199,-231.8915"/>
</g>
<!-- github.com/dreadl0ck/go&#45;dpi/modules/wrappers.NewLPIWrapper -->
<g id="node14" class="node">
<title>github.com/dreadl0ck/go&#45;dpi/modules/wrappers.NewLPIWrapper</title>
<ellipse fill="#ffe4b5" stroke="#000000" stroke-width="1.5" cx="524.7209" cy="-275.8" rx="59.0288" ry="18"/>
<text text-anchor="middle" x="524.7209" y="-271.6" font-family="Verdana" font-size="14.00" fill="#000000">NewLPIWrapper</text>
</g>
<!-- github.com/dreadl0ck/netcap/dpi.Init&#45;&gt;github.com/dreadl0ck/go&#45;dpi/modules/wrappers.NewLPIWrapper -->
<g id="edge10" class="edge">
<title>github.com/dreadl0ck/netcap/dpi.Init&#45;&gt;github.com/dreadl0ck/go&#45;dpi/modules/wrappers.NewLPIWrapper</title>
<path fill="none" stroke="#8b4513" d="M308.6037,-275.8C343.9162,-275.8 406.4865,-275.8 455.245,-275.8"/>
<polygon fill="#8b4513" stroke="#8b4513" points="455.4251,-279.3001 465.4251,-275.8 455.425,-272.3001 455.4251,-279.3001"/>
</g>
<!-- github.com/dreadl0ck/go&#45;dpi/modules/wrappers.NewWrapperModule -->
<g id="node15" class="node">
<title>github.com/dreadl0ck/go&#45;dpi/modules/wrappers.NewWrapperModule</title>
<ellipse fill="#ffe4b5" stroke="#000000" stroke-width="1.5" cx="524.7209" cy="-336.8" rx="71.5306" ry="18"/>
<text text-anchor="middle" x="524.7209" y="-332.6" font-family="Verdana" font-size="14.00" fill="#000000">NewWrapperModule</text>
</g>
<!-- github.com/dreadl0ck/netcap/dpi.Init&#45;&gt;github.com/dreadl0ck/go&#45;dpi/modules/wrappers.NewWrapperModule -->
<g id="edge12" class="edge">
<title>github.com/dreadl0ck/netcap/dpi.Init&#45;&gt;github.com/dreadl0ck/go&#45;dpi/modules/wrappers.NewWrapperModule</title>
<path fill="none" stroke="#8b4513" d="M306.1318,-283.1795C328.535,-289.7004 362.339,-299.3106 391.9807,-306.8 414.1294,-312.3962 438.4833,-318.0448 460.217,-322.9078"/>
<polygon fill="#8b4513" stroke="#8b4513" points="459.4797,-326.3292 470.0011,-325.0839 460.9995,-319.4962 459.4797,-326.3292"/>
</g>
<!-- (*github.com/dreadl0ck/go&#45;dpi/modules/wrappers.WrapperModule).ConfigureModule -->
<g id="node16" class="node">
<title>(*github.com/dreadl0ck/go&#45;dpi/modules/wrappers.WrapperModule).ConfigureModule</title>
<ellipse fill="#ffe4b5" stroke="#000000" stroke-width="1.5" cx="524.7209" cy="-153.8" rx="124.9809" ry="18"/>
<text text-anchor="middle" x="524.7209" y="-149.6" font-family="Verdana" font-size="14.00" fill="#000000">(*WrapperModule).ConfigureModule</text>
</g>
<!-- github.com/dreadl0ck/netcap/dpi.Init&#45;&gt;(*github.com/dreadl0ck/go&#45;dpi/modules/wrappers.WrapperModule).ConfigureModule -->
<g id="edge13" class="edge">
<title>github.com/dreadl0ck/netcap/dpi.Init&#45;&gt;(*github.com/dreadl0ck/go&#45;dpi/modules/wrappers.WrapperModule).ConfigureModule</title>
<path fill="none" stroke="#8b4513" d="M295.3309,-260.3752C315.028,-239.9316 352.6837,-204.1918 391.9807,-184.8 404.1908,-178.7747 417.6174,-173.8919 431.097,-169.9423"/>
<polygon fill="#8b4513" stroke="#8b4513" points="432.2005,-173.2686 440.9049,-167.2284 430.3336,-166.5221 432.2005,-173.2686"/>
</g>
<!-- (*github.com/dreadl0ck/netcap/collector.Collector).Init -->
<g id="node17" class="node">
<title>(*github.com/dreadl0ck/netcap/collector.Collector).Init</title>
<ellipse fill="#ffe4b5" stroke="#000000" stroke-width="1.5" cx="93.1444" cy="-275.8" rx="56.345" ry="18"/>
<text text-anchor="middle" x="93.1444" y="-271.6" font-family="Verdana" font-size="14.00" fill="#000000">(*Collector).Init</text>
</g>
<!-- (*github.com/dreadl0ck/netcap/collector.Collector).Init&#45;&gt;github.com/dreadl0ck/netcap/dpi.Init -->
<g id="edge16" class="edge">
<title>(*github.com/dreadl0ck/netcap/collector.Collector).Init&#45;&gt;github.com/dreadl0ck/netcap/dpi.Init</title>
<path fill="none" stroke="#8b4513" d="M149.5477,-275.8C180.1006,-275.8 216.9978,-275.8 243.9369,-275.8"/>
<polygon fill="#8b4513" stroke="#8b4513" points="244.1003,-279.3001 254.1003,-275.8 244.1002,-272.3001 244.1003,-279.3001"/>
</g>
<!-- github.com/dreadl0ck/netcap/decoder/packet.getIPProfile -->
<g id="node18" class="node">
<title>github.com/dreadl0ck/netcap/decoder/packet.getIPProfile</title>
<ellipse fill="#ffe4b5" stroke="#000000" stroke-width=".5" cx="93.1444" cy="-698.8" rx="42.534" ry="18"/>
<text text-anchor="middle" x="93.1444" y="-694.6" font-family="Verdana" font-size="14.00" fill="#000000">getIPProfile</text>
</g>
<!-- github.com/dreadl0ck/netcap/decoder/packet.getIPProfile&#45;&gt;github.com/dreadl0ck/netcap/dpi.GetProtocols -->
<g id="edge6" class="edge">
<title>github.com/dreadl0ck/netcap/decoder/packet.getIPProfile&#45;&gt;github.com/dreadl0ck/netcap/dpi.GetProtocols</title>
<path fill="none" stroke="#8b4513" d="M133.0123,-692.2257C160.9001,-687.6269 198.431,-681.438 228.7358,-676.4407"/>
<polygon fill="#8b4513" stroke="#8b4513" points="229.4144,-679.8762 238.7116,-674.7957 228.2754,-672.9694 229.4144,-679.8762"/>
</g>
<!-- github.com/dreadl0ck/netcap/decoder/packet.getIPProfile&#45;&gt;github.com/dreadl0ck/netcap/dpi.NewProto -->
<g id="edge8" class="edge">
<title>github.com/dreadl0ck/netcap/decoder/packet.getIPProfile&#45;&gt;github.com/dreadl0ck/netcap/dpi.NewProto</title>
<path fill="none" stroke="#8b4513" d="M131.6407,-706.7863C162.2705,-713.1407 205.1502,-722.0364 237.1354,-728.672"/>
<polygon fill="#8b4513" stroke="#8b4513" points="236.6056,-732.1366 247.1081,-730.7409 238.0276,-725.2825 236.6056,-732.1366"/>
</g>
<!-- github.com/dreadl0ck/netcap/decoder/stream/tcp.CleanupReassembly -->
<g id="node19" class="node">
<title>github.com/dreadl0ck/netcap/decoder/stream/tcp.CleanupReassembly</title>
<ellipse fill="#ffe4b5" stroke="#000000" stroke-width="1.5" cx="93.1444" cy="-575.8" rx="69.2891" ry="18"/>
<text text-anchor="middle" x="93.1444" y="-571.6" font-family="Verdana" font-size="14.00" fill="#000000">CleanupReassembly</text>
</g>
<!-- github.com/dreadl0ck/netcap/decoder/stream/tcp.CleanupReassembly&#45;&gt;github.com/dreadl0ck/netcap/dpi.IsEnabled -->
<g id="edge1" class="edge">
<title>github.com/dreadl0ck/netcap/decoder/stream/tcp.CleanupReassembly&#45;&gt;github.com/dreadl0ck/netcap/dpi.IsEnabled</title>
<path fill="none" stroke="#8b4513" d="M151.5952,-585.4387C178.9726,-589.9532 211.0679,-595.2458 236.4619,-599.4334"/>
<polygon fill="#8b4513" stroke="#8b4513" points="236.1104,-602.9226 246.5467,-601.0964 237.2494,-596.0159 236.1104,-602.9226"/>
</g>
<!-- github.com/dreadl0ck/netcap/decoder/stream/tcp.CleanupReassembly&#45;&gt;github.com/dreadl0ck/netcap/dpi.Destroy -->
<g id="edge3" class="edge">
<title>github.com/dreadl0ck/netcap/decoder/stream/tcp.CleanupReassembly&#45;&gt;github.com/dreadl0ck/netcap/dpi.Destroy</title>
<path fill="none" stroke="#8b4513" d="M152.1099,-566.3901C181.4481,-561.7083 216.0994,-556.1785 242.101,-552.0291"/>
<polygon fill="#8b4513" stroke="#8b4513" points="242.9957,-555.4307 252.3192,-550.3985 241.8925,-548.5182 242.9957,-555.4307"/>
</g>
</g>
</svg>
