<?xml version="1.0" encoding="UTF-8" standalone="no"?>
<!DOCTYPE svg PUBLIC "-//W3C//DTD SVG 1.1//EN"
 "http://www.w3.org/Graphics/SVG/1.1/DTD/svg11.dtd">
<!-- Generated by graphviz version 2.40.1 (20161225.0304)
 -->
<!-- Title: gocallvis Pages: 1 -->
<svg width="670pt" height="1194pt"
 viewBox="0.00 0.00 670.34 1193.80" xmlns="http://www.w3.org/2000/svg" xmlns:xlink="http://www.w3.org/1999/xlink">
<g id="graph0" class="graph" transform="scale(1 1) rotate(0) translate(0 1193.8)">
<title>gocallvis</title>
<polygon fill="#d3d3d3" stroke="transparent" points="0,0 0,-1193.8 670.3412,-1193.8 670.3412,0 0,0"/>
<text text-anchor="middle" x="112.6388" y="-8.2" font-family="Arial" font-size="14.00" fill="#000000">github.com/dreadl0ck/netcap/cmd</text>
<g id="clust1" class="cluster">
<title>cluster_focus</title>
<polygon fill="#e6ecfa" stroke="#000000" stroke-width=".5" points="8,-32.8 8,-1185.8 662.3412,-1185.8 662.3412,-32.8 8,-32.8"/>
<text text-anchor="middle" x="335.1706" y="-1165.6" font-family="Arial" font-size="18.00" fill="#000000">stream</text>
</g>
<g id="clust5" class="cluster">
<title>cluster_github.com/pkg/errors</title>
<g id="a_clust5"><a xlink:href="/?f=github.com/pkg/errors" xlink:title="package: github.com/pkg/errors">
<polygon fill="#ffffe0" stroke="#000000" stroke-width=".8" points="501.547,-40.8 501.547,-180.8 571.547,-180.8 571.547,-40.8 501.547,-40.8"/>
<text text-anchor="middle" x="536.547" y="-162.4" font-family="Tahoma bold" font-size="16.00" fill="#000000">errors</text>
</a>
</g>
</g>
<g id="clust4" class="cluster">
<title>cluster_github.com/dreadl0ck/netcap/io</title>
<g id="a_clust4"><a xlink:href="/?f=github.com/dreadl0ck/netcap/io" xlink:title="package: github.com/dreadl0ck/netcap/io">
<polygon fill="#ffffe0" stroke="#000000" stroke-width=".8" points="431.0863,-188.8 431.0863,-633.8 642.0078,-633.8 642.0078,-188.8 431.0863,-188.8"/>
<text text-anchor="middle" x="536.547" y="-615.4" font-family="Tahoma bold" font-size="16.00" fill="#000000">io</text>
</a>
</g>
</g>
<g id="clust3" class="cluster">
<title>cluster_github.com/dreadl0ck/netcap/decoder</title>
<g id="a_clust3"><a xlink:href="/?f=github.com/dreadl0ck/netcap/decoder" xlink:title="package: github.com/dreadl0ck/netcap/decoder">
<polygon fill="#ffffe0" stroke="#000000" stroke-width=".8" points="418.7529,-641.8 418.7529,-1147.8 654.3412,-1147.8 654.3412,-641.8 418.7529,-641.8"/>
<text text-anchor="middle" x="536.547" y="-1129.4" font-family="Tahoma bold" font-size="16.00" fill="#000000">decoder</text>
</a>
</g>
</g>
<g id="clust2" class="cluster">
<title>cluster_github.com/dreadl0ck/netcap/collector</title>
<g id="a_clust2"><a xlink:href="/?f=github.com/dreadl0ck/netcap/collector" xlink:title="package: github.com/dreadl0ck/netcap/collector">
<polygon fill="#ffffe0" stroke="#000000" stroke-width=".8" points="16,-462.8 16,-541.8 144.3445,-541.8 144.3445,-462.8 16,-462.8"/>
<text text-anchor="middle" x="80.1722" y="-523.4" font-family="Tahoma bold" font-size="16.00" fill="#000000">collector</text>
</a>
</g>
</g>
<!-- github.com/dreadl0ck/netcap/decoder/stream.InitDecoders -->
<g id="node1" class="node">
<title>github.com/dreadl0ck/netcap/decoder/stream.InitDecoders</title>
<ellipse fill="#add8e6" stroke="#000000" stroke-width="1.5" cx="281.5487" cy="-458.8" rx="45.2899" ry="18"/>
<text text-anchor="middle" x="281.5487" y="-454.6" font-family="Verdana" font-size="14.00" fill="#000000">InitDecoders</text>
</g>
<!-- (*github.com/dreadl0ck/netcap/decoder.StreamDecoder).GetName -->
<g id="node7" class="node">
<title>(*github.com/dreadl0ck/netcap/decoder.StreamDecoder).GetName</title>
<ellipse fill="#ffe4b5" stroke="#000000" stroke-width="1.5" cx="536.547" cy="-850.8" rx="95.0452" ry="18"/>
<text text-anchor="middle" x="536.547" y="-846.6" font-family="Verdana" font-size="14.00" fill="#000000">(*StreamDecoder).GetName</text>
</g>
<!-- github.com/dreadl0ck/netcap/decoder/stream.InitDecoders&#45;&gt;(*github.com/dreadl0ck/netcap/decoder.StreamDecoder).GetName -->
<g id="edge3" class="edge">
<title>github.com/dreadl0ck/netcap/decoder/stream.InitDecoders&#45;&gt;(*github.com/dreadl0ck/netcap/decoder.StreamDecoder).GetName</title>
<path fill="none" stroke="#8b4513" stroke-dasharray="5,2" d="M321.1484,-467.7013C333.3385,-472.3406 345.6639,-479.3276 353.7529,-489.8 445.398,-608.4483 309.9767,-717.6303 418.7529,-820.8 426.3531,-828.0084 435.4344,-833.5494 445.1368,-837.7985"/>
<polygon fill="#8b4513" stroke="#8b4513" points="444.0131,-841.1169 454.6014,-841.4887 446.556,-834.5951 444.0131,-841.1169"/>
</g>
<!-- (*github.com/dreadl0ck/netcap/decoder.StreamDecoder).GetType -->
<g id="node8" class="node">
<title>(*github.com/dreadl0ck/netcap/decoder.StreamDecoder).GetType</title>
<ellipse fill="#ffe4b5" stroke="#000000" stroke-width="1.5" cx="536.547" cy="-667.8" rx="92.7768" ry="18"/>
<text text-anchor="middle" x="536.547" y="-663.6" font-family="Verdana" font-size="14.00" fill="#000000">(*StreamDecoder).GetType</text>
</g>
<!-- github.com/dreadl0ck/netcap/decoder/stream.InitDecoders&#45;&gt;(*github.com/dreadl0ck/netcap/decoder.StreamDecoder).GetType -->
<g id="edge4" class="edge">
<title>github.com/dreadl0ck/netcap/decoder/stream.InitDecoders&#45;&gt;(*github.com/dreadl0ck/netcap/decoder.StreamDecoder).GetType</title>
<path fill="none" stroke="#8b4513" stroke-dasharray="5,2" d="M319.2894,-468.8647C331.483,-473.6077 344.2836,-480.3625 353.7529,-489.8 405.2155,-541.0895 363.0711,-593.125 418.7529,-639.8 426.749,-646.5027 436.0727,-651.6588 445.9086,-655.6161"/>
<polygon fill="#8b4513" stroke="#8b4513" points="444.8748,-658.9637 455.4693,-659.0542 447.2436,-652.3767 444.8748,-658.9637"/>
</g>
<!-- (*github.com/dreadl0ck/netcap/decoder.StreamDecoder).SetWriter -->
<g id="node9" class="node">
<title>(*github.com/dreadl0ck/netcap/decoder.StreamDecoder).SetWriter</title>
<ellipse fill="#ffe4b5" stroke="#000000" stroke-width="1.5" cx="536.547" cy="-728.8" rx="95.9284" ry="18"/>
<text text-anchor="middle" x="536.547" y="-724.6" font-family="Verdana" font-size="14.00" fill="#000000">(*StreamDecoder).SetWriter</text>
</g>
<!-- github.com/dreadl0ck/netcap/decoder/stream.InitDecoders&#45;&gt;(*github.com/dreadl0ck/netcap/decoder.StreamDecoder).SetWriter -->
<g id="edge5" class="edge">
<title>github.com/dreadl0ck/netcap/decoder/stream.InitDecoders&#45;&gt;(*github.com/dreadl0ck/netcap/decoder.StreamDecoder).SetWriter</title>
<path fill="none" stroke="#8b4513" stroke-dasharray="5,2" d="M320.2586,-468.444C332.3834,-473.1378 344.895,-479.9693 353.7529,-489.8 418.8696,-562.0684 348.1976,-631.8309 418.7529,-698.8 426.3504,-706.0113 435.43,-711.554 445.1316,-715.804"/>
<polygon fill="#8b4513" stroke="#8b4513" points="444.0072,-719.1222 454.5955,-719.495 446.5507,-712.6006 444.0072,-719.1222"/>
</g>
<!-- (*github.com/dreadl0ck/netcap/decoder.StreamDecoder).PostInitFunc -->
<g id="node10" class="node">
<title>(*github.com/dreadl0ck/netcap/decoder.StreamDecoder).PostInitFunc</title>
<ellipse fill="#ffe4b5" stroke="#000000" stroke-width="1.5" cx="536.547" cy="-789.8" rx="105.3047" ry="18"/>
<text text-anchor="middle" x="536.547" y="-785.6" font-family="Verdana" font-size="14.00" fill="#000000">(*StreamDecoder).PostInitFunc</text>
</g>
<!-- github.com/dreadl0ck/netcap/decoder/stream.InitDecoders&#45;&gt;(*github.com/dreadl0ck/netcap/decoder.StreamDecoder).PostInitFunc -->
<g id="edge6" class="edge">
<title>github.com/dreadl0ck/netcap/decoder/stream.InitDecoders&#45;&gt;(*github.com/dreadl0ck/netcap/decoder.StreamDecoder).PostInitFunc</title>
<path fill="none" stroke="#8b4513" stroke-dasharray="5,2" d="M320.8184,-467.9635C332.9843,-472.622 345.3788,-479.5541 353.7529,-489.8 431.8629,-585.3688 329.6995,-674.3362 418.7529,-759.8 425.4059,-766.1848 433.2195,-771.2641 441.6037,-775.2974"/>
<polygon fill="#8b4513" stroke="#8b4513" points="440.327,-778.558 450.8975,-779.2758 443.0817,-772.1229 440.327,-778.558"/>
</g>
<!-- github.com/dreadl0ck/netcap/io.NewAuditRecordWriter -->
<g id="node15" class="node">
<title>github.com/dreadl0ck/netcap/io.NewAuditRecordWriter</title>
<ellipse fill="#ffe4b5" stroke="#000000" stroke-width="1.5" cx="536.547" cy="-580.8" rx="80.9948" ry="18"/>
<text text-anchor="middle" x="536.547" y="-576.6" font-family="Verdana" font-size="14.00" fill="#000000">NewAuditRecordWriter</text>
</g>
<!-- github.com/dreadl0ck/netcap/decoder/stream.InitDecoders&#45;&gt;github.com/dreadl0ck/netcap/io.NewAuditRecordWriter -->
<g id="edge2" class="edge">
<title>github.com/dreadl0ck/netcap/decoder/stream.InitDecoders&#45;&gt;github.com/dreadl0ck/netcap/io.NewAuditRecordWriter</title>
<path fill="none" stroke="#8b4513" d="M315.8602,-470.6841C328.2832,-475.7097 342.1106,-482.179 353.7529,-489.8 386.9005,-511.4983 384.0138,-531.7533 418.7529,-550.8 431.6828,-557.8892 446.3301,-563.3435 460.794,-567.5272"/>
<polygon fill="#8b4513" stroke="#8b4513" points="460.1876,-570.9889 470.7548,-570.225 462.0176,-564.2324 460.1876,-570.9889"/>
</g>
<!-- (*github.com/dreadl0ck/netcap/io.protoWriter).WriteHeader -->
<g id="node16" class="node">
<title>(*github.com/dreadl0ck/netcap/io.protoWriter).WriteHeader</title>
<ellipse fill="#ffe4b5" stroke="#000000" stroke-width="1.5" cx="536.547" cy="-275.8" rx="93.9011" ry="18"/>
<text text-anchor="middle" x="536.547" y="-271.6" font-family="Verdana" font-size="14.00" fill="#000000">(*protoWriter).WriteHeader</text>
</g>
<!-- github.com/dreadl0ck/netcap/decoder/stream.InitDecoders&#45;&gt;(*github.com/dreadl0ck/netcap/io.protoWriter).WriteHeader -->
<g id="edge7" class="edge">
<title>github.com/dreadl0ck/netcap/decoder/stream.InitDecoders&#45;&gt;(*github.com/dreadl0ck/netcap/io.protoWriter).WriteHeader</title>
<path fill="none" stroke="#8b4513" stroke-dasharray="5,2" d="M288.3242,-440.9733C301.9782,-407.6678 336.1493,-336.2588 389.7529,-301.8 403.4552,-292.9915 419.2926,-286.9427 435.3872,-282.829"/>
<polygon fill="#8b4513" stroke="#8b4513" points="436.4691,-286.1713 445.4247,-280.5103 434.8935,-279.3509 436.4691,-286.1713"/>
</g>
<!-- (*github.com/dreadl0ck/netcap/io.csvWriter).WriteHeader -->
<g id="node17" class="node">
<title>(*github.com/dreadl0ck/netcap/io.csvWriter).WriteHeader</title>
<ellipse fill="#ffe4b5" stroke="#000000" stroke-width="1.5" cx="536.547" cy="-397.8" rx="87.5864" ry="18"/>
<text text-anchor="middle" x="536.547" y="-393.6" font-family="Verdana" font-size="14.00" fill="#000000">(*csvWriter).WriteHeader</text>
</g>
<!-- github.com/dreadl0ck/netcap/decoder/stream.InitDecoders&#45;&gt;(*github.com/dreadl0ck/netcap/io.csvWriter).WriteHeader -->
<g id="edge8" class="edge">
<title>github.com/dreadl0ck/netcap/decoder/stream.InitDecoders&#45;&gt;(*github.com/dreadl0ck/netcap/io.csvWriter).WriteHeader</title>
<path fill="none" stroke="#8b4513" stroke-dasharray="5,2" d="M310.2145,-444.6459C331.6161,-434.7017 361.857,-421.9454 389.7529,-414.8 406.685,-410.4629 425.0015,-407.2302 442.7663,-404.8213"/>
<polygon fill="#8b4513" stroke="#8b4513" points="443.6713,-408.2343 453.1476,-403.4961 442.7848,-401.2906 443.6713,-408.2343"/>
</g>
<!-- (*github.com/dreadl0ck/netcap/io.elasticWriter).WriteHeader -->
<g id="node18" class="node">
<title>(*github.com/dreadl0ck/netcap/io.elasticWriter).WriteHeader</title>
<ellipse fill="#ffe4b5" stroke="#000000" stroke-width="1.5" cx="536.547" cy="-519.8" rx="97.4214" ry="18"/>
<text text-anchor="middle" x="536.547" y="-515.6" font-family="Verdana" font-size="14.00" fill="#000000">(*elasticWriter).WriteHeader</text>
</g>
<!-- github.com/dreadl0ck/netcap/decoder/stream.InitDecoders&#45;&gt;(*github.com/dreadl0ck/netcap/io.elasticWriter).WriteHeader -->
<g id="edge9" class="edge">
<title>github.com/dreadl0ck/netcap/decoder/stream.InitDecoders&#45;&gt;(*github.com/dreadl0ck/netcap/io.elasticWriter).WriteHeader</title>
<path fill="none" stroke="#8b4513" stroke-dasharray="5,2" d="M320.555,-468.131C359.3702,-477.4162 419.7769,-491.8666 466.8496,-503.1272"/>
<polygon fill="#8b4513" stroke="#8b4513" points="466.1395,-506.556 476.6795,-505.4786 467.7682,-499.7481 466.1395,-506.556"/>
</g>
<!-- (*github.com/dreadl0ck/netcap/io.nullWriter).WriteHeader -->
<g id="node19" class="node">
<title>(*github.com/dreadl0ck/netcap/io.nullWriter).WriteHeader</title>
<ellipse fill="#ffe4b5" stroke="#000000" stroke-width="1.5" cx="536.547" cy="-214.8" rx="89.6159" ry="18"/>
<text text-anchor="middle" x="536.547" y="-210.6" font-family="Verdana" font-size="14.00" fill="#000000">(*nullWriter).WriteHeader</text>
</g>
<!-- github.com/dreadl0ck/netcap/decoder/stream.InitDecoders&#45;&gt;(*github.com/dreadl0ck/netcap/io.nullWriter).WriteHeader -->
<g id="edge10" class="edge">
<title>github.com/dreadl0ck/netcap/decoder/stream.InitDecoders&#45;&gt;(*github.com/dreadl0ck/netcap/io.nullWriter).WriteHeader</title>
<path fill="none" stroke="#8b4513" stroke-dasharray="5,2" d="M284.8909,-440.7322C293.7167,-398.4784 321.8035,-292.9287 389.7529,-241.8 403.7729,-231.2506 420.6459,-224.3929 437.8818,-220.012"/>
<polygon fill="#8b4513" stroke="#8b4513" points="439.0727,-223.3311 448.0532,-217.7096 437.5272,-216.5038 439.0727,-223.3311"/>
</g>
<!-- (*github.com/dreadl0ck/netcap/io.jsonWriter).WriteHeader -->
<g id="node20" class="node">
<title>(*github.com/dreadl0ck/netcap/io.jsonWriter).WriteHeader</title>
<ellipse fill="#ffe4b5" stroke="#000000" stroke-width="1.5" cx="536.547" cy="-458.8" rx="90.3729" ry="18"/>
<text text-anchor="middle" x="536.547" y="-454.6" font-family="Verdana" font-size="14.00" fill="#000000">(*jsonWriter).WriteHeader</text>
</g>
<!-- github.com/dreadl0ck/netcap/decoder/stream.InitDecoders&#45;&gt;(*github.com/dreadl0ck/netcap/io.jsonWriter).WriteHeader -->
<g id="edge11" class="edge">
<title>github.com/dreadl0ck/netcap/decoder/stream.InitDecoders&#45;&gt;(*github.com/dreadl0ck/netcap/io.jsonWriter).WriteHeader</title>
<path fill="none" stroke="#8b4513" stroke-dasharray="5,2" d="M327.1373,-458.8C357.3831,-458.8 398.2938,-458.8 435.9304,-458.8"/>
<polygon fill="#8b4513" stroke="#8b4513" points="435.9318,-462.3001 445.9318,-458.8 435.9317,-455.3001 435.9318,-462.3001"/>
</g>
<!-- (*github.com/dreadl0ck/netcap/io.chanWriter).WriteHeader -->
<g id="node21" class="node">
<title>(*github.com/dreadl0ck/netcap/io.chanWriter).WriteHeader</title>
<ellipse fill="#ffe4b5" stroke="#000000" stroke-width="1.5" cx="536.547" cy="-336.8" rx="92.3715" ry="18"/>
<text text-anchor="middle" x="536.547" y="-332.6" font-family="Verdana" font-size="14.00" fill="#000000">(*chanWriter).WriteHeader</text>
</g>
<!-- github.com/dreadl0ck/netcap/decoder/stream.InitDecoders&#45;&gt;(*github.com/dreadl0ck/netcap/io.chanWriter).WriteHeader -->
<g id="edge12" class="edge">
<title>github.com/dreadl0ck/netcap/decoder/stream.InitDecoders&#45;&gt;(*github.com/dreadl0ck/netcap/io.chanWriter).WriteHeader</title>
<path fill="none" stroke="#8b4513" stroke-dasharray="5,2" d="M295.1909,-441.3577C313.9036,-418.7787 349.7956,-380.0526 389.7529,-360.8 405.0189,-353.4444 422.1038,-348.2828 439.0721,-344.6737"/>
<polygon fill="#8b4513" stroke="#8b4513" points="439.8935,-348.0795 449.0347,-342.7233 438.5485,-341.2099 439.8935,-348.0795"/>
</g>
<!-- github.com/pkg/errors.Wrap -->
<g id="node22" class="node">
<title>github.com/pkg/errors.Wrap</title>
<ellipse fill="#ffe4b5" stroke="#000000" stroke-width="1.5" cx="536.547" cy="-66.8" rx="27" ry="18"/>
<text text-anchor="middle" x="536.547" y="-62.6" font-family="Verdana" font-size="14.00" fill="#000000">Wrap</text>
</g>
<!-- github.com/dreadl0ck/netcap/decoder/stream.InitDecoders&#45;&gt;github.com/pkg/errors.Wrap -->
<g id="edge1" class="edge">
<title>github.com/dreadl0ck/netcap/decoder/stream.InitDecoders&#45;&gt;github.com/pkg/errors.Wrap</title>
<path fill="none" stroke="#8b4513" d="M283.7164,-440.7984C290.819,-387.729 317.2436,-228.9156 389.7529,-121.8 413.8787,-86.1596 464.2142,-73.5641 499.1716,-69.1424"/>
<polygon fill="#8b4513" stroke="#8b4513" points="499.92,-72.5815 509.4807,-68.0161 499.1597,-65.6229 499.92,-72.5815"/>
</g>
<!-- github.com/dreadl0ck/netcap/decoder/stream.InitAbstractDecoders -->
<g id="node2" class="node">
<title>github.com/dreadl0ck/netcap/decoder/stream.InitAbstractDecoders</title>
<ellipse fill="#add8e6" stroke="#000000" stroke-width="1.5" cx="281.5487" cy="-519.8" rx="72.409" ry="18"/>
<text text-anchor="middle" x="281.5487" y="-515.6" font-family="Verdana" font-size="14.00" fill="#000000">InitAbstractDecoders</text>
</g>
<!-- (*github.com/dreadl0ck/netcap/decoder.AbstractDecoder).GetName -->
<g id="node11" class="node">
<title>(*github.com/dreadl0ck/netcap/decoder.AbstractDecoder).GetName</title>
<ellipse fill="#ffe4b5" stroke="#000000" stroke-width="1.5" cx="536.547" cy="-1094.8" rx="99.8286" ry="18"/>
<text text-anchor="middle" x="536.547" y="-1090.6" font-family="Verdana" font-size="14.00" fill="#000000">(*AbstractDecoder).GetName</text>
</g>
<!-- github.com/dreadl0ck/netcap/decoder/stream.InitAbstractDecoders&#45;&gt;(*github.com/dreadl0ck/netcap/decoder.AbstractDecoder).GetName -->
<g id="edge16" class="edge">
<title>github.com/dreadl0ck/netcap/decoder/stream.InitAbstractDecoders&#45;&gt;(*github.com/dreadl0ck/netcap/decoder.AbstractDecoder).GetName</title>
<path fill="none" stroke="#8b4513" stroke-dasharray="5,2" d="M285.834,-537.8862C307.9944,-631.2765 408.9438,-1054.9678 418.7529,-1064.8 425.6113,-1071.6746 433.8101,-1077.0471 442.6457,-1081.2354"/>
<polygon fill="#8b4513" stroke="#8b4513" points="441.479,-1084.5415 452.0543,-1085.1847 444.1883,-1078.087 441.479,-1084.5415"/>
</g>
<!-- (*github.com/dreadl0ck/netcap/decoder.AbstractDecoder).GetType -->
<g id="node12" class="node">
<title>(*github.com/dreadl0ck/netcap/decoder.AbstractDecoder).GetType</title>
<ellipse fill="#ffe4b5" stroke="#000000" stroke-width="1.5" cx="536.547" cy="-972.8" rx="97.0603" ry="18"/>
<text text-anchor="middle" x="536.547" y="-968.6" font-family="Verdana" font-size="14.00" fill="#000000">(*AbstractDecoder).GetType</text>
</g>
<!-- github.com/dreadl0ck/netcap/decoder/stream.InitAbstractDecoders&#45;&gt;(*github.com/dreadl0ck/netcap/decoder.AbstractDecoder).GetType -->
<g id="edge17" class="edge">
<title>github.com/dreadl0ck/netcap/decoder/stream.InitAbstractDecoders&#45;&gt;(*github.com/dreadl0ck/netcap/decoder.AbstractDecoder).GetType</title>
<path fill="none" stroke="#8b4513" stroke-dasharray="5,2" d="M285.0211,-538.1188C299.3356,-611.7615 355.9772,-885.0325 418.7529,-942.8 426.402,-949.8389 435.4687,-955.2797 445.1241,-959.4769"/>
<polygon fill="#8b4513" stroke="#8b4513" points="443.9459,-962.7739 454.5347,-963.1314 446.48,-956.2487 443.9459,-962.7739"/>
</g>
<!-- (*github.com/dreadl0ck/netcap/decoder.AbstractDecoder).SetWriter -->
<g id="node13" class="node">
<title>(*github.com/dreadl0ck/netcap/decoder.AbstractDecoder).SetWriter</title>
<ellipse fill="#ffe4b5" stroke="#000000" stroke-width="1.5" cx="536.547" cy="-1033.8" rx="100.2117" ry="18"/>
<text text-anchor="middle" x="536.547" y="-1029.6" font-family="Verdana" font-size="14.00" fill="#000000">(*AbstractDecoder).SetWriter</text>
</g>
<!-- github.com/dreadl0ck/netcap/decoder/stream.InitAbstractDecoders&#45;&gt;(*github.com/dreadl0ck/netcap/decoder.AbstractDecoder).SetWriter -->
<g id="edge18" class="edge">
<title>github.com/dreadl0ck/netcap/decoder/stream.InitAbstractDecoders&#45;&gt;(*github.com/dreadl0ck/netcap/decoder.AbstractDecoder).SetWriter</title>
<path fill="none" stroke="#8b4513" stroke-dasharray="5,2" d="M285.5358,-537.8786C304.1696,-621.6953 383.2585,-969.8336 418.7529,-1003.8 425.8998,-1010.6393 434.3788,-1015.9797 443.4624,-1020.141"/>
<polygon fill="#8b4513" stroke="#8b4513" points="442.1396,-1023.3813 452.7207,-1023.921 444.7856,-1016.9007 442.1396,-1023.3813"/>
</g>
<!-- (*github.com/dreadl0ck/netcap/decoder.AbstractDecoder).PostInitFunc -->
<g id="node14" class="node">
<title>(*github.com/dreadl0ck/netcap/decoder.AbstractDecoder).PostInitFunc</title>
<ellipse fill="#ffe4b5" stroke="#000000" stroke-width="1.5" cx="536.547" cy="-911.8" rx="109.5887" ry="18"/>
<text text-anchor="middle" x="536.547" y="-907.6" font-family="Verdana" font-size="14.00" fill="#000000">(*AbstractDecoder).PostInitFunc</text>
</g>
<!-- github.com/dreadl0ck/netcap/decoder/stream.InitAbstractDecoders&#45;&gt;(*github.com/dreadl0ck/netcap/decoder.AbstractDecoder).PostInitFunc -->
<g id="edge19" class="edge">
<title>github.com/dreadl0ck/netcap/decoder/stream.InitAbstractDecoders&#45;&gt;(*github.com/dreadl0ck/netcap/decoder.AbstractDecoder).PostInitFunc</title>
<path fill="none" stroke="#8b4513" stroke-dasharray="5,2" d="M282.7533,-538.0982C287.6748,-597.4024 311.4738,-785.9979 418.7529,-881.8 425.4432,-887.7745 433.159,-892.5922 441.3754,-896.4723"/>
<polygon fill="#8b4513" stroke="#8b4513" points="440.2628,-899.8017 450.8368,-900.4665 442.9853,-893.3528 440.2628,-899.8017"/>
</g>
<!-- github.com/dreadl0ck/netcap/decoder/stream.InitAbstractDecoders&#45;&gt;github.com/dreadl0ck/netcap/io.NewAuditRecordWriter -->
<g id="edge15" class="edge">
<title>github.com/dreadl0ck/netcap/decoder/stream.InitAbstractDecoders&#45;&gt;github.com/dreadl0ck/netcap/io.NewAuditRecordWriter</title>
<path fill="none" stroke="#8b4513" d="M314.3875,-535.8767C335.44,-545.4927 363.6251,-557.1074 389.7529,-563.8 408.483,-568.5977 428.907,-572.0439 448.4045,-574.5185"/>
<polygon fill="#8b4513" stroke="#8b4513" points="448.1572,-578.0138 458.502,-575.7261 448.9884,-571.0633 448.1572,-578.0138"/>
</g>
<!-- github.com/dreadl0ck/netcap/decoder/stream.InitAbstractDecoders&#45;&gt;(*github.com/dreadl0ck/netcap/io.protoWriter).WriteHeader -->
<g id="edge20" class="edge">
<title>github.com/dreadl0ck/netcap/decoder/stream.InitAbstractDecoders&#45;&gt;(*github.com/dreadl0ck/netcap/io.protoWriter).WriteHeader</title>
<path fill="none" stroke="#8b4513" stroke-dasharray="5,2" d="M329.7787,-506.3963C338.6111,-502.2125 347.1191,-496.7915 353.7529,-489.8 413.1616,-427.1878 355.214,-365.2165 418.7529,-306.8 427.0607,-299.1619 437.0239,-293.3612 447.5911,-288.9637"/>
<polygon fill="#8b4513" stroke="#8b4513" points="448.8617,-292.2254 457.0065,-285.4496 446.4139,-285.6673 448.8617,-292.2254"/>
</g>
<!-- github.com/dreadl0ck/netcap/decoder/stream.InitAbstractDecoders&#45;&gt;(*github.com/dreadl0ck/netcap/io.csvWriter).WriteHeader -->
<g id="edge21" class="edge">
<title>github.com/dreadl0ck/netcap/decoder/stream.InitAbstractDecoders&#45;&gt;(*github.com/dreadl0ck/netcap/io.csvWriter).WriteHeader</title>
<path fill="none" stroke="#8b4513" stroke-dasharray="5,2" d="M324.0734,-505.1157C334.1607,-500.8342 344.6321,-495.6942 353.7529,-489.8 387.0274,-468.2968 384.0899,-447.9848 418.7529,-428.8 431.3053,-421.8527 445.4776,-416.4104 459.5296,-412.1634"/>
<polygon fill="#8b4513" stroke="#8b4513" points="460.5549,-415.5107 469.2172,-409.4104 458.6413,-408.7773 460.5549,-415.5107"/>
</g>
<!-- github.com/dreadl0ck/netcap/decoder/stream.InitAbstractDecoders&#45;&gt;(*github.com/dreadl0ck/netcap/io.elasticWriter).WriteHeader -->
<g id="edge22" class="edge">
<title>github.com/dreadl0ck/netcap/decoder/stream.InitAbstractDecoders&#45;&gt;(*github.com/dreadl0ck/netcap/io.elasticWriter).WriteHeader</title>
<path fill="none" stroke="#8b4513" stroke-dasharray="5,2" d="M353.9389,-519.8C377.1039,-519.8 403.2742,-519.8 428.4158,-519.8"/>
<polygon fill="#8b4513" stroke="#8b4513" points="428.7386,-523.3001 438.7385,-519.8 428.7385,-516.3001 428.7386,-523.3001"/>
</g>
<!-- github.com/dreadl0ck/netcap/decoder/stream.InitAbstractDecoders&#45;&gt;(*github.com/dreadl0ck/netcap/io.nullWriter).WriteHeader -->
<g id="edge23" class="edge">
<title>github.com/dreadl0ck/netcap/decoder/stream.InitAbstractDecoders&#45;&gt;(*github.com/dreadl0ck/netcap/io.nullWriter).WriteHeader</title>
<path fill="none" stroke="#8b4513" stroke-dasharray="5,2" d="M331.0872,-506.5474C339.6026,-502.3691 347.6576,-496.9117 353.7529,-489.8 426.7858,-404.5887 338.0915,-323.8289 418.7529,-245.8 427.2429,-237.5871 437.6363,-231.4823 448.6981,-226.9567"/>
<polygon fill="#8b4513" stroke="#8b4513" points="449.928,-230.2337 458.1201,-223.5151 447.5262,-223.6586 449.928,-230.2337"/>
</g>
<!-- github.com/dreadl0ck/netcap/decoder/stream.InitAbstractDecoders&#45;&gt;(*github.com/dreadl0ck/netcap/io.jsonWriter).WriteHeader -->
<g id="edge24" class="edge">
<title>github.com/dreadl0ck/netcap/decoder/stream.InitAbstractDecoders&#45;&gt;(*github.com/dreadl0ck/netcap/io.jsonWriter).WriteHeader</title>
<path fill="none" stroke="#8b4513" stroke-dasharray="5,2" d="M333.7667,-507.3085C372.7514,-497.9827 426.3654,-485.1573 468.6738,-475.0364"/>
<polygon fill="#8b4513" stroke="#8b4513" points="469.7067,-478.3882 478.618,-472.6576 468.078,-471.5803 469.7067,-478.3882"/>
</g>
<!-- github.com/dreadl0ck/netcap/decoder/stream.InitAbstractDecoders&#45;&gt;(*github.com/dreadl0ck/netcap/io.chanWriter).WriteHeader -->
<g id="edge25" class="edge">
<title>github.com/dreadl0ck/netcap/decoder/stream.InitAbstractDecoders&#45;&gt;(*github.com/dreadl0ck/netcap/io.chanWriter).WriteHeader</title>
<path fill="none" stroke="#8b4513" stroke-dasharray="5,2" d="M328.2443,-505.9424C337.396,-501.7663 346.4187,-496.4636 353.7529,-489.8 399.2252,-448.4855 370.5698,-405.9184 418.7529,-367.8 428.1464,-360.3686 439.1496,-354.7082 450.5903,-350.3987"/>
<polygon fill="#8b4513" stroke="#8b4513" points="451.9473,-353.6338 460.2777,-347.0873 449.6831,-347.01 451.9473,-353.6338"/>
</g>
<!-- github.com/dreadl0ck/netcap/decoder/stream.InitAbstractDecoders&#45;&gt;github.com/pkg/errors.Wrap -->
<g id="edge14" class="edge">
<title>github.com/dreadl0ck/netcap/decoder/stream.InitAbstractDecoders&#45;&gt;github.com/pkg/errors.Wrap</title>
<path fill="none" stroke="#8b4513" d="M331.8941,-506.7253C340.2324,-502.5377 348.016,-497.0313 353.7529,-489.8 408.6323,-420.6246 359.2853,-163.0732 418.7529,-97.8 438.9949,-75.5818 473.0705,-68.4791 499.3789,-66.5563"/>
<polygon fill="#8b4513" stroke="#8b4513" points="499.5877,-70.0503 509.3946,-66.0412 499.228,-63.0595 499.5877,-70.0503"/>
</g>
<!-- github.com/dreadl0ck/netcap/decoder/stream.init#1 -->
<g id="node3" class="node">
<title>github.com/dreadl0ck/netcap/decoder/stream.init#1</title>
<ellipse fill="#add8e6" stroke="#000000" stroke-width=".5" cx="281.5487" cy="-948.8" rx="27" ry="18"/>
<text text-anchor="middle" x="281.5487" y="-944.6" font-family="Verdana" font-size="14.00" fill="#000000">init#1</text>
</g>
<!-- github.com/dreadl0ck/netcap/decoder/stream.init#1&#45;&gt;(*github.com/dreadl0ck/netcap/decoder.AbstractDecoder).GetName -->
<g id="edge27" class="edge">
<title>github.com/dreadl0ck/netcap/decoder/stream.init#1&#45;&gt;(*github.com/dreadl0ck/netcap/decoder.AbstractDecoder).GetName</title>
<path fill="none" stroke="#8b4513" stroke-dasharray="5,2" d="M293.7138,-965.0235C312.0458,-988.3752 348.9737,-1031.3357 389.7529,-1055.8 408.1999,-1066.8668 429.7971,-1074.8407 450.6633,-1080.5692"/>
<polygon fill="#8b4513" stroke="#8b4513" points="449.948,-1083.9995 460.5067,-1083.1253 451.7074,-1077.2242 449.948,-1083.9995"/>
</g>
<!-- github.com/dreadl0ck/netcap/decoder/stream.init -->
<g id="node4" class="node">
<title>github.com/dreadl0ck/netcap/decoder/stream.init</title>
<ellipse fill="#add8e6" stroke="#000000" stroke-width=".5" cx="80.1722" cy="-850.8" rx="27" ry="18"/>
<text text-anchor="middle" x="80.1722" y="-846.6" font-family="Verdana" font-size="14.00" fill="#000000">init</text>
</g>
<!-- github.com/dreadl0ck/netcap/decoder/stream.init&#45;&gt;github.com/dreadl0ck/netcap/decoder/stream.init#1 -->
<g id="edge29" class="edge">
<title>github.com/dreadl0ck/netcap/decoder/stream.init&#45;&gt;github.com/dreadl0ck/netcap/decoder/stream.init#1</title>
<path fill="none" stroke="#000000" d="M102.1064,-861.4743C138.0436,-878.9631 209.566,-913.7696 250.631,-933.7539"/>
<polygon fill="#000000" stroke="#000000" points="249.1182,-936.9101 259.6416,-938.1389 252.1814,-930.6159 249.1182,-936.9101"/>
</g>
<!-- github.com/dreadl0ck/netcap/decoder/stream.init#2 -->
<g id="node5" class="node">
<title>github.com/dreadl0ck/netcap/decoder/stream.init#2</title>
<ellipse fill="#add8e6" stroke="#000000" stroke-width=".5" cx="281.5487" cy="-850.8" rx="27" ry="18"/>
<text text-anchor="middle" x="281.5487" y="-846.6" font-family="Verdana" font-size="14.00" fill="#000000">init#2</text>
</g>
<!-- github.com/dreadl0ck/netcap/decoder/stream.init&#45;&gt;github.com/dreadl0ck/netcap/decoder/stream.init#2 -->
<g id="edge31" class="edge">
<title>github.com/dreadl0ck/netcap/decoder/stream.init&#45;&gt;github.com/dreadl0ck/netcap/decoder/stream.init#2</title>
<path fill="none" stroke="#000000" d="M107.3308,-850.8C142.7106,-850.8 204.7225,-850.8 244.4253,-850.8"/>
<polygon fill="#000000" stroke="#000000" points="244.4997,-854.3001 254.4996,-850.8 244.4996,-847.3001 244.4997,-854.3001"/>
</g>
<!-- github.com/pkg/errors.New -->
<g id="node23" class="node">
<title>github.com/pkg/errors.New</title>
<ellipse fill="#ffe4b5" stroke="#000000" stroke-width="1.5" cx="536.547" cy="-127.8" rx="27" ry="18"/>
<text text-anchor="middle" x="536.547" y="-123.6" font-family="Verdana" font-size="14.00" fill="#000000">New</text>
</g>
<!-- github.com/dreadl0ck/netcap/decoder/stream.init&#45;&gt;github.com/pkg/errors.New -->
<g id="edge28" class="edge">
<title>github.com/dreadl0ck/netcap/decoder/stream.init&#45;&gt;github.com/pkg/errors.New</title>
<path fill="none" stroke="#8b4513" d="M83.0306,-832.4895C93.0588,-771.8025 130.3887,-572.9401 209.3445,-428.8 278.3239,-302.8726 304.554,-269.8316 418.7529,-182.8 444.1542,-163.4415 477.4643,-148.6796 502.1791,-139.3473"/>
<polygon fill="#8b4513" stroke="#8b4513" points="503.6753,-142.5268 511.8619,-135.8014 501.2681,-135.9536 503.6753,-142.5268"/>
</g>
<!-- github.com/dreadl0ck/netcap/decoder/stream.init#2&#45;&gt;(*github.com/dreadl0ck/netcap/decoder.StreamDecoder).GetName -->
<g id="edge30" class="edge">
<title>github.com/dreadl0ck/netcap/decoder/stream.init#2&#45;&gt;(*github.com/dreadl0ck/netcap/decoder.StreamDecoder).GetName</title>
<path fill="none" stroke="#8b4513" stroke-dasharray="5,2" d="M308.838,-850.8C338.1027,-850.8 386.3952,-850.8 430.9939,-850.8"/>
<polygon fill="#8b4513" stroke="#8b4513" points="431.0397,-854.3001 441.0397,-850.8 431.0397,-847.3001 431.0397,-854.3001"/>
</g>
<!-- (*github.com/dreadl0ck/netcap/collector.Collector).Init -->
<g id="node6" class="node">
<title>(*github.com/dreadl0ck/netcap/collector.Collector).Init</title>
<ellipse fill="#ffe4b5" stroke="#000000" stroke-width="1.5" cx="80.1722" cy="-488.8" rx="56.345" ry="18"/>
<text text-anchor="middle" x="80.1722" y="-484.6" font-family="Verdana" font-size="14.00" fill="#000000">(*Collector).Init</text>
</g>
<!-- (*github.com/dreadl0ck/netcap/collector.Collector).Init&#45;&gt;github.com/dreadl0ck/netcap/decoder/stream.InitDecoders -->
<g id="edge13" class="edge">
<title>(*github.com/dreadl0ck/netcap/collector.Collector).Init&#45;&gt;github.com/dreadl0ck/netcap/decoder/stream.InitDecoders</title>
<path fill="none" stroke="#8b4513" d="M131.2483,-481.191C161.1893,-476.7305 198.9333,-471.1076 229.107,-466.6125"/>
<polygon fill="#8b4513" stroke="#8b4513" points="229.6524,-470.07 239.0275,-465.1346 228.6209,-463.1464 229.6524,-470.07"/>
</g>
<!-- (*github.com/dreadl0ck/netcap/collector.Collector).Init&#45;&gt;github.com/dreadl0ck/netcap/decoder/stream.InitAbstractDecoders -->
<g id="edge26" class="edge">
<title>(*github.com/dreadl0ck/netcap/collector.Collector).Init&#45;&gt;github.com/dreadl0ck/netcap/decoder/stream.InitAbstractDecoders</title>
<path fill="none" stroke="#8b4513" d="M130.988,-496.6226C154.8519,-500.2962 183.7162,-504.7396 209.7616,-508.7491"/>
<polygon fill="#8b4513" stroke="#8b4513" points="209.5502,-512.2577 219.9663,-510.32 210.6153,-505.3392 209.5502,-512.2577"/>
</g>
</g>
</svg>
